<mxfile host="app.diagrams.net" modified="2024-01-29T02:59:54.205Z" agent="Mozilla/5.0 (Windows NT 10.0; Win64; x64) AppleWebKit/537.36 (KHTML, like Gecko) Chrome/120.0.0.0 Safari/537.36 Edg/120.0.0.0" etag="X7qrrJJguHbuyNtwSrNf" version="23.0.2" type="device">
  <diagram name="หน้า-1" id="HYrOw2vbyxPXMUA1Kma0">
    <mxGraphModel dx="1302" dy="1419" grid="1" gridSize="10" guides="1" tooltips="1" connect="1" arrows="1" fold="1" page="1" pageScale="1" pageWidth="827" pageHeight="1169" math="0" shadow="0">
      <root>
        <mxCell id="0" />
        <mxCell id="1" parent="0" />
        <mxCell id="9VO5_gYoO6aW6VXsWO2F-51" value="book_table" style="shape=table;startSize=30;container=1;collapsible=0;childLayout=tableLayout;strokeColor=#000000;fontSize=16;strokeWidth=2;fillColor=#73e273;" parent="1" vertex="1">
          <mxGeometry x="280" y="200" width="462.00000000000045" height="430" as="geometry" />
        </mxCell>
        <mxCell id="9VO5_gYoO6aW6VXsWO2F-52" style="shape=tableRow;horizontal=0;startSize=0;swimlaneHead=0;swimlaneBody=0;strokeColor=inherit;top=0;left=0;bottom=0;right=0;collapsible=0;dropTarget=0;fillColor=none;points=[[0,0.5],[1,0.5]];portConstraint=eastwest;fontSize=16;" parent="9VO5_gYoO6aW6VXsWO2F-51" vertex="1">
          <mxGeometry y="30" width="462.00000000000045" height="40" as="geometry" />
        </mxCell>
        <mxCell id="9VO5_gYoO6aW6VXsWO2F-53" value="Name" style="shape=partialRectangle;html=1;whiteSpace=wrap;connectable=0;overflow=hidden;top=1;left=1;bottom=1;right=1;pointerEvents=1;fontSize=16;fillColor=#E3E0E0;fillStyle=auto;strokeWidth=2;" parent="9VO5_gYoO6aW6VXsWO2F-52" vertex="1">
          <mxGeometry width="153" height="40" as="geometry">
            <mxRectangle width="153" height="40" as="alternateBounds" />
          </mxGeometry>
        </mxCell>
        <mxCell id="9VO5_gYoO6aW6VXsWO2F-54" value="Type" style="shape=partialRectangle;html=1;whiteSpace=wrap;connectable=0;overflow=hidden;top=1;left=1;bottom=1;right=1;pointerEvents=1;fontSize=16;fillColor=#E3E0E0;fillStyle=auto;strokeWidth=2;" parent="9VO5_gYoO6aW6VXsWO2F-52" vertex="1">
          <mxGeometry x="153" width="107" height="40" as="geometry">
            <mxRectangle width="107" height="40" as="alternateBounds" />
          </mxGeometry>
        </mxCell>
        <mxCell id="9VO5_gYoO6aW6VXsWO2F-55" value="Description" style="shape=partialRectangle;html=1;whiteSpace=wrap;connectable=0;overflow=hidden;top=1;left=1;bottom=1;right=1;pointerEvents=1;fontSize=16;fillColor=#E3E0E0;fillStyle=auto;strokeWidth=2;" parent="9VO5_gYoO6aW6VXsWO2F-52" vertex="1">
          <mxGeometry x="260" width="202" height="40" as="geometry">
            <mxRectangle width="202" height="40" as="alternateBounds" />
          </mxGeometry>
        </mxCell>
        <mxCell id="9VO5_gYoO6aW6VXsWO2F-56" style="shape=tableRow;horizontal=0;startSize=0;swimlaneHead=0;swimlaneBody=0;strokeColor=inherit;top=0;left=0;bottom=0;right=0;collapsible=0;dropTarget=0;fillColor=none;points=[[0,0.5],[1,0.5]];portConstraint=eastwest;fontSize=16;" parent="9VO5_gYoO6aW6VXsWO2F-51" vertex="1">
          <mxGeometry y="70" width="462.00000000000045" height="40" as="geometry" />
        </mxCell>
        <mxCell id="9VO5_gYoO6aW6VXsWO2F-57" value="id_book (PK)" style="shape=partialRectangle;html=1;whiteSpace=wrap;connectable=0;strokeColor=inherit;overflow=hidden;fillColor=none;top=0;left=0;bottom=0;right=0;pointerEvents=1;fontSize=16;" parent="9VO5_gYoO6aW6VXsWO2F-56" vertex="1">
          <mxGeometry width="153" height="40" as="geometry">
            <mxRectangle width="153" height="40" as="alternateBounds" />
          </mxGeometry>
        </mxCell>
        <mxCell id="9VO5_gYoO6aW6VXsWO2F-58" value="int (10)" style="shape=partialRectangle;html=1;whiteSpace=wrap;connectable=0;strokeColor=inherit;overflow=hidden;fillColor=none;top=0;left=0;bottom=0;right=0;pointerEvents=1;fontSize=16;" parent="9VO5_gYoO6aW6VXsWO2F-56" vertex="1">
          <mxGeometry x="153" width="107" height="40" as="geometry">
            <mxRectangle width="107" height="40" as="alternateBounds" />
          </mxGeometry>
        </mxCell>
        <mxCell id="9VO5_gYoO6aW6VXsWO2F-59" value="ไอดีหนังสิอ" style="shape=partialRectangle;html=1;whiteSpace=wrap;connectable=0;strokeColor=inherit;overflow=hidden;fillColor=none;top=0;left=0;bottom=0;right=0;pointerEvents=1;fontSize=16;" parent="9VO5_gYoO6aW6VXsWO2F-56" vertex="1">
          <mxGeometry x="260" width="202" height="40" as="geometry">
            <mxRectangle width="202" height="40" as="alternateBounds" />
          </mxGeometry>
        </mxCell>
        <mxCell id="9VO5_gYoO6aW6VXsWO2F-60" value="" style="shape=tableRow;horizontal=0;startSize=0;swimlaneHead=0;swimlaneBody=0;strokeColor=inherit;top=0;left=0;bottom=0;right=0;collapsible=0;dropTarget=0;fillColor=none;points=[[0,0.5],[1,0.5]];portConstraint=eastwest;fontSize=16;" parent="9VO5_gYoO6aW6VXsWO2F-51" vertex="1">
          <mxGeometry y="110" width="462.00000000000045" height="40" as="geometry" />
        </mxCell>
        <mxCell id="9VO5_gYoO6aW6VXsWO2F-61" value="name_book" style="shape=partialRectangle;html=1;whiteSpace=wrap;connectable=0;strokeColor=inherit;overflow=hidden;fillColor=none;top=0;left=0;bottom=0;right=0;pointerEvents=1;fontSize=16;" parent="9VO5_gYoO6aW6VXsWO2F-60" vertex="1">
          <mxGeometry width="153" height="40" as="geometry">
            <mxRectangle width="153" height="40" as="alternateBounds" />
          </mxGeometry>
        </mxCell>
        <mxCell id="9VO5_gYoO6aW6VXsWO2F-62" value="varchar (255)" style="shape=partialRectangle;html=1;whiteSpace=wrap;connectable=0;strokeColor=inherit;overflow=hidden;fillColor=none;top=0;left=0;bottom=0;right=0;pointerEvents=1;fontSize=16;" parent="9VO5_gYoO6aW6VXsWO2F-60" vertex="1">
          <mxGeometry x="153" width="107" height="40" as="geometry">
            <mxRectangle width="107" height="40" as="alternateBounds" />
          </mxGeometry>
        </mxCell>
        <mxCell id="9VO5_gYoO6aW6VXsWO2F-63" value="ชื่อหนังสือ" style="shape=partialRectangle;html=1;whiteSpace=wrap;connectable=0;strokeColor=inherit;overflow=hidden;fillColor=none;top=0;left=0;bottom=0;right=0;pointerEvents=1;fontSize=16;" parent="9VO5_gYoO6aW6VXsWO2F-60" vertex="1">
          <mxGeometry x="260" width="202" height="40" as="geometry">
            <mxRectangle width="202" height="40" as="alternateBounds" />
          </mxGeometry>
        </mxCell>
        <mxCell id="dte0unYEwiuYdA9rihWW-2" style="shape=tableRow;horizontal=0;startSize=0;swimlaneHead=0;swimlaneBody=0;strokeColor=inherit;top=0;left=0;bottom=0;right=0;collapsible=0;dropTarget=0;fillColor=none;points=[[0,0.5],[1,0.5]];portConstraint=eastwest;fontSize=16;" parent="9VO5_gYoO6aW6VXsWO2F-51" vertex="1">
          <mxGeometry y="150" width="462.00000000000045" height="40" as="geometry" />
        </mxCell>
        <mxCell id="dte0unYEwiuYdA9rihWW-3" value="book_author" style="shape=partialRectangle;html=1;whiteSpace=wrap;connectable=0;strokeColor=inherit;overflow=hidden;fillColor=none;top=0;left=0;bottom=0;right=0;pointerEvents=1;fontSize=16;" parent="dte0unYEwiuYdA9rihWW-2" vertex="1">
          <mxGeometry width="153" height="40" as="geometry">
            <mxRectangle width="153" height="40" as="alternateBounds" />
          </mxGeometry>
        </mxCell>
        <mxCell id="dte0unYEwiuYdA9rihWW-4" value="varchar (255)" style="shape=partialRectangle;html=1;whiteSpace=wrap;connectable=0;strokeColor=inherit;overflow=hidden;fillColor=none;top=0;left=0;bottom=0;right=0;pointerEvents=1;fontSize=16;" parent="dte0unYEwiuYdA9rihWW-2" vertex="1">
          <mxGeometry x="153" width="107" height="40" as="geometry">
            <mxRectangle width="107" height="40" as="alternateBounds" />
          </mxGeometry>
        </mxCell>
        <mxCell id="dte0unYEwiuYdA9rihWW-5" value="ผู้แต่งหนังสือ" style="shape=partialRectangle;html=1;whiteSpace=wrap;connectable=0;strokeColor=inherit;overflow=hidden;fillColor=none;top=0;left=0;bottom=0;right=0;pointerEvents=1;fontSize=16;" parent="dte0unYEwiuYdA9rihWW-2" vertex="1">
          <mxGeometry x="260" width="202" height="40" as="geometry">
            <mxRectangle width="202" height="40" as="alternateBounds" />
          </mxGeometry>
        </mxCell>
        <mxCell id="9VO5_gYoO6aW6VXsWO2F-64" style="shape=tableRow;horizontal=0;startSize=0;swimlaneHead=0;swimlaneBody=0;strokeColor=inherit;top=0;left=0;bottom=0;right=0;collapsible=0;dropTarget=0;fillColor=none;points=[[0,0.5],[1,0.5]];portConstraint=eastwest;fontSize=16;" parent="9VO5_gYoO6aW6VXsWO2F-51" vertex="1">
          <mxGeometry y="190" width="462.00000000000045" height="40" as="geometry" />
        </mxCell>
        <mxCell id="9VO5_gYoO6aW6VXsWO2F-65" value="details" style="shape=partialRectangle;html=1;whiteSpace=wrap;connectable=0;strokeColor=inherit;overflow=hidden;fillColor=none;top=0;left=0;bottom=0;right=0;pointerEvents=1;fontSize=16;" parent="9VO5_gYoO6aW6VXsWO2F-64" vertex="1">
          <mxGeometry width="153" height="40" as="geometry">
            <mxRectangle width="153" height="40" as="alternateBounds" />
          </mxGeometry>
        </mxCell>
        <mxCell id="9VO5_gYoO6aW6VXsWO2F-66" value="text" style="shape=partialRectangle;html=1;whiteSpace=wrap;connectable=0;strokeColor=inherit;overflow=hidden;fillColor=none;top=0;left=0;bottom=0;right=0;pointerEvents=1;fontSize=16;" parent="9VO5_gYoO6aW6VXsWO2F-64" vertex="1">
          <mxGeometry x="153" width="107" height="40" as="geometry">
            <mxRectangle width="107" height="40" as="alternateBounds" />
          </mxGeometry>
        </mxCell>
        <mxCell id="9VO5_gYoO6aW6VXsWO2F-67" value="รายละเอียดหนังสือ" style="shape=partialRectangle;html=1;whiteSpace=wrap;connectable=0;strokeColor=inherit;overflow=hidden;fillColor=none;top=0;left=0;bottom=0;right=0;pointerEvents=1;fontSize=16;" parent="9VO5_gYoO6aW6VXsWO2F-64" vertex="1">
          <mxGeometry x="260" width="202" height="40" as="geometry">
            <mxRectangle width="202" height="40" as="alternateBounds" />
          </mxGeometry>
        </mxCell>
        <mxCell id="9VO5_gYoO6aW6VXsWO2F-346" style="shape=tableRow;horizontal=0;startSize=0;swimlaneHead=0;swimlaneBody=0;strokeColor=inherit;top=0;left=0;bottom=0;right=0;collapsible=0;dropTarget=0;fillColor=none;points=[[0,0.5],[1,0.5]];portConstraint=eastwest;fontSize=16;" parent="9VO5_gYoO6aW6VXsWO2F-51" vertex="1">
          <mxGeometry y="230" width="462.00000000000045" height="40" as="geometry" />
        </mxCell>
        <mxCell id="9VO5_gYoO6aW6VXsWO2F-347" value="pic_book" style="shape=partialRectangle;html=1;whiteSpace=wrap;connectable=0;strokeColor=inherit;overflow=hidden;fillColor=none;top=0;left=0;bottom=0;right=0;pointerEvents=1;fontSize=16;" parent="9VO5_gYoO6aW6VXsWO2F-346" vertex="1">
          <mxGeometry width="153" height="40" as="geometry">
            <mxRectangle width="153" height="40" as="alternateBounds" />
          </mxGeometry>
        </mxCell>
        <mxCell id="9VO5_gYoO6aW6VXsWO2F-348" value="longtext" style="shape=partialRectangle;html=1;whiteSpace=wrap;connectable=0;strokeColor=inherit;overflow=hidden;fillColor=none;top=0;left=0;bottom=0;right=0;pointerEvents=1;fontSize=16;" parent="9VO5_gYoO6aW6VXsWO2F-346" vertex="1">
          <mxGeometry x="153" width="107" height="40" as="geometry">
            <mxRectangle width="107" height="40" as="alternateBounds" />
          </mxGeometry>
        </mxCell>
        <mxCell id="9VO5_gYoO6aW6VXsWO2F-349" value="รูปหนังสือ" style="shape=partialRectangle;html=1;whiteSpace=wrap;connectable=0;strokeColor=inherit;overflow=hidden;fillColor=none;top=0;left=0;bottom=0;right=0;pointerEvents=1;fontSize=16;" parent="9VO5_gYoO6aW6VXsWO2F-346" vertex="1">
          <mxGeometry x="260" width="202" height="40" as="geometry">
            <mxRectangle width="202" height="40" as="alternateBounds" />
          </mxGeometry>
        </mxCell>
        <mxCell id="9VO5_gYoO6aW6VXsWO2F-68" style="shape=tableRow;horizontal=0;startSize=0;swimlaneHead=0;swimlaneBody=0;strokeColor=inherit;top=0;left=0;bottom=0;right=0;collapsible=0;dropTarget=0;fillColor=none;points=[[0,0.5],[1,0.5]];portConstraint=eastwest;fontSize=16;" parent="9VO5_gYoO6aW6VXsWO2F-51" vertex="1">
          <mxGeometry y="270" width="462.00000000000045" height="40" as="geometry" />
        </mxCell>
        <mxCell id="9VO5_gYoO6aW6VXsWO2F-69" value="status_book" style="shape=partialRectangle;html=1;whiteSpace=wrap;connectable=0;strokeColor=inherit;overflow=hidden;fillColor=none;top=0;left=0;bottom=0;right=0;pointerEvents=1;fontSize=16;" parent="9VO5_gYoO6aW6VXsWO2F-68" vertex="1">
          <mxGeometry width="153" height="40" as="geometry">
            <mxRectangle width="153" height="40" as="alternateBounds" />
          </mxGeometry>
        </mxCell>
        <mxCell id="9VO5_gYoO6aW6VXsWO2F-70" value="int (10)" style="shape=partialRectangle;html=1;whiteSpace=wrap;connectable=0;strokeColor=inherit;overflow=hidden;fillColor=none;top=0;left=0;bottom=0;right=0;pointerEvents=1;fontSize=16;" parent="9VO5_gYoO6aW6VXsWO2F-68" vertex="1">
          <mxGeometry x="153" width="107" height="40" as="geometry">
            <mxRectangle width="107" height="40" as="alternateBounds" />
          </mxGeometry>
        </mxCell>
        <mxCell id="9VO5_gYoO6aW6VXsWO2F-71" value="สถานะหนังสือ" style="shape=partialRectangle;html=1;whiteSpace=wrap;connectable=0;strokeColor=inherit;overflow=hidden;fillColor=none;top=0;left=0;bottom=0;right=0;pointerEvents=1;fontSize=16;" parent="9VO5_gYoO6aW6VXsWO2F-68" vertex="1">
          <mxGeometry x="260" width="202" height="40" as="geometry">
            <mxRectangle width="202" height="40" as="alternateBounds" />
          </mxGeometry>
        </mxCell>
        <mxCell id="9VO5_gYoO6aW6VXsWO2F-220" style="shape=tableRow;horizontal=0;startSize=0;swimlaneHead=0;swimlaneBody=0;strokeColor=inherit;top=0;left=0;bottom=0;right=0;collapsible=0;dropTarget=0;fillColor=none;points=[[0,0.5],[1,0.5]];portConstraint=eastwest;fontSize=16;" parent="9VO5_gYoO6aW6VXsWO2F-51" vertex="1">
          <mxGeometry y="310" width="462.00000000000045" height="40" as="geometry" />
        </mxCell>
        <mxCell id="9VO5_gYoO6aW6VXsWO2F-221" value="price" style="shape=partialRectangle;html=1;whiteSpace=wrap;connectable=0;strokeColor=inherit;overflow=hidden;fillColor=none;top=0;left=0;bottom=0;right=0;pointerEvents=1;fontSize=16;" parent="9VO5_gYoO6aW6VXsWO2F-220" vertex="1">
          <mxGeometry width="153" height="40" as="geometry">
            <mxRectangle width="153" height="40" as="alternateBounds" />
          </mxGeometry>
        </mxCell>
        <mxCell id="9VO5_gYoO6aW6VXsWO2F-222" value="int (10)" style="shape=partialRectangle;html=1;whiteSpace=wrap;connectable=0;strokeColor=inherit;overflow=hidden;fillColor=none;top=0;left=0;bottom=0;right=0;pointerEvents=1;fontSize=16;" parent="9VO5_gYoO6aW6VXsWO2F-220" vertex="1">
          <mxGeometry x="153" width="107" height="40" as="geometry">
            <mxRectangle width="107" height="40" as="alternateBounds" />
          </mxGeometry>
        </mxCell>
        <mxCell id="9VO5_gYoO6aW6VXsWO2F-223" value="ราคาเช่าหนังสือ" style="shape=partialRectangle;html=1;whiteSpace=wrap;connectable=0;strokeColor=inherit;overflow=hidden;fillColor=none;top=0;left=0;bottom=0;right=0;pointerEvents=1;fontSize=16;" parent="9VO5_gYoO6aW6VXsWO2F-220" vertex="1">
          <mxGeometry x="260" width="202" height="40" as="geometry">
            <mxRectangle width="202" height="40" as="alternateBounds" />
          </mxGeometry>
        </mxCell>
        <mxCell id="pcl7vVJ7poDBcIRlffuA-4" style="shape=tableRow;horizontal=0;startSize=0;swimlaneHead=0;swimlaneBody=0;strokeColor=inherit;top=0;left=0;bottom=0;right=0;collapsible=0;dropTarget=0;fillColor=none;points=[[0,0.5],[1,0.5]];portConstraint=eastwest;fontSize=16;" parent="9VO5_gYoO6aW6VXsWO2F-51" vertex="1">
          <mxGeometry y="350" width="462.00000000000045" height="40" as="geometry" />
        </mxCell>
        <mxCell id="pcl7vVJ7poDBcIRlffuA-5" value="price_book" style="shape=partialRectangle;html=1;whiteSpace=wrap;connectable=0;strokeColor=inherit;overflow=hidden;fillColor=none;top=0;left=0;bottom=0;right=0;pointerEvents=1;fontSize=16;" parent="pcl7vVJ7poDBcIRlffuA-4" vertex="1">
          <mxGeometry width="153" height="40" as="geometry">
            <mxRectangle width="153" height="40" as="alternateBounds" />
          </mxGeometry>
        </mxCell>
        <mxCell id="pcl7vVJ7poDBcIRlffuA-6" value="int (10)" style="shape=partialRectangle;html=1;whiteSpace=wrap;connectable=0;strokeColor=inherit;overflow=hidden;fillColor=none;top=0;left=0;bottom=0;right=0;pointerEvents=1;fontSize=16;" parent="pcl7vVJ7poDBcIRlffuA-4" vertex="1">
          <mxGeometry x="153" width="107" height="40" as="geometry">
            <mxRectangle width="107" height="40" as="alternateBounds" />
          </mxGeometry>
        </mxCell>
        <mxCell id="pcl7vVJ7poDBcIRlffuA-7" value="ราคาหนังสือ" style="shape=partialRectangle;html=1;whiteSpace=wrap;connectable=0;strokeColor=inherit;overflow=hidden;fillColor=none;top=0;left=0;bottom=0;right=0;pointerEvents=1;fontSize=16;" parent="pcl7vVJ7poDBcIRlffuA-4" vertex="1">
          <mxGeometry x="260" width="202" height="40" as="geometry">
            <mxRectangle width="202" height="40" as="alternateBounds" />
          </mxGeometry>
        </mxCell>
        <mxCell id="9VO5_gYoO6aW6VXsWO2F-72" style="shape=tableRow;horizontal=0;startSize=0;swimlaneHead=0;swimlaneBody=0;strokeColor=inherit;top=0;left=0;bottom=0;right=0;collapsible=0;dropTarget=0;fillColor=none;points=[[0,0.5],[1,0.5]];portConstraint=eastwest;fontSize=16;" parent="9VO5_gYoO6aW6VXsWO2F-51" vertex="1">
          <mxGeometry y="390" width="462.00000000000045" height="40" as="geometry" />
        </mxCell>
        <mxCell id="9VO5_gYoO6aW6VXsWO2F-73" value="category_id (FK)" style="shape=partialRectangle;html=1;whiteSpace=wrap;connectable=0;strokeColor=inherit;overflow=hidden;fillColor=none;top=0;left=0;bottom=0;right=0;pointerEvents=1;fontSize=16;" parent="9VO5_gYoO6aW6VXsWO2F-72" vertex="1">
          <mxGeometry width="153" height="40" as="geometry">
            <mxRectangle width="153" height="40" as="alternateBounds" />
          </mxGeometry>
        </mxCell>
        <mxCell id="9VO5_gYoO6aW6VXsWO2F-74" value="int (10)" style="shape=partialRectangle;html=1;whiteSpace=wrap;connectable=0;strokeColor=inherit;overflow=hidden;fillColor=none;top=0;left=0;bottom=0;right=0;pointerEvents=1;fontSize=16;" parent="9VO5_gYoO6aW6VXsWO2F-72" vertex="1">
          <mxGeometry x="153" width="107" height="40" as="geometry">
            <mxRectangle width="107" height="40" as="alternateBounds" />
          </mxGeometry>
        </mxCell>
        <mxCell id="9VO5_gYoO6aW6VXsWO2F-75" value="หมวดหมู่หนังสือ" style="shape=partialRectangle;html=1;whiteSpace=wrap;connectable=0;strokeColor=inherit;overflow=hidden;fillColor=none;top=0;left=0;bottom=0;right=0;pointerEvents=1;fontSize=16;" parent="9VO5_gYoO6aW6VXsWO2F-72" vertex="1">
          <mxGeometry x="260" width="202" height="40" as="geometry">
            <mxRectangle width="202" height="40" as="alternateBounds" />
          </mxGeometry>
        </mxCell>
        <mxCell id="9VO5_gYoO6aW6VXsWO2F-76" value="user_table" style="shape=table;startSize=30;container=1;collapsible=0;childLayout=tableLayout;strokeColor=#000000;fontSize=16;strokeWidth=2;fillColor=#ff8a8a;" parent="1" vertex="1">
          <mxGeometry x="279.99999999999994" y="-280" width="500.00000000000045" height="470" as="geometry" />
        </mxCell>
        <mxCell id="9VO5_gYoO6aW6VXsWO2F-77" style="shape=tableRow;horizontal=0;startSize=0;swimlaneHead=0;swimlaneBody=0;strokeColor=inherit;top=0;left=0;bottom=0;right=0;collapsible=0;dropTarget=0;fillColor=none;points=[[0,0.5],[1,0.5]];portConstraint=eastwest;fontSize=16;" parent="9VO5_gYoO6aW6VXsWO2F-76" vertex="1">
          <mxGeometry y="30" width="500.00000000000045" height="40" as="geometry" />
        </mxCell>
        <mxCell id="9VO5_gYoO6aW6VXsWO2F-78" value="Name" style="shape=partialRectangle;html=1;whiteSpace=wrap;connectable=0;overflow=hidden;top=1;left=1;bottom=1;right=1;pointerEvents=1;fontSize=16;fillColor=#E3E0E0;fillStyle=auto;strokeWidth=2;" parent="9VO5_gYoO6aW6VXsWO2F-77" vertex="1">
          <mxGeometry width="153" height="40" as="geometry">
            <mxRectangle width="153" height="40" as="alternateBounds" />
          </mxGeometry>
        </mxCell>
        <mxCell id="9VO5_gYoO6aW6VXsWO2F-79" value="Type" style="shape=partialRectangle;html=1;whiteSpace=wrap;connectable=0;overflow=hidden;top=1;left=1;bottom=1;right=1;pointerEvents=1;fontSize=16;fillColor=#E3E0E0;fillStyle=auto;strokeWidth=2;" parent="9VO5_gYoO6aW6VXsWO2F-77" vertex="1">
          <mxGeometry x="153" width="107" height="40" as="geometry">
            <mxRectangle width="107" height="40" as="alternateBounds" />
          </mxGeometry>
        </mxCell>
        <mxCell id="9VO5_gYoO6aW6VXsWO2F-80" value="Description" style="shape=partialRectangle;html=1;whiteSpace=wrap;connectable=0;overflow=hidden;top=1;left=1;bottom=1;right=1;pointerEvents=1;fontSize=16;fillColor=#E3E0E0;fillStyle=auto;strokeWidth=2;" parent="9VO5_gYoO6aW6VXsWO2F-77" vertex="1">
          <mxGeometry x="260" width="240" height="40" as="geometry">
            <mxRectangle width="240" height="40" as="alternateBounds" />
          </mxGeometry>
        </mxCell>
        <mxCell id="9VO5_gYoO6aW6VXsWO2F-81" style="shape=tableRow;horizontal=0;startSize=0;swimlaneHead=0;swimlaneBody=0;strokeColor=inherit;top=0;left=0;bottom=0;right=0;collapsible=0;dropTarget=0;fillColor=none;points=[[0,0.5],[1,0.5]];portConstraint=eastwest;fontSize=16;" parent="9VO5_gYoO6aW6VXsWO2F-76" vertex="1">
          <mxGeometry y="70" width="500.00000000000045" height="40" as="geometry" />
        </mxCell>
        <mxCell id="9VO5_gYoO6aW6VXsWO2F-82" value="id_user (PK)" style="shape=partialRectangle;html=1;whiteSpace=wrap;connectable=0;strokeColor=inherit;overflow=hidden;fillColor=none;top=0;left=0;bottom=0;right=0;pointerEvents=1;fontSize=16;" parent="9VO5_gYoO6aW6VXsWO2F-81" vertex="1">
          <mxGeometry width="153" height="40" as="geometry">
            <mxRectangle width="153" height="40" as="alternateBounds" />
          </mxGeometry>
        </mxCell>
        <mxCell id="9VO5_gYoO6aW6VXsWO2F-83" value="int (10)" style="shape=partialRectangle;html=1;whiteSpace=wrap;connectable=0;strokeColor=inherit;overflow=hidden;fillColor=none;top=0;left=0;bottom=0;right=0;pointerEvents=1;fontSize=16;" parent="9VO5_gYoO6aW6VXsWO2F-81" vertex="1">
          <mxGeometry x="153" width="107" height="40" as="geometry">
            <mxRectangle width="107" height="40" as="alternateBounds" />
          </mxGeometry>
        </mxCell>
        <mxCell id="9VO5_gYoO6aW6VXsWO2F-84" value="ไอดีผู้ใช้" style="shape=partialRectangle;html=1;whiteSpace=wrap;connectable=0;strokeColor=inherit;overflow=hidden;fillColor=none;top=0;left=0;bottom=0;right=0;pointerEvents=1;fontSize=16;" parent="9VO5_gYoO6aW6VXsWO2F-81" vertex="1">
          <mxGeometry x="260" width="240" height="40" as="geometry">
            <mxRectangle width="240" height="40" as="alternateBounds" />
          </mxGeometry>
        </mxCell>
        <mxCell id="9VO5_gYoO6aW6VXsWO2F-350" style="shape=tableRow;horizontal=0;startSize=0;swimlaneHead=0;swimlaneBody=0;strokeColor=inherit;top=0;left=0;bottom=0;right=0;collapsible=0;dropTarget=0;fillColor=none;points=[[0,0.5],[1,0.5]];portConstraint=eastwest;fontSize=16;" parent="9VO5_gYoO6aW6VXsWO2F-76" vertex="1">
          <mxGeometry y="110" width="500.00000000000045" height="40" as="geometry" />
        </mxCell>
        <mxCell id="9VO5_gYoO6aW6VXsWO2F-351" value="email_user&amp;nbsp;" style="shape=partialRectangle;html=1;whiteSpace=wrap;connectable=0;strokeColor=inherit;overflow=hidden;fillColor=none;top=0;left=0;bottom=0;right=0;pointerEvents=1;fontSize=16;" parent="9VO5_gYoO6aW6VXsWO2F-350" vertex="1">
          <mxGeometry width="153" height="40" as="geometry">
            <mxRectangle width="153" height="40" as="alternateBounds" />
          </mxGeometry>
        </mxCell>
        <mxCell id="9VO5_gYoO6aW6VXsWO2F-352" value="varchar (255)" style="shape=partialRectangle;html=1;whiteSpace=wrap;connectable=0;strokeColor=inherit;overflow=hidden;fillColor=none;top=0;left=0;bottom=0;right=0;pointerEvents=1;fontSize=16;" parent="9VO5_gYoO6aW6VXsWO2F-350" vertex="1">
          <mxGeometry x="153" width="107" height="40" as="geometry">
            <mxRectangle width="107" height="40" as="alternateBounds" />
          </mxGeometry>
        </mxCell>
        <mxCell id="9VO5_gYoO6aW6VXsWO2F-353" value="อีเมล user" style="shape=partialRectangle;html=1;whiteSpace=wrap;connectable=0;strokeColor=inherit;overflow=hidden;fillColor=none;top=0;left=0;bottom=0;right=0;pointerEvents=1;fontSize=16;" parent="9VO5_gYoO6aW6VXsWO2F-350" vertex="1">
          <mxGeometry x="260" width="240" height="40" as="geometry">
            <mxRectangle width="240" height="40" as="alternateBounds" />
          </mxGeometry>
        </mxCell>
        <mxCell id="9VO5_gYoO6aW6VXsWO2F-85" value="" style="shape=tableRow;horizontal=0;startSize=0;swimlaneHead=0;swimlaneBody=0;strokeColor=inherit;top=0;left=0;bottom=0;right=0;collapsible=0;dropTarget=0;fillColor=none;points=[[0,0.5],[1,0.5]];portConstraint=eastwest;fontSize=16;" parent="9VO5_gYoO6aW6VXsWO2F-76" vertex="1">
          <mxGeometry y="150" width="500.00000000000045" height="40" as="geometry" />
        </mxCell>
        <mxCell id="9VO5_gYoO6aW6VXsWO2F-86" value="name" style="shape=partialRectangle;html=1;whiteSpace=wrap;connectable=0;strokeColor=inherit;overflow=hidden;fillColor=none;top=0;left=0;bottom=0;right=0;pointerEvents=1;fontSize=16;" parent="9VO5_gYoO6aW6VXsWO2F-85" vertex="1">
          <mxGeometry width="153" height="40" as="geometry">
            <mxRectangle width="153" height="40" as="alternateBounds" />
          </mxGeometry>
        </mxCell>
        <mxCell id="9VO5_gYoO6aW6VXsWO2F-87" value="varchar (255)" style="shape=partialRectangle;html=1;whiteSpace=wrap;connectable=0;strokeColor=inherit;overflow=hidden;fillColor=none;top=0;left=0;bottom=0;right=0;pointerEvents=1;fontSize=16;" parent="9VO5_gYoO6aW6VXsWO2F-85" vertex="1">
          <mxGeometry x="153" width="107" height="40" as="geometry">
            <mxRectangle width="107" height="40" as="alternateBounds" />
          </mxGeometry>
        </mxCell>
        <mxCell id="9VO5_gYoO6aW6VXsWO2F-88" value="ชื่อ user" style="shape=partialRectangle;html=1;whiteSpace=wrap;connectable=0;strokeColor=inherit;overflow=hidden;fillColor=none;top=0;left=0;bottom=0;right=0;pointerEvents=1;fontSize=16;" parent="9VO5_gYoO6aW6VXsWO2F-85" vertex="1">
          <mxGeometry x="260" width="240" height="40" as="geometry">
            <mxRectangle width="240" height="40" as="alternateBounds" />
          </mxGeometry>
        </mxCell>
        <mxCell id="9VO5_gYoO6aW6VXsWO2F-89" style="shape=tableRow;horizontal=0;startSize=0;swimlaneHead=0;swimlaneBody=0;strokeColor=inherit;top=0;left=0;bottom=0;right=0;collapsible=0;dropTarget=0;fillColor=none;points=[[0,0.5],[1,0.5]];portConstraint=eastwest;fontSize=16;" parent="9VO5_gYoO6aW6VXsWO2F-76" vertex="1">
          <mxGeometry y="190" width="500.00000000000045" height="40" as="geometry" />
        </mxCell>
        <mxCell id="9VO5_gYoO6aW6VXsWO2F-90" value="lastname" style="shape=partialRectangle;html=1;whiteSpace=wrap;connectable=0;strokeColor=inherit;overflow=hidden;fillColor=none;top=0;left=0;bottom=0;right=0;pointerEvents=1;fontSize=16;" parent="9VO5_gYoO6aW6VXsWO2F-89" vertex="1">
          <mxGeometry width="153" height="40" as="geometry">
            <mxRectangle width="153" height="40" as="alternateBounds" />
          </mxGeometry>
        </mxCell>
        <mxCell id="9VO5_gYoO6aW6VXsWO2F-91" value="varchar (255)" style="shape=partialRectangle;html=1;whiteSpace=wrap;connectable=0;strokeColor=inherit;overflow=hidden;fillColor=none;top=0;left=0;bottom=0;right=0;pointerEvents=1;fontSize=16;" parent="9VO5_gYoO6aW6VXsWO2F-89" vertex="1">
          <mxGeometry x="153" width="107" height="40" as="geometry">
            <mxRectangle width="107" height="40" as="alternateBounds" />
          </mxGeometry>
        </mxCell>
        <mxCell id="9VO5_gYoO6aW6VXsWO2F-92" value="&lt;span data-buffer=&quot;&lt;!--(figma)ZmlnLWtpd2keAAAAOjsAALWdeZhsSVXgI25m1vLqLb3vrCKy2xtNs5PLrcp8L7fOm1nV3WInWZW3XiUvKzPJm1WvH+OCiIiIiIiIiIiIiIiIiIiIiIiIiIiIiIiICA7jOIzjOA7DOM78TkTcmzfrvWbmn+nv6xcnTpw4EXHixIkTJyJvvcirhVHUOxu2L0xCpa443ajUu0E732or/qs3Sn63WM7XN/yArO4EfiuV9wy1Xy8BZ4LKRj1fBcoG7XuqPkDOAN3AF15LhtZw7gZnKs1uy6828lJzud5oV9bv6QblRqda6naaG618SeqvOLBbatQlvxrnW/56yw/KoI4FRb/ud0E3y927On7rHpBraWTLb1YFebxUWV8nPVGsVvx6u1to0XoxH0jfTqb6drrRaTEOX3p2Kmi3/HzNlpC/zOXtiC/P3z+IEMLdwEqa0PmdHYQJCqpSt1E3DSuT2WpV2jIGXR/3w+ZeLwohK1LUNi1BVGtsGlBvDUb9wehs62AoNPVG/V6/1aBANUqmXDjY2XoYhT4oVWoUOzVGBaiL+fpmPgDyNlqNThMgs97K14QuW2g0qn6+3m00/Va+XWnUQeY2/WK70QJaknGSLlcrhu2KX61WmoGAqy2ImHYzr8da/kanmm91m43qPRuGyRpN1Ut+CXHP6Y63/bulSyeCaqUoiJPBPbVCQ3TkVKVOY3WDRaqV4hkR1eVBOd/0u1uVdrnr6l5RbNTr8DQdvLIo+lioNopnyF21VSltGN26Gl41Gek1Nb9UyQNcW65slKv8L8XXBTCwg73egV2E3armpdEbtvJBudJt0zK5GzfzrUq+YPp/U9sBDzJAt4g8yD04JnGa/RCGZ/T1ocFebxJuDWZ77fD+mZ2iBwd3dfItn1JFbSdNTSdrDaNEXhteIi/0nmwmyZYaW9Lh7KUEm2vmW/lqlQWEjte6LTfOpUV01V8X7LJf3+iW8gwhbxpfkTxLpSOZVcmsVwzXYwZuVEu+yHqtzfLx721UpJfHmy2/5K+jFqVus9Uo+oEo2Ank5lel/GSsgN2g4vp4KkHVOtV2pWmQl9Xy9U6+2q3Umx3p2+Vl/+681aArimV/s2XAK5tUc+irGgzbgjLL0rNrmtWONH9tvtVqbMXDvM7mYllcH3RqNfrSPd2pmxkHd4NRohuDpu8Xy91Cp8AcgripUm/7suZZ541WfkNwDyoMw1G/xkqT7uSDoNsuMxMbYnOwiq2asXS6lG+d8YW15wYpCpWR5cPqKGBIyGaLjWojyeWMUpo6SwHr30BmwVGj1EChya/YKnF2da6sx4LGertreJBbK+dbpSRnLJzf8u2qOuHfXUROduQny2a2TwX5didZ+JeZVgAur3YQVSOotKWJK5q9wchp70rQQLdBKjSqVGFaaE26CkYnKEmNPLA4gIJCU8VCgMskOIic0mcrNSvmHFbvdAVgaZMlJEZuubLPZhTs9IahlT67SctvF43g1ysyTo2+mtbaVm8z/u5uuON6nK1gLlrsJXkWEIWq1Go051m93sB4MZP1EnakIx30CvnimUVURtZv0djopQYaVUE5QKtOE7tJqquNLQPQhbbtQ4BGVLvFfFM0MzvPsaBaRWPXc8K0FO6Mp73ZYDyiTmy9aZn5Ra7AmuFWzvhzbfOqYU+2g/Z0sE8urgPvbtl3M6/rB/vb4bQzGswi+LbyMlTVrNztVwMATa/ZEYXSK45H0Ww6n+FlZh68knIzJF3Ly4bm0Q8n9kxQZD8EyK7DsdS1NXIuY6iXgtl0fC7MDwdnR1RImCnMPBMLoBudtgM9S1zsTdDIeDwM16iGTuylZxe0yEUGkbFZ/65OpcqmiaEDmXU6JSbMbtk5xIfyYUAT1FJ6L1ieW/vuLeRXUvlbya+m8reRP5bK305+LZV/Ivnjqfwd5E8UK61iuvWTdrSnxwORTA0voAVWFfxNX0ag44F7hfF4GPZGjUkYK0i2U7crFTFSTbYuYB10CthmA3t3mwVs9NUIvzyeDp4/Hs16Q6o7y5iaW3TZSME73WHTXa+YHs5rb4bT2YClJ7hGk6JU1UKj3W7UgLza+CAKiwfTaDxFPmwLeWwfBarYagSstEoLWPv3+LL0UD1yHi6jaaqZZyjYwiIqTj6LpSfJkRQrVaClmlhUqbLMFONtAq0k82eyq5ss9vG0NphOpQPJKjKzTqoNgAXCMrKjtUWFvVIv2rP2xCuyC4NScwXXxubY9ZBt1jdAqdNNX1IdbEriNUviO2b8+yfj6ezoGsrgo2DS2fzcQlExAg/FtK9jRLJkvWrvwvhgtjEd9C2TrF1WKYnPO+jZVZaZ12n2ZrNwOqIIqkrTrBBstLHV2sznwWzcCqPB82GdiMh0x0gm6YdOIE+qtacHox2nfl6pEoibIzwVLi+7KYAOZheGYRC6sTN1raDh7GMb55hEF9Euqyv46bga9aJsLJm2X2uywRofPRuzQZizMJHkRfsNoI53CwxHb+ecncZkTGUM9L1I1/RAs1HiTBrYUhu9prmLpGtF6hVQMjExwBlToTg+oENTV2/pgeohdjc5mXynLTtXNsUqZ1idPohmg90LZB+QSzNf9LuYAntUyNh8wW9vWccAKcEnsLNoDC5IzgpB5V6/225gZYyAFhAoHZNcqTVxuslJCTRWGs1xNJDJZT8B5Tqu8gXE3rHHE0O2NRXbzF7DsSXfBK1caovTInLTB3XM7egYNCQjlizN2kleiacOU2D9Ljlmktedlpm4AhsyaaZYbRiPNYuf3Y2dbvK5ThN/1u8aZ7/b6tTbFXO8WWKVlSri3RgFWK7QtWkv1fJJHH+Wv+Gu8uu03pWqbE3kda3B8RbXFNizsC3IUKssLhhw1hbgTAhZzuaM574EFV6ycYw50ZoRrpRwJ0lXKTvj3xNXO0Z2s2GPRGvAdhxlM5fHkzwrjvyJ9rQ3spNmx3ADWyoHgXaXPYDNVUYLmWKtMombPqBe54xM6plzSXe91UjOApkUKt4Lsimctfq5FCYx+0vNTlC2OMdseY6Jea3MUZbV6hyRcDomJ12Lc5zW5piY0/E5ynI6MUcknE7ajjJNEMXMTi0gY36XLWAty8sXcAnXK0xLDuuYXpnGxTyvSiMty6vTqITjNRiwSrErZeSuxTsk0JCvY9fMoruOg0ADf3GOud7vRaxRO+MniU0UO4VKkQIlrOOMxmlPZT0xPtbnpoYsoqQoK3QLmJytu4BbsnY7yS8HzZY1+isbWC421QSx6kgTxDELmSXAarX6v7aIbG+JgTh+BFnmEAT6RLAzHQ+HpcHU2go67VbRNzDxSNiYYFsXQzOT9R72MVOzkHL/7ia7nbWaRTiI22RyeqPDPqO9iHgNjQEvKz0c4/sY0CuOhzgXOjtVq0qf5R9vm38yPf7JWv+DyveT0xf4x2uBgnqOOM8/mT3+yRpOwWw8ocKOwOo5Sk+cHYbAq/Vm08H9Si/t33wzeb1/8y0k3v7Nt5Jk9m8RZHb/FkHm9m8R5FKzN8XmVkb9kHre2YNBX92XYrqmPHsgoPCwNzwIqaMPzOHgJuWtI6V6bz9UOrPb2x8ML0CvI9mNATyYzKKd6WAyI5cR2s3edNCjysF+OB3srA/OHkwRLfuvOwQr1I75BNDEDkzID9g0s1g1mPR2UOqFugQTcAnEiJm8Jkrhzo2XYLAukysDTHPAVBIeMDAeE+ps5jddu9ibRCjzvArrzxwgNUk3znhNn8OcdD0DopvkxAknTChgDhSD3QBcSvFvxnJPdwsnnX/x1fGPAEx/AiNkJiehqqDTZqlp3H5j4NfD3swI+Mu6yRmPIlW8tWlIXC+8YjMQfEZ6Q2o6SJpzYcIlQjDirC43WqU66Up+vSXlq6W6MUbH6p2adGkNl1pCZcfZEWVIJ0o2PSm+NukpjqSSXpbPG/f+8qJNr+B8I+mVgc1f1do0kY2rZWGSXhNsmdDstcVgS9LrmBzBX18smhjdDYH1m24sV0zw9SbnoTyo0apL/x4sQiF9CPubTOVDS21zin3YejUv43h4baMlG/g3Bega6SM4L0j737yOe0v6yLJNv6Vs231U2+YffZdNH9O06WPlDET6uOp6QfKPbzRN+oRW26Tf2rT1b26eqYucbqliPkhvJZV+3tZqVyV/O6nkn5gvtDZJ78gXNiX/JFLp952bls+TN+kQ6VMK1S2Zn6eSCt3TSIXu6fkzZRnHM4qnzdnumcV1sxCeVWyafL7YaQldga1e8kWMm6SldcvfJzwn/VknvZV0g/Q20jLNSnsVUuF/umzHQ2sb0p9quXFa9AYf1Xgg9QqOBGnjdPNJd5I2TzfvFD53nW4++WbS1unmzbeTBtXTNanXJhwr9B12NZmXTXFfSLdIpR93187UBH9PvWocr3vrnTNt0m9jA5B+PZs0IP32TQROel8zaAu+Syr457TOtCTfazXLkm63OgWZ950AF5e037b9CNt1c/rYZZpk/s5uEuwi3du05YNNO+7nbp4x+nJus9VukQ5JbyXdDwIsr1IjUsmPSW8jnZDeTvo80ieSTknvII1In0Q6IxU5HZA+mfQwCLDZSp0nFX73kwq/C6TC7/mkwu/fkQq/7yAVft9JKvy+i1T4fTep8HuBDoJbheH36OKm6eELBRCW3yuA8HyRAML0+wQQri8WQNh+vwDC9yUCCOMfEEA4vxTAdPUHBRDOLxNAOP+QAML55QII5x8WQDi/QgDh/CMCCOdXCiCcf1QA4fwqANPnHxNAOL9aAOH84wII59cIIJx/QgDh/FoBhPNPCiCcXyeAcP4pAYTz6wFuE84/LYBwfoMAwvlnBBDObxRAOP+sAML5TQII558TQDi/WQDh/PMCCOe3ANwunH9BAOH8VgGE8y8KIJzfJoBw/iUBhPPbBRDOvyyAcH6HAML5VwQQzu8EeKJw/lUBhPO7BBDOvyaAcH63AML51wUQzu8RQDj/hgDC+b0CCOffFEA4vw/gDuH8WwII5/cLIJx/WwDh/AEBhPPvCCCcPyiAcP5dAYTzhwQQzr8ngHD+MMCThPPvCyCcPyKAcP4DAYTzRwUQzn8ogHD+mADC+Y8EEM4fF0A4/7EAwvkTAHcK5z8RQDh/UgDh/KcCCOdPCSCc/0wA4fxpAYTznwsgnD8jgHD+CwGE82cBjIn6SwGE8+cEEM5/JYBw/rwAwvmvBRDOXxBAOP+NAML5iwII578VQDh/SR+N/OBazdiu1e1Kxy6WJz5lrTeZiJOjvd3peF/cstmYf73CcLyttN6+MAsjldE25KS8DDeBe5IfiUeG/9XvzXqGdlllNgf9cKw8L6aJbutMh0K0Phhysi2KN5nvP5cog9IrM+kUfl601+uPz0eA3t7g7B5n9D38PjzJfjjrDYZA2ZCxROJk4FEecoYPiSUBL83CfRN8tEXLh4Ntzp47Aq+YOwHbrLsvVt6x/79N7uAxTXuMbVWtbk+F54iWyR0znVHeNWYCLlN6RwShnqO8sXiYM3HAM4eDaLCNt6VVlsRd5ZxUuQhPPFK7egneo2h3PN1Xe2p5YGbjRVqtGKi9h/s8kq6DWu2NQHKoqEiRYC6zGFw+PFKmbVldTj59a3GFOmYxe+ODYb8o/av1RiDozzXTMacTKtPNtUiqABzfNbI1lG5KX6LViYmMdN0UYa3VyXB//NxBkRaahJOR8bI+dWiU5MVaXUHo9+xgxAlGWt4a9GcMTF25gC2HIkfQV+1ISziw6osZdbU4pzXmqoTyKS93LrygRkrvgq0ORnElZlcwpcHZkN5lOD2Qsy7t81VWMluWMMfdADmYD+w4vUyPm/J27ywNawHrIjX0OF45JgJtG79yZ68nbn44jaDQSc40VCnJkL1I4MZhOCUQGrZ7zK96haczQxMdNcGybWad65shvY/YaHTu7PDCZC9ih9FL/eQKJmJ/0cvbHPvOPe9gLAvz9VpfZtls0gFI6PHKLoNJpPNyrVd3e8PhNnGwdQoiNdLH9lDEKY2dK4zvh8urtF4jB/QPnj4+S0KqnEqn7tSWUyccPuwn8j05HJ+V8LshaY+L8dgbu7tROMOyqFV9an8Qx9ySepfvk4O/bf3VWl/R57h0GParphNf9fSV5VQPlZfdJoLXj1SfY6G1KO4MmdmL6XCRc0S7EsaoxbxSNB8IZ2VWVwxnBtFmbwgrlt2+rXsGZVpWuYKbDuWtYAnseQmDeN6oKaolZfcAZARIRpaVXD7agRW5ZQzHeBpWUxdi2IndwTSaJbKStuhQOr+0IZOvvOWd8f5+jyEUrH2dH5i3ldUpBs0YdhGv0SLav5h5r3/oLNTSxatxuZQoF3Z7SlQAeWG4E+ayDzhtY1kcuvuWAusQmRl0rTdlkpyk092yYQejhFJTMvVwdn4MuRsPwtlH+s8n/sE/yaguXimyUXGDgEy0THyk7tM6uLC/PR469pHJ0C77l4VjJpEw8AgmiOkM6Hu4jmgwv0xdzBZNNXug56EJcJiAwynj4IusNsKRGHwk5NoapznrgyhcZ843ZJNlHBdGJmSg2RgHu7uN0fBCC6kf9oaGOlOyel7Z3z+YyeiMPbZ8vUW+ZNx69vIRq6kV7kJzDuXEysSFLIQA20zr44NJBfHH60L34jpv00KDVCsPXGwEVnnAcmMY6Szi/b9QBOHsgYkCtFIkJI2BCwkJoZbe6u5gGJ6x44pMISxwQNwYyz18CSI7wrLJvLi5inCIdTb2TnLDAfvw9IJMaHscHGxLRGgbMkGoF2BEWUqT8YhlaVtaPhjtDuVKSm4W0ixXBlEnLgpRcbVqu12M69d6EQvLTllmJ8ZarnpysD0cRHswk4alu+1xO+ztV+fdk0a8o41kKrhpskobjFp0IJjJsOe6Jqwau8F5eor2OGJRUXyJhS4satGl+W7e+v/EmYXfGwapGYmrWNb2EQPm0Xg1V0lP2KGNV2PMP8s5M8XwHYgLlJ27NzmSxL1ZiibTsNeHYjnaG59H1jhmhRAJ9mXtQb7SFr/HmL3KaFe8S9PeptL9A7ssqew18VHGUlAKDwc78dVoHI+VA7u5vtVFQigmqOQZHCFaCeWRZ2VKxVbs6rD2XeVicatrnHR9pBG2JclwFkFxnf1iNAy90mc+BrsDDDCaSy3L88NsMg1kyIbddJa8LQzUSnLPpojKxyF8LXBS4kkuDuRniCMzjpgy67IJcc4hYnpuqesdE6xYdh0o4A6cxWrIVog+YxLpDa0ko5arLKLi9vpJLgjcYwh9EQM7hqQmwZhKqRs/1bmYPI+isT2JlnnedoI2XD6OKOeoYqxQ9R4uuJGhoVK5en6TWKAJdyruKNxbIx1smQCkJ2mX2KohyLjLCnPZl/Xx6+VYBGemU0wPFPHLLwhU0NowgVCCVk3Ydpu3dTdvB+HZmgEHAZZ3xGkiOtjdJQ7Osh+Iq2q6xsrawU+byW4wU9+lMtHhWbEVxoFk+sly5BLN/gwrgVzjYCYug/iTlGOmmA22Ztk4yC9DsT6e7rBu5U0GtudcBHqFTSe/HY2HB7PQbb0Yqp30oD6l1THX480N16TyKuvduu+7+4V8dSt/TwCgq8aDlGt6zPFMxnEHthu/V3nY4WTlZkYH+wFrnnmIFM6WW+eckCKLDWQV4GecPcCyTV0OL4Z+MY0rEzF405G6U61uYM2Zf+Nn04hOWMVbR6aJXYLgPJYAeZu3pSsKG7PgEVl/AeuEuxEI2JbOS+jc6qI8aiEhzt5qnBGM515pZvz1dfs6JUtUstESKOeeIyxhhbD4hl9qn7JtWSsbb8Buc4q3NiFgjhikzDm9jwTjqkTMRbzsyXsyTbbI3QZh9tBzRAXCqKzMDUPgEr27VfZZiuVKtdRtrHdtMYF9rhftQ1lGyDK9x5VIRS8/3Ul6gfeLEPOjs0iR8y/2N5X1Blx3T1uxqc5Yk1/Fp6buwXRAD3V/EE2GvQtGjdfEtzFZo7X0vzk84MjmWpuYDJKkGn4P5yUqnLMDbZqyVjjscZTYsxWyE4O0FfY5MbOWAFlHZqoBcdJL4TDk5IESZmsHw9lAWg+n64Nw2N+0U8EE7bAUkD3KoNPXZNyNMUDx+Wo9Ocin9MM9ARBLS+I5c5qx1hMoGxvQXGJalxJu/qg/ET+aMYcOlD2LNvF8JvFMb3MzZpv9J1ZQUhmAJT1sSi26niK3C49qkFhaEXMAJOVcv1VKJW42ua7FwhnFJRIeo+wdfPyCwVatDWznaCYCKVy+hp2dL7mEmjnH0qCyNONXC40tayhYPXknB+08mdr4MHTb8XjYP2NmF7cZ1V9P1NpL0ZYHxDGmFyqET6gSjQ+waUZYfRGWzRePeDLssuFwzPFO9IXJp3fnUJeRrUZ7u/OmhpQ55ZQD2bmOOSVmtwb9syGrjtGjFx4HDlOXJv3+gAOhDCA7G6B1s97+pBKN77yDgDWsMbBTCIUzgxLisJ+XOERmB38lzmSlACEbo5Mp+fKLAoSktspcxRUa+ZaIT5tLe7MksQ3nHHG+2ixLcF/ux1nJPpA2r1rdG3MvYEaYqgDfgWXJHuhUttDBCJDqBQI7FB2ZjHqZp8yje86BIxaT9+XYqprTk41rPHGy14tCtaQ8A1jkHRPsWHxR+1yVSWUtwZNm0v1jyng+FnXnyMo9J6lFPXkQNa0nLIcCFu3bNV4jLvlEegzt+73hXDdM3/9NqxekkU5hQOqfcNbjt60FZn0tq1scaNsLB1Ew3p05IxFIEY2+QxO4GY86kz4T5jryK+DWB8NhTPNT5O3eGmN+BiECtRmf+oImIm+ypYXu/3Zs/4F/UTPKSxj/L2kOPami+U7yRU00/shu8AFv/Fzc3OAAdWdip6ExJca+Cae/YOUe1sbj0XBAhGt4IW7hc9juPY6UEnKzY0I69xEVcujU0EzBG+MCsQtz9M/HaOcxJAVvSQqMsz8v+IW4QJyGOfqtMTrVH/wX2w3Kf0NHBtkHKSTMkfqYm1bBWcK45I9SJdJhwX08hbOdEuwfp7DSI8F9IuVcNntYANaF1r+jL9nDQkJKLz9olAKl2QAzUVr9Dd2OszhYzNHswqZsbY1pH0VQf+fpr8ZzbTbP+WS/R6vnw81gF9fEvwNKKqSPoN+RLtiEv1WR77LoxEqmdO29mphhZOgXFfUV+iA+Z8I93cibiJZiczsPUPyl+CiLmGRxfzrOm2n+c/HDbC/OmKX5GSRWvJVB/UVMFyb78hrXHDamW1ys9K9zLiLUUrgbqY94+qXs4yk0oozUBz39g54boAz4TVo9b561RkCmQmIrQYKXY+p3Ykvk0MqJzBaYAfzwYtN5nIWzI4n/RerDnn4ZxziC7vlpWDjYZrLE7fiV5PQbyBGaiyz9Nb2A4lT9fq2/bkyscV7fqNU4ztguTuIKVdnaVE79jolQO0f56hi2xBWMb+/stDfZE/vL9r2qrjmCsoSnE2z8YGVVXXsUZ0nPzFhGee470u+uH6Ueegm0rdBOSjZRegn9qceoh12EtMQdwRfZTNQ16uExbIs2JZuKNV6nvmkRY8m22LvjYCodm+ds8bNFQnW2GaL9j45hW/Tthp1M+iu1ekycsWX3CakJUY04+e3vj0dVOU4ecFZnZr97oRRH4f7ZQQ/3d07xAtZKQlIasMBC6TI7VZrqe9JUdvsS0aRJXpgmwXbINQfo702jAxwOVs+94XRM0YvSRXX3qsi+aJpwd35xoZtuNeWG5eJSwo3GaVAzrtlTxUV5cXTIDU4Kl+xO93MBz8aKsYmZD7mWNpTJEv8oFD3GY4PcN7BgxfUg38TRR56GkVZ/EqOryIf8n+Ib319lluU8+ddscqZ3LCfnxXxhEWU8hZd76m89maUOPlrVnFzjfixzsTsbn+VY02+MGu11PDUkFanv0H+U4AnKpgs+rpMbBPWSDJesYgWE10sz6lNmdRpxCIqwl9YvMk0XBv3BvNEfN7i2vR4R1NPUaxhoVO71W+1qmzKG+qbUQXrJgVY9n0Kg7ZwxMssWsuinzi8HVxxoC55GzSSAtppkbOHTIwwIp4c1SS3qmUQjkptDbndcxhY+q4+6YaGY3RG3NSdSWUuQ38dppW+XSWpRJQErUcOGLii7YgFhidYFZ7yol3rqt1J7ccOOhWFdeRHSVt3AKKRPpNz9zfOWpBwZT8Fd4K2qG9J5S1K3KGOn1EPVg1JZS3CXxaD76uHqwUnGFrZs3vwK5hHqIfOcLQ52cR/mXsUj51lbfq+tYFFC8S1phKX5ttD4L5H6gNaPdbAt6c4FU3TBk1uPoCzhrrS7EY73wxm+8ue1vi2NsDRnbcsxUqhuX0RZuj25/WF1opbjSTXcxRjOpY6If0SnCVoi6CMUr5xTFMaz2Xj/Elx+9CjNpRi9ak40LxnInjdB2Vmg6NyPHaVpj9ncKZ2TvFrLPo5Dy5qMMO2MGvGblfbjcsLLbx8Job3Q2x6LG8H4ysZlAPfTDmd7m6Df4NAyxAT5Mw5pxpRg3+iwTC6+OIouS+bNDklTVmkZ9s87nG0qQb/FoaWpBPkLDmmaSrBvddjAzK9FYzXTQvlFb4+Nye7xiUxm6sHqpkvhrWo0I/kVhRgZVVBYbpexhc81eRkXdp0+nEvnLcnQoJq9vuwQkOyn85aEBkEVmQlMj1mkal3db5CnD+yvUsrqgsnb0pL6hDbZctJtx5AG/sQWYaKNezIv+KQtIC6Ag3Za/anNWh+D/Kdsvskmxu4eDJ4vtU6rLy+gTfsVIhkRXfo7W5TuuC0qqX/vivYGw76rujEdy0Prr9gS1y0zhWD/wwLWKgHov7dow8bwD8LhLsL5B4uPt2mqqKr6IQ5CIFv4l9MovFem/n4m/Yct2vxMpq5+1+Zcn91M0dKHPO7qGXSo/iGjfk+25jjz4YUaphfoCMeGmWqqP+c6Kxih2xu9fdZSbyoL7DMeCuTubeQoa9zuH5QFaa9QAolJJgUvmxcUaOfs3M5h+n5Iz1kZD+CDWv1ECtemFvdBr02hSvOroZ/UYS/5acLd6nUpqiYuQDg9DAMTfqXTv8axwITCKDT0LfXuFEp+7bOmfn3eVyJUcg/0Ec0xj8USX6O0KVJt9ZupptrEmMYHMsvvS1PWemT439ik39Jk4pLUCN4vwRPitybPLsvUDntyO/CBVAOBebgToGSzvHnsI0bmj+ddrcxZR+prnv7ivMhMBRIyYTL1woz6H9qGZMWDRs30x1xe4nD4ODZu+1Wt/zKWjRzc4aH+WRPkTHA+h2kw/3WOqTJSc+bm7EdRgje12XrZh//bHEt9i/uXOa6I1jFZpqsRBfp/zcvE0UpinV/X6n9rTsxHPm9wXP0Xi+0w827Zr6r/joTN2fES9/Jv1cSmHrB4k2WGSNU/avVJb4Q6H3kt8BZN0Q54Lix2zlXZrg4kvP0FT32vN8TnRAUPB+F5Q/uKjHq1ZzrnXEkcVK1eG7vARYbOgouSfeUn8Sj74biJMmyzaNQrPfU2Waf7E8Pu5Rn1S955EwCVVwkcjPGhQ/ipH0mhi/ZnscvUtsiSHSp36LNpGP9q9jWe+lFXXuztcDzJwzBC5upFnnqVK6mMJgez5BLj0576KVcgOzMhe9bO6x2mPD7E8BhNeLWnfhYDsmXwAeb6nAiY4f2co62Fs15fBvQZT73Y4fxDkQQOuv5+h2my02PtL9TC0YE1wJ/39A94ZrZa4/OxlYzYTdW7LBr7crA/Wij5NVtCBasbERJV77ZIS74lO4dB/zqxN9YURzh/dLC/LvrHmeaLnvqfdh1TUKLbccGXPPU9RDYwoAj7mAHszveMnvnl6wiNYtQn5zlbXJC5tQbRH0k/xFScughpiYuhCeDFqtKwt4iXX4y15H7EwquwfKbmYQwr4bpFjCWr7g8YT3VAAsn1JC5ni2szWV0Yl3MYEQhuTOctSWMbFVj4rfgj1SOO4izp3WgGWpB2QnBOvvlirCW/hwNln8Cr+XE17aknqMcdQVnC51ghBBxkwUVEtPTjF1GWjjVCcMNMQiS731PUExYxlmybVYdBl2BjRIBLf2sqbyl27JMn0QH1Bq1unmdteX9XjEiNUxIhBTOHSqvoIqQlZi2atsfrzIFWcniNs5bg0I6lgNStXsT1oT4vUSiMyee0fqlGckY3RQsoe7mOzO43/xnbveqnsVjiUQf74/FsD9EwqW9wdJyfI26NttWbtW2xLcKJuGQWAIa/7AiZKOZpx8Tjkal6tnonbBMcvYfJr3KHcz8xTfFtpuGoNBCLJo8m3uW4JObk7zRRzp670vyKVr8b22Qb1RN01czAprPIOfUhPaIu0Reyxvh/UqvfMzG74ZEHGB/V6sNxgWxyMxjHBPTy9+OyuXQrIkVGIgQf03gAF1Hk588cPqHVHxgClMNcWN2n/szIosd+OCXmL3J01xLit+fZ+MwEiP3/nHXzivCkSeQm83Fa/dWcgdwaCIcHYPB5fS68QFjm7Fkk++IMlxqHY7wWX0xoc29KiA55/62WnopF5/C/Vwh3x1O8G6I+MsD79H900eUqW1aER6r/k54x3RLFEcmrr3jqPzMhdHSvQeyZdUpH2SXH2EVCWsB05PvY8aLZ3N18iRfub4d9w+BlGeI6BKj2amF/YB+ufjJD/BalYJ5llume0yR2sB/zosH+ZMipIH6x1OyNwqEM93Veb4eRmPhKuV2ryvL4aka93ZMwTguLo/4xo345RVTtbROLXVPv8A6FBIxp/osZ9c4EU8TqHOwzMnHZJmxj6leTMjkJFS4EbFSUvMlT70tKBEdhpL6U0e9JY/F5363VbySoVshBFF02yvjpjHpvUiJdMTcNXDJk1G8m+DazPKpjKuj45xNssDOeQPn3Gf03Hm7GqN+LtVj69g5P/b5Dx3uqoN/tEXXfHxAsFsIAEXMG/6eM+gN25dStGqL9qMfksM3jgr/YU3/IboaDzsa7K3cEX8uoP/OsCjBRRlsqfdY8jsCOLO+WjQ/O7cy/ZtRnmV+DteeUNfWXXn+8Q6iSiGSa99cz6q/gTcyc8aWvgyOO7PqLXjRkYeVhexi298L9sDrYPsMyW2PTFcnkZ7PpYJuDfqRelFVf9jahnrtNXqaHbZ+QZYh6nyH2qmP59SsX99SRgWdqgpUG6LdalXdB3MCqZr4TyJ2sbjc25Asegu/GSK9mP1CQ6dQdlHVkku0m2Jz5ttx6o7Vlr4uXTL6QL55xiGWDMO8UVvA+8HVS3pO3hIA43w7Y1zlFaYyFGIA5Iv0Tg97UXK3ZQtSQkWXBBakqFpsbRA1bzeaXbLslZ3EXXEMP/5SFxMlE7mWxSsZOAXqphxqiZ55mWqcDJuF1ntaLhT4lF2B1zsza/NnIpkwfil1yujrn8QZ4HCn1KYJJRtxwe3NKfw5TNLKmk7ViKd7oqczmAkbdVKsEQcX8aFYVGy35OFMrX6p0AvJaPli20ZLP9MlXIyyVN0dW6iXfPCPLBObFUXcr/lhJNmgzpalaOYto5kvynZL4JZ980S6Fte9SlheR8ZuUlUV08mhldbMSVApVUa5j8tzJfEuNzNoW9+XyQ9bjySdUTiQfaZOmTCe6R8d8cpHGtH4R0ak5ke3HpXlddhHZpdldXmi0SiCkwUSEVzikq5ngr3R402KCvcphbQMJ+mrzWY56uys/5PZb7Yp5mXGNFWWx0ZFXPqlZurZWqXdjuV1Xy9+dZK6XkkSQN0hRkrsxVikx/8neMFfeN6eUN03iU44GJzoKllXFVpGosVCDuk95bclyUMFQcixJ2/l5O2+lnQek8yGSxgZ92M3fK7HqFqvI7g15iu3bL2LraHwI5iwjkJgdL2+2nKZrALIUq3fC6qJyn8I5m4krkJ5Z0grnO7NVyqsY8yhVxZ9YdMzS+9u8sfckjaXKfQrnjQmS7TduKabDzo56ZrPVM2n4XVBwUMIm1uMJycwI8XB0YnN8n6eyh+MZMRcy7/dUbv8gGuyY3Ac8tWRZtxNyT88EroajswQlsVmWYDPm4OGwzXBBMKzz0lrCEgM8ZgctSeciOjVrw60WQepx2Tm/5OYiXXm5Ef21hg5W/XCXeijT88f724Nw3f1MqG6HmtlJV68nFT/E8NIv8nLFS9Op7NwQqbQh0vJkt1UpYSu7gfnAZpduMJuVetlvVdpdebbZDeTDDLYgs9DC/LaescdDYIXInvFRJmaBuCSjXrGTO7Lj4tyOQvWGm3GNDPvY/LpzTWW5PJ9Xr0jdnJn2jzF76ZEvT6by0AP/1PCK1Mc9tbLQvMGzJ8lZ18IsZnGdbeaV2j54tTmUaKFyW9qUx93m5+1GhCQ6flqNuDBb9aLflffOIBZrN4/0DT1hGYzOuuya1gPnO8vjf4f9hKe9Sgq9yAQeM+nTJz0lhwpE9Q2I20LJbDRqzUbd7oqK/uL7yLcLpb/auhW+nETYEO23idwnh5R5d06qZdhdv4Ra2MeNXr6NsS77JTQEEvnEUtC1n/iVYnbeDqZcWuqk8e4t4GKQSmXcd6JUu9WpF/NtH1CbT2O6R3merTY3BAvvWy28yUELzTEoF46qW1XLbJmcTAfxiyQ4ZUWznC+6Hx+owBcfom2mdT6/8jk6J46MQXYDv8oGakqdNwmUo6siKeelpRvjqgBvezyVQxmq7eENGoCuz9BIPDBAN8R0Pekky2biUG406ToDKMwwPsv6GewYnlnLnUCDp3ORaZoLd4OjlJXTtnfwrIFlbht3QbJa2P4WYqPqsvY9TT8otirmaxGq2JQJ0u4jCl4xkA07czq/mU9osnLQI82dDow8l4w3dpeglpv3tMsGubIhLvRqYNDHgq2KcbjWzjTk/SXQ8VYnEMyJQt58DuQk7rx88MssulMV8WoJm/ipWB+GzD7FjAtLaEhciFUnMZYwTzBCPkT2gC/ImJiJQyITa8pkhXptLEWVQ7MwVl52CIiWwW37YIgRMhPw95i8AecnogEi6fhpkTyDDesHnLCn5LKFeQWVNZ6RWRWqU59ndOK+sq92q/arHRnbh5H1oL3VIaBh848YgUu0y24kj3mTc15vyDFC/ZOnVvuLqH9GcRZRIkYswb+wv/TH50ecSOVpFcccTHBO5VCyCAGEo50Lc+ySyATZTmcuMpVTy/LEcxqZTjd2q5SjcCsle3hZHI1e7ID0SUupGaDKGQ1ABsrJKJaJTqQWYzzjgNzVaRgLkin7eYqBssGlpKHiT/Cpqvmih26ZD+N4R8k8W6xssV4sdtLCBNfsl/MgUf7dCTz/uZJQxsEqLzeQ/UwzW1T+OrpjCyL1goxefGgfMbF4dfIr8H2InZVDwLmEs2+4eMuDeQtt0Fx+oRoJauGWC11NClKXXBn2k/Y8SIX/dFGMKkfsEA2QCuLiEOuj3tK+HM3LhEFBkV9O+rbpXOa28dOYawb+Lnbf4nhEFAMmvWHe9EK2xp6DEAJHWEdgzosJv7whUd4N826Ir8N6RJxzXBtSbiO9OSY9yoW7yOycRnpvB5Qa5SXv9OQnQnLfRblh05If2MQYe0O5IvEBjtYmUILSJ67Ntlq9OCR6bN4gGzjXYqkL0TXb33Wuo6RcrerjrJ9pzxK4FbetTsyMjGOJG5GcXMRtik1Tn8moU2bCnDBf5anLYOeab9H6zAZn4h5zeYFdHHWmw8qoHp7n1AHqikXW6l89deUiyqxuZu8q01hwbjBpj0XEyPfqBFW4kN83TvWqugYR2jmPqKavTbJzHfk3T193pKtWCqm+Xn+EoBKr+mGYuGYSo7whUaqAfsvlQ9NcWhK7cDstUcPUM975z0NwKdwqKXFxuBNipM7498Q/NcCan6njMHCQrRN/qFaNDdJ3Fxp3d/HBgL1mcDtJhu2vXSzLIZhc9sx87ZkYjGzKkcpp1NpgXVsvYjmU6bR9Led5B+ZHFubBKxPu1Rid9NHLmrzet/mwL3etlT6kXoIqXEiQmV1CfGeMN5n12a5sQNg74bhH052OgbzZYMZkU2EWf+3CFmTPy50cs5jbM5d2QEuhMGrTV8qXE/rKPras3IvkN1sru6wE5jmNW51Mx4fon9xAHOPu6OwABZAdg/waIklNyXHTwqa1iWYcJ5hLd/XqZQ7i0cnZjfkNXIxMUPjhEC7KoIpEWX3JXbC3cmDGpuNBi4MQdy2z2JXsJceXu8T4lhYpt5zcjgooluLKJt2RmwWmdKc3OuxFErwP3XMpjPmEy5uh6zZq7Zl8KZQlYAKOttKG1Y9sTT7DLKxs4PBxSttyw7Q63umZ8WwrL4UO2I5YP/aLDv2jHItDrouVlrM7p9mJWUPUD46sS3MxD727U0rMltdmilFvnNRDlFoCwOZn0UCuBb03nkWT8cxlvYhTjoPjdZhUtvOWG9uco/pGDJhRawQqsZkYj1xZ1lUrYDQnHNpmFUKVWjZezArU/UD2ZpbgNltjsEM0Vk4fNOdaJ8aawXtMrFHiOWAB5qFm1fI5iJtotW7Lmz88uCa1t4kBxD8dWh6zA5nGXp9RehSeTzLeRX0sSR8zQPFowDCWQVS2lJVRPTx/ZAgMqp907g0ZTgnxgXImhlxuo4TrcmWOJhbiOpeLJGda0UebjbsXLPChd1HMJ4XOmt9AqbdmVE6We9FqqJeJFtXPKaybJPPqt45qubzxlIO4xpHa2NM+rsU3rL8o+6bpksrIV+4qnEzNjOWJalqQY2KtVmnbjLdYFWtq7pHpw8RwYWDy3ucsspf3lZhS95M3MplAhEgkTH78wfKMFiSjh71oFiuH5a7eyORfjA5gw83R2zIY6BT7LOrJokv4Z7YX9SVW2QpHCfkiixcZ+mSRJlKxv+NCIy9uWnp0iY4GSY8cU9eJSL0DX3ehk8Z2EIObWyHuQGJu6yJLyxJ9XaJSIi+CoRm9TBkRAvvLVUIkTCvGFoFjGLF5bZv3NsWlnQcSxM8Ut43rb+JuFdkGdJkr49l22JsxpaxTXyIlJuihCsSnk5zusHHQqHTIuymiZfqMODGCCVN66jlvgkAel2nqOSxFse/WScyJ0TbG/ZWsun36GapXZdRyorRc+66Mt2nokHGqZb3aD9lQwrrleYw1yzI2FjhSr87oNSvi2OpG6jUZ+ZTQoo2M1Gsz+gRNTentmjpp5iymKdsFy0o4tYBvXsJOUv0+cR0dScy+JJLF9F0+ITdXGuLMGX3FTmqW3pVRVx4uzMe78RZZnltTIhvI7mr5MNg6jlvAbKNEWl2TMh2xCYrUm/AWZ0ywMxlvzqjrJBskUnxLRl2fTEreHFMCJuqGXS46o8aoDbGrq9WNe8n8vyejbgqQMCGD3mTvroPQBKkj5y6K1UAAuIkTlimLRhCuS8mIPL09ZAJNCMItJxTENtYKrRwhsjphvQ3pnQtKrwyiZo+ZEkXSM/CtcL9H5HR01saWmRJ8I/Amm5kByaQuqywNFcSby7m49DKHdOazhcIgz34Atg01Y9mfmMrLEaiOfBsFt6w2D2yzBOddoILMHEQ0LhWAUO1vzJm9J5iNJzhbsEh2TzdCvbBw0GTKCtNxr78DTyL+C8U7i2L7ADZlRlNT9UHs3SRmrD7M0XUS62szjbaXAOpDLLYajBmK8h4iVLKe0015qK0BzEWmm1T1Ck9nEYVb9ZF6b0bnzPSqF2q9JFChF7FCrBF9sETIe0O3Vpd7Ozs0oLJqJZLASZDEJ1fjfFs68gx1LM4Xx/R7ZNHPUmvml910KqeOG9CpEyc/k11PPPiTtuFm78IQQYI4FS0osVzDvC+jL0sNLdHX92fU5btw2rRONcO4wnCvoAVoPUbyQuNgFg36oT/aGWJnOJiKZWZqrzSETYSKHb1PXTWIihymWcVDDPqwM+qPgxliVR/N6GsMqhWmUNdux7MeqY9k9HXTcMcu2CB83kHIindhtGV1vWmngF+1s2cjO+t02A79BlPmc24kAihye4mnbpyMiU5dGO3kjdoQ01M3JT+Q5B4jNI6hfM7qQXhBswvyYqZibyeqdIkRPKQ02N0t7h3IgWstJTUMsrZ7+1LyOYY6xSgK9t64GUYUWQu7+c7ZXCUyppSJooWlHeEe5c0PUJBpew/pCYomlrc5/4v40YXyAOM73dm7QBN6ZXIxbvVSxPH4jk0ujV+T8cXqwi0bQ4hHCEtrwUTFGaOTQ6Q+xu4t2YK0J2TZbYGapoX6Iofc5FLYpVb81MjMlPLcl+xLXRLzpztU/PeddEJaEiX1OMMCl+2BSk/jQsPnE1iFdAjCINWKXOD4+TrM1Hq1kW+T6qAt35QH8vLVivnrdzbEDyBfJGn5gftLWLmauaBYSl+ULceNtEL7cGje2NI3bixpw3LNpbkuxVzzIxubZhN4gHurNeXtMmMuhw9JRLIXSXgta3wNi3+OyoX3T6aYHnTfoj6H+dt3t03qC+JuuJdCFvNOArV+UiUJO6nL5Y1Dclni/pyQzcrfEpG/I2H/3oaNXpsLHPe3zUoVmUmgrH9XJ18VSefqDS6TJEdmiesj+WNpRmTLSabLbUtMsrLRkj972DIF5FfT+TThMfsB8DUj4uO0QnLCCr+yLr05Sa26/Xsyp+hvt8b1dbfaaJwx92GXzYeOnoVJJpHDZ3Fz5+j89OyBBFRMyCrRu1osXRPJYabsdQI0c92Ehu3P4CP1eUKecYHoES66KZFgne6DMIr1KarT7qK2fZq9L64acEnGIqP2QOyOHlmLw1a9cLea0AuTTWmH8GtyQ/+VI32xBD6l4v3swx9NhflhimZhZOYFnEyEXCAXG9wjIVdzc2piYvZ2g6PT4nMTzzzqmL/fyGyY1ZEVLnIXLTQ586kdkyW3FJg//Ohyy6YBl1lhwhvmY0Or9u6Lm2YsKw6eEznbppYLK3mZqKrxTUC+xW1mVapp+btZVrm9en6TJJN3H9/KluUjwbnyrfy7VL6Nf5fLt/PvSlk+DLxavoN/j5XlnCD9X0uuIY6vN7iZEOgEK4kVEwCeFJpTZcFehsEhuXzhFuMKc+18ZUf+varm1zukV1flS+nXlAR3banNv9eVROWvX69sdAyPG4CK+aYbwI01e4NyE8uQ5EFy/f9gX14pPUTEZIzSQ4MaggZ4mPTq4dxeCJ9vuot/HlFal9rfnC8UpJuPdJeA39KSlh/VkgE82j0qeIz8YRzSx8qf3CR9HOuL5PGB/UObTzhjv5GP8SC5OTACukUGc6sgbpPB3e4+CP/Egvke/B2FkszMk4KmWfV3mi48ecskT2lWim074KcGjU7LfLPlaZWajOfpnNxkhM+o5gvmT6Y9M/7rkc8qdNptI5e8vckFKkj/3S0SCtuOJ68EbGXoi3blMTnA641O2/LaIHaLHTIzWa5BI92Sv5BWLdlv3Z2u+hv2xvyMWMaWPH1Vz4nVrW7jwbfnm3JhFH8F78GFvPw1QqAi4YVm1WfaaVpkXnLrp1JfFwa+G+S6m+ANNFU+yWb5lDm6WqgS+PmW+fMJp9OX3Cfm6v4Q9qROrZ7o6jeV5A8DxNb+EaWKvBlrmD48sjT/UNu3xIJ6nNTEwgI+3k7AE5w4b5YUbZJ+3sL2Lr24FassrT4RjU9//+9JLfPnFu8kiRk/GVh4m149pS0PDQCe0WaDLRjdyifTqYtlv3iGMDuwJ58Rc395NcPVsmhUlk53XE9yMZyqsxTjxCSJeJeT2V+J59m2uRpTHOP2mwi/xa6ZbwwJdDJoVupJv07Ra5LLSVBio4xXiDbZVq9st3xfWgW+ivkuNCz+ahkB6TUiP4u6VjpIep2kts3rTU9iYd1AE0IOeKOwJb1JUsfqQSI19mTAQp5rCaE7U23IbFVr+dZdHVOjZl9tAKFnNTOehqEuVfKWuJlAd1nFst07bu8zgC5bMGEPnVuih7kpeXiJledw3+zXmmVsq7T4qHXfhNIejf2yC/sxLB+/Zf5UyWMr9YBu2FrfGq+220SfzVMDMncEsT17KjaGybFPE56GpSHGGmefTk0R9zNlfKTPiv3NlmgaWmz+xmMQZ24l044zt5HpxJnbyWzGmSeSMaoqmTvI3C0Z08d7Est/r+whduq+bb7DPFvWr1vaZL9dpjH5w8H3sS/aP1jcrR15IM7VedQvyu93zBdyzOemTKTB+hYhW7Zs6P/Chp4u8sGzlZuvucpGvit4DlYmnlgb49UPOMcfPXZliuJUNt1rcAL89huNav6NRjK6RERF/KFF4gxmMG/+nN8lPu1Izite8nW6yjgLqcyz0vb8j2hpAwhGSkB4ecxr8sZ87jxnF5zn1OMr3KAj7vOA63UD53A60tzEwTGuljLPwJxjj6ox0wA6dvG9ipm+zEWVcZtmUv8FWfGapIl/w11aIIuYl9SUvTir9UXlPoXMm9eLkYzB8XthVnn/B00KAAB9l3twVdUVxtc+uffmQV6EhzzlgvIQo0AGRTS5OQaoYKsgltFxmOmNAso0JAVSbJXCTmKQR6FUrAGn0qClUqFOpNoClnIgMmVKcZAqz4o3LSgCHQUUaaDa39r3Eu8fHTPZWd/51tprrb322vucGONJhuRe2fLJi5G8xWKvLDHyWn7tvT+aNKd61sy546tGV824s2LkLVPGjbpLukjXy6Fmr5v0lr4SChkRT0ImPLbmkR/Oml5dKxGTtVBEsiVXBT9OFMp2T8SIiyT9JeSFJ1U+Oj064pvsuygsMI8zcV34eU+nGqbmhSfcP3HYhHFjoiWjhg8fcXvJ8JIS6VYvEkSlvxnSKLLSu2FyzcM1tTVSUVM1TZJ4cs2syuqbHDHU/B8PoUUspYGIYWOkXqJrvEViTIaEGsRGMnFvwxIp4tewYtWjgg1gfyL2Rmy9OizTNSayQPw7WLRXL5Oa0jUeGqkUk0HEHjPSNRl4k/mUCs1tW9M1ITQaJ4TmcHu6JqzeomLC3lNSVZquiahmopgImtcb0zWZkfki/xWTiWb1unRNFnOCgWKy0JxqS9dkpzTZXqP06ZyuyUnTjB2RrumU0uSgqbovXZOb0nRC8+zsdE2erpT1ZKJ5uC5dk5+ao3GWrkvXFKQ0OmfzznRNYZrmaFu6pnNSk21MskWS7SIefVec0XXbyfrV/Z+Z2uf60f1WXHp/2/4Ttc3ZIQlfypFcOkS7MSSZkiWSZ/IXGjq1SJINMKlJN1W3TzdKt0SLr2XWgmrptEhaDl24LlEXo2lrgrLQWGPq6EEjDUaeMtJoZJGRp40sNsLRXE/wv5oRstdk7DPyNiaeNHkmYkiGzDlKna62cvJMLRGyVMTkDXnJs9VLn/t610o/GWRwyJMyGfqH42xksDQZ6SP5pmcdVG8ZKMVys2nE0Fz88K1sT9cvA/QgT6iunT6nurIqOrG66sfRMZXV8yrnSuRqLskUkt6ToTuO9QoCR3KH0es2HhO5tdxLApIXea4MeRV0qG4tlyURJsjxmNhYjBQAMplxDKISwj8MmM3Yz1gAEexBuygmwTaInyqxCWIVD88hn4ewTwJeZExkbIKQ6wB/YJiY+K1K7CiTAIeyukzsP5WYVib+ZxDIRLg8RXQuxyEWvZTYheY6iDCRhipxA85GQDwUk8RIiKARzW3l4r/kJHnsdUDsx84SiwzMhzJyyyXeFyLetVyCQh6QViiKz/IBLFtBFuwhZD6EvBOTZjVrjUm0B4TPgpp744yVIgm3wgGxdUi1kJlUqRsWU5GFSlCQRCcIZOBWCYgaiAch2qkDJRf/AnWohTgL4TdAfMjDSvJIKLGWh6NYtKB4DyLYB/gb4wTkTgi5jMUbOA6zuJchApYbrCEpViqLIayuowqHKstThBSSXAHyvTKiaJZLKb2HLIawmtTiUvGPIeN3EKUVEP2TyHonIZY6IPZ7SKsWNwKeLaXrkDF8yEZabw3jB4wLSuQQYRBapEyL0ZyjeZhGQg5UkOEYxlAl7oXowqBANgRhqZCcZf7TyA/U2S8AB3CkCR2AsFscENmNPAURsIXyJZ2ne1qEDzkOofGRdL8cCYnhAqMofyYZBf7vMFMQNFDQKJpxEDSk2AxKrgV9Bc8SAfQhmU9w9lgp9fs7gGIELU4yZYUDurqkhdXqMEU8pPPxGvNxKg1IjULdXViV5EF1AGSW1Pin0KhpSPuoBUfaaYZdjkJQM/GLIR6JSbwEQoivZ8EnISSLOuCACCk7iyCMVqewKOcjziqdU122RtE6aFiV5CHU6ivCaGoKZAepOfAPXLcjz0P4nwNCeDkD2Um9JCC6QJBA0B3CbyVpYmlqSIgXHHA1cxZsjptiv5/yYR+AUKf3IDWKrQBoWJU7SEgBmSU1diUspvQMBHPteAgOgGhr+eo9l/Ezxn/YiYD4cpTitzgJQYYAsaTsLPw2AFP8M0jng1WqU122i6J10LAqyUPcrfxHrPXqlT1s1xPbAYk3U6A+pUrZyFbDhHgOSzxd5iUBrZLs1g7QoTpdhrU8AKU+HHBG9cTpAB0q3JPMZZI7FCOigrUAdfk16FAd0o32NYo6UMDlljTqAB0qgCzTU6T3Ba8NT6L92LfZVESuRT0EW22p4xQxmgt4sEz8S5AteiQOAzgjwUYnKeJiB9wVL/FSLAYAerGWi4wN+OCPWAO5AKJCo+jRqINQ+VviK7C7Uhp7Go0tk7i7fLmOmjWZdub2V2JgTOLFpDuV3PVI6JXWzBnxNzlJQkccoAmwHA7h55ZLdEi5JLhAm3tCNPeF4PKMs2z/HPEDCgEg9/PM1RfQGQjXxP8iGbraf5eLV9vc3w2g7zUcEos1DohdRrhrIORJCKbIY2xMrhJTcBrG4tuk/LlGqcBpggeVrcRXQCFSmuUMTKVGifsxG8vDdMZgCHkckAO5BHmR6gZNgCMchI1OkmGrA8mD8AVE0IY5U4KPIYaoj/MQ4xgXGLO1dZbzXwYfLiTdVsZ2KHAtOZ6qd4AAVcBx91/Fh23G2S6cvoJ8B0LeQJPA4Vakeyty+9hLPCADQx0UCP0XbKFABUr8HsDm2g3c27oxsjYm8T4QREFCzHfA3cjxHhD2OwD2UXwc50HISObqzY7022Okmk9T6WtaQTwPTSMfJbpT0kpR6APpRWLaGHYyG6Odwh2AJCH9XICw+4nimusMXoshLqHQ+zZKc0RJ2UltUAU+Wl/w8xFhg3ZWeZDxKWM3hD2J9nVCKvmSEn+hID+HpGJ8rZFyFZqOwreVyd3sRjQLrEdWQfMAgG3AzO3GcXZDgf8WBeyJSj4t/Rp0zALIC2F8SSYPBzWSgiZycGAqi+LbwUYh7BWc78XvWeQC7ZpjgP18TOxGCuc6eBXAQfdXOcmUJxwQ+12kvR3iZsB4EihEFuFDTuBwDmMLY5cSywERtFXI0YTlm4MHCJVNmqGCg1c1XMx6LUbdx91v2EfthY/Y4EEQtiv5DyP/O7HSj0tbTUHZvuAZJ0mZxgKIfRPLWyDs2xSsBIv3mXIThPyb9hkM8QUK/dr0+dILaLCovrmyILRSwUXMkSQmvFCpiF1OrgqCD8hVgTtMrXjTVrc7eWAH/O0EzoMQTkWiCE+bsdB7xG6KSbwnqf0ahXan/SUEy9PkkRCLHODdQ3Bn8SjOrmHKQyiKlLgnpodA7LdQ6MvfnQqaUSWJUU0AqSY1di6ascgpEO5FOAriPsYACMGr5DFmML5ir+wcwElqXYfUi8VdOfsgVjlJrX7lgDu/koCQzYDPILYgC3Dq7yDK9QxuCrkLwlVqJtmpXB5znW73xCSuPauAH4BNA4lcVPoO8b/UFQFsb5ggSJsFkPUevmQeXbNMU1Gg/fwyQ+9JeZeJ2pgFRC6MQYx0QORuhlq4f7aY4qT6cKA789XClianSAufA/hAQuAUkIziLOYBujPmMZa5N76icxoPYPWWwDahV4dO5iXjvCEhcA9w8ZyFJqBTVDofDrQxsPDdKWGK/gulPpAQOAW4KEkLwropKs8h/wc=(/figma)--&gt;&quot;&gt;&lt;/span&gt;&lt;span style=&quot;&quot;&gt;สกุล&amp;nbsp;&lt;/span&gt;user" style="shape=partialRectangle;html=1;whiteSpace=wrap;connectable=0;strokeColor=inherit;overflow=hidden;fillColor=none;top=0;left=0;bottom=0;right=0;pointerEvents=1;fontSize=16;" parent="9VO5_gYoO6aW6VXsWO2F-89" vertex="1">
          <mxGeometry x="260" width="240" height="40" as="geometry">
            <mxRectangle width="240" height="40" as="alternateBounds" />
          </mxGeometry>
        </mxCell>
        <mxCell id="9VO5_gYoO6aW6VXsWO2F-340" style="shape=tableRow;horizontal=0;startSize=0;swimlaneHead=0;swimlaneBody=0;strokeColor=inherit;top=0;left=0;bottom=0;right=0;collapsible=0;dropTarget=0;fillColor=none;points=[[0,0.5],[1,0.5]];portConstraint=eastwest;fontSize=16;" parent="9VO5_gYoO6aW6VXsWO2F-76" vertex="1">
          <mxGeometry y="230" width="500.00000000000045" height="40" as="geometry" />
        </mxCell>
        <mxCell id="9VO5_gYoO6aW6VXsWO2F-341" value="phone" style="shape=partialRectangle;html=1;whiteSpace=wrap;connectable=0;strokeColor=inherit;overflow=hidden;fillColor=none;top=0;left=0;bottom=0;right=0;pointerEvents=1;fontSize=16;" parent="9VO5_gYoO6aW6VXsWO2F-340" vertex="1">
          <mxGeometry width="153" height="40" as="geometry">
            <mxRectangle width="153" height="40" as="alternateBounds" />
          </mxGeometry>
        </mxCell>
        <mxCell id="9VO5_gYoO6aW6VXsWO2F-342" value="varchar (10)" style="shape=partialRectangle;html=1;whiteSpace=wrap;connectable=0;strokeColor=inherit;overflow=hidden;fillColor=none;top=0;left=0;bottom=0;right=0;pointerEvents=1;fontSize=16;" parent="9VO5_gYoO6aW6VXsWO2F-340" vertex="1">
          <mxGeometry x="153" width="107" height="40" as="geometry">
            <mxRectangle width="107" height="40" as="alternateBounds" />
          </mxGeometry>
        </mxCell>
        <mxCell id="9VO5_gYoO6aW6VXsWO2F-343" value="เบอร์โทร" style="shape=partialRectangle;html=1;whiteSpace=wrap;connectable=0;strokeColor=inherit;overflow=hidden;fillColor=none;top=0;left=0;bottom=0;right=0;pointerEvents=1;fontSize=16;" parent="9VO5_gYoO6aW6VXsWO2F-340" vertex="1">
          <mxGeometry x="260" width="240" height="40" as="geometry">
            <mxRectangle width="240" height="40" as="alternateBounds" />
          </mxGeometry>
        </mxCell>
        <mxCell id="9VO5_gYoO6aW6VXsWO2F-93" style="shape=tableRow;horizontal=0;startSize=0;swimlaneHead=0;swimlaneBody=0;strokeColor=inherit;top=0;left=0;bottom=0;right=0;collapsible=0;dropTarget=0;fillColor=none;points=[[0,0.5],[1,0.5]];portConstraint=eastwest;fontSize=16;" parent="9VO5_gYoO6aW6VXsWO2F-76" vertex="1">
          <mxGeometry y="270" width="500.00000000000045" height="40" as="geometry" />
        </mxCell>
        <mxCell id="9VO5_gYoO6aW6VXsWO2F-94" value="password" style="shape=partialRectangle;html=1;whiteSpace=wrap;connectable=0;strokeColor=inherit;overflow=hidden;fillColor=none;top=0;left=0;bottom=0;right=0;pointerEvents=1;fontSize=16;" parent="9VO5_gYoO6aW6VXsWO2F-93" vertex="1">
          <mxGeometry width="153" height="40" as="geometry">
            <mxRectangle width="153" height="40" as="alternateBounds" />
          </mxGeometry>
        </mxCell>
        <mxCell id="9VO5_gYoO6aW6VXsWO2F-95" value="longtext" style="shape=partialRectangle;html=1;whiteSpace=wrap;connectable=0;strokeColor=inherit;overflow=hidden;fillColor=none;top=0;left=0;bottom=0;right=0;pointerEvents=1;fontSize=16;" parent="9VO5_gYoO6aW6VXsWO2F-93" vertex="1">
          <mxGeometry x="153" width="107" height="40" as="geometry">
            <mxRectangle width="107" height="40" as="alternateBounds" />
          </mxGeometry>
        </mxCell>
        <mxCell id="9VO5_gYoO6aW6VXsWO2F-96" value="รหัสผ่าน (hash)" style="shape=partialRectangle;html=1;whiteSpace=wrap;connectable=0;strokeColor=inherit;overflow=hidden;fillColor=none;top=0;left=0;bottom=0;right=0;pointerEvents=1;fontSize=16;" parent="9VO5_gYoO6aW6VXsWO2F-93" vertex="1">
          <mxGeometry x="260" width="240" height="40" as="geometry">
            <mxRectangle width="240" height="40" as="alternateBounds" />
          </mxGeometry>
        </mxCell>
        <mxCell id="9VO5_gYoO6aW6VXsWO2F-97" style="shape=tableRow;horizontal=0;startSize=0;swimlaneHead=0;swimlaneBody=0;strokeColor=inherit;top=0;left=0;bottom=0;right=0;collapsible=0;dropTarget=0;fillColor=none;points=[[0,0.5],[1,0.5]];portConstraint=eastwest;fontSize=16;" parent="9VO5_gYoO6aW6VXsWO2F-76" vertex="1">
          <mxGeometry y="310" width="500.00000000000045" height="40" as="geometry" />
        </mxCell>
        <mxCell id="9VO5_gYoO6aW6VXsWO2F-98" value="key_pass" style="shape=partialRectangle;html=1;whiteSpace=wrap;connectable=0;strokeColor=inherit;overflow=hidden;fillColor=none;top=0;left=0;bottom=0;right=0;pointerEvents=1;fontSize=16;" parent="9VO5_gYoO6aW6VXsWO2F-97" vertex="1">
          <mxGeometry width="153" height="40" as="geometry">
            <mxRectangle width="153" height="40" as="alternateBounds" />
          </mxGeometry>
        </mxCell>
        <mxCell id="9VO5_gYoO6aW6VXsWO2F-99" value="longtext" style="shape=partialRectangle;html=1;whiteSpace=wrap;connectable=0;strokeColor=inherit;overflow=hidden;fillColor=none;top=0;left=0;bottom=0;right=0;pointerEvents=1;fontSize=16;" parent="9VO5_gYoO6aW6VXsWO2F-97" vertex="1">
          <mxGeometry x="153" width="107" height="40" as="geometry">
            <mxRectangle width="107" height="40" as="alternateBounds" />
          </mxGeometry>
        </mxCell>
        <mxCell id="9VO5_gYoO6aW6VXsWO2F-100" value="รหัสกุญแจกรณีลืมรหัส (hash)" style="shape=partialRectangle;html=1;whiteSpace=wrap;connectable=0;strokeColor=inherit;overflow=hidden;fillColor=none;top=0;left=0;bottom=0;right=0;pointerEvents=1;fontSize=16;" parent="9VO5_gYoO6aW6VXsWO2F-97" vertex="1">
          <mxGeometry x="260" width="240" height="40" as="geometry">
            <mxRectangle width="240" height="40" as="alternateBounds" />
          </mxGeometry>
        </mxCell>
        <mxCell id="9VO5_gYoO6aW6VXsWO2F-101" style="shape=tableRow;horizontal=0;startSize=0;swimlaneHead=0;swimlaneBody=0;strokeColor=inherit;top=0;left=0;bottom=0;right=0;collapsible=0;dropTarget=0;fillColor=none;points=[[0,0.5],[1,0.5]];portConstraint=eastwest;fontSize=16;" parent="9VO5_gYoO6aW6VXsWO2F-76" vertex="1">
          <mxGeometry y="350" width="500.00000000000045" height="40" as="geometry" />
        </mxCell>
        <mxCell id="9VO5_gYoO6aW6VXsWO2F-102" value="status_user" style="shape=partialRectangle;html=1;whiteSpace=wrap;connectable=0;strokeColor=inherit;overflow=hidden;fillColor=none;top=0;left=0;bottom=0;right=0;pointerEvents=1;fontSize=16;" parent="9VO5_gYoO6aW6VXsWO2F-101" vertex="1">
          <mxGeometry width="153" height="40" as="geometry">
            <mxRectangle width="153" height="40" as="alternateBounds" />
          </mxGeometry>
        </mxCell>
        <mxCell id="9VO5_gYoO6aW6VXsWO2F-103" value="int (10)" style="shape=partialRectangle;html=1;whiteSpace=wrap;connectable=0;strokeColor=inherit;overflow=hidden;fillColor=none;top=0;left=0;bottom=0;right=0;pointerEvents=1;fontSize=16;" parent="9VO5_gYoO6aW6VXsWO2F-101" vertex="1">
          <mxGeometry x="153" width="107" height="40" as="geometry">
            <mxRectangle width="107" height="40" as="alternateBounds" />
          </mxGeometry>
        </mxCell>
        <mxCell id="9VO5_gYoO6aW6VXsWO2F-104" value="สถานะของแอคเคาท์&amp;nbsp;" style="shape=partialRectangle;html=1;whiteSpace=wrap;connectable=0;strokeColor=inherit;overflow=hidden;fillColor=none;top=0;left=0;bottom=0;right=0;pointerEvents=1;fontSize=16;" parent="9VO5_gYoO6aW6VXsWO2F-101" vertex="1">
          <mxGeometry x="260" width="240" height="40" as="geometry">
            <mxRectangle width="240" height="40" as="alternateBounds" />
          </mxGeometry>
        </mxCell>
        <mxCell id="VuIPr_7sdESRV2Sbwz-0-1" style="shape=tableRow;horizontal=0;startSize=0;swimlaneHead=0;swimlaneBody=0;strokeColor=inherit;top=0;left=0;bottom=0;right=0;collapsible=0;dropTarget=0;fillColor=none;points=[[0,0.5],[1,0.5]];portConstraint=eastwest;fontSize=16;" parent="9VO5_gYoO6aW6VXsWO2F-76" vertex="1">
          <mxGeometry y="390" width="500.00000000000045" height="40" as="geometry" />
        </mxCell>
        <mxCell id="VuIPr_7sdESRV2Sbwz-0-2" value="status_rental" style="shape=partialRectangle;html=1;whiteSpace=wrap;connectable=0;strokeColor=inherit;overflow=hidden;fillColor=none;top=0;left=0;bottom=0;right=0;pointerEvents=1;fontSize=16;" parent="VuIPr_7sdESRV2Sbwz-0-1" vertex="1">
          <mxGeometry width="153" height="40" as="geometry">
            <mxRectangle width="153" height="40" as="alternateBounds" />
          </mxGeometry>
        </mxCell>
        <mxCell id="VuIPr_7sdESRV2Sbwz-0-3" value="int (10)" style="shape=partialRectangle;html=1;whiteSpace=wrap;connectable=0;strokeColor=inherit;overflow=hidden;fillColor=none;top=0;left=0;bottom=0;right=0;pointerEvents=1;fontSize=16;" parent="VuIPr_7sdESRV2Sbwz-0-1" vertex="1">
          <mxGeometry x="153" width="107" height="40" as="geometry">
            <mxRectangle width="107" height="40" as="alternateBounds" />
          </mxGeometry>
        </mxCell>
        <mxCell id="VuIPr_7sdESRV2Sbwz-0-4" value="สถานะการเช่า" style="shape=partialRectangle;html=1;whiteSpace=wrap;connectable=0;strokeColor=inherit;overflow=hidden;fillColor=none;top=0;left=0;bottom=0;right=0;pointerEvents=1;fontSize=16;" parent="VuIPr_7sdESRV2Sbwz-0-1" vertex="1">
          <mxGeometry x="260" width="240" height="40" as="geometry">
            <mxRectangle width="240" height="40" as="alternateBounds" />
          </mxGeometry>
        </mxCell>
        <mxCell id="9VO5_gYoO6aW6VXsWO2F-134" style="shape=tableRow;horizontal=0;startSize=0;swimlaneHead=0;swimlaneBody=0;strokeColor=inherit;top=0;left=0;bottom=0;right=0;collapsible=0;dropTarget=0;fillColor=none;points=[[0,0.5],[1,0.5]];portConstraint=eastwest;fontSize=16;" parent="9VO5_gYoO6aW6VXsWO2F-76" vertex="1">
          <mxGeometry y="430" width="500.00000000000045" height="40" as="geometry" />
        </mxCell>
        <mxCell id="9VO5_gYoO6aW6VXsWO2F-135" value="type_user" style="shape=partialRectangle;html=1;whiteSpace=wrap;connectable=0;strokeColor=inherit;overflow=hidden;fillColor=none;top=0;left=0;bottom=0;right=0;pointerEvents=1;fontSize=16;" parent="9VO5_gYoO6aW6VXsWO2F-134" vertex="1">
          <mxGeometry width="153" height="40" as="geometry">
            <mxRectangle width="153" height="40" as="alternateBounds" />
          </mxGeometry>
        </mxCell>
        <mxCell id="9VO5_gYoO6aW6VXsWO2F-136" value="int (10)" style="shape=partialRectangle;html=1;whiteSpace=wrap;connectable=0;strokeColor=inherit;overflow=hidden;fillColor=none;top=0;left=0;bottom=0;right=0;pointerEvents=1;fontSize=16;" parent="9VO5_gYoO6aW6VXsWO2F-134" vertex="1">
          <mxGeometry x="153" width="107" height="40" as="geometry">
            <mxRectangle width="107" height="40" as="alternateBounds" />
          </mxGeometry>
        </mxCell>
        <mxCell id="9VO5_gYoO6aW6VXsWO2F-137" value="ประเภทสมาชิก&lt;br&gt;" style="shape=partialRectangle;html=1;whiteSpace=wrap;connectable=0;strokeColor=inherit;overflow=hidden;fillColor=none;top=0;left=0;bottom=0;right=0;pointerEvents=1;fontSize=16;" parent="9VO5_gYoO6aW6VXsWO2F-134" vertex="1">
          <mxGeometry x="260" width="240" height="40" as="geometry">
            <mxRectangle width="240" height="40" as="alternateBounds" />
          </mxGeometry>
        </mxCell>
        <mxCell id="9VO5_gYoO6aW6VXsWO2F-175" value="ประเภทสมาชิก&lt;br&gt;1 = ผู้จัดการระบบ admin&lt;br&gt;2 = เจ้าของร้าน owner&lt;br&gt;3 = พนักงาน employee&lt;br&gt;4 = ลูกค้า customer" style="rounded=1;whiteSpace=wrap;html=1;" parent="1" vertex="1">
          <mxGeometry x="90" y="190" width="160" height="90" as="geometry" />
        </mxCell>
        <mxCell id="9VO5_gYoO6aW6VXsWO2F-176" style="edgeStyle=orthogonalEdgeStyle;rounded=1;orthogonalLoop=1;jettySize=auto;html=1;exitX=0;exitY=0.5;exitDx=0;exitDy=0;entryX=0.5;entryY=0;entryDx=0;entryDy=0;endArrow=none;endFill=0;strokeWidth=2;" parent="1" source="9VO5_gYoO6aW6VXsWO2F-134" target="9VO5_gYoO6aW6VXsWO2F-175" edge="1">
          <mxGeometry relative="1" as="geometry" />
        </mxCell>
        <mxCell id="9VO5_gYoO6aW6VXsWO2F-177" value="history_book_table" style="shape=table;startSize=30;container=1;collapsible=0;childLayout=tableLayout;strokeColor=#000000;fontSize=16;strokeWidth=2;fillColor=#28a745;" parent="1" vertex="1">
          <mxGeometry x="827" width="462.00000000000045" height="670" as="geometry" />
        </mxCell>
        <mxCell id="9VO5_gYoO6aW6VXsWO2F-178" style="shape=tableRow;horizontal=0;startSize=0;swimlaneHead=0;swimlaneBody=0;strokeColor=inherit;top=0;left=0;bottom=0;right=0;collapsible=0;dropTarget=0;fillColor=none;points=[[0,0.5],[1,0.5]];portConstraint=eastwest;fontSize=16;" parent="9VO5_gYoO6aW6VXsWO2F-177" vertex="1">
          <mxGeometry y="30" width="462.00000000000045" height="40" as="geometry" />
        </mxCell>
        <mxCell id="9VO5_gYoO6aW6VXsWO2F-179" value="Name" style="shape=partialRectangle;html=1;whiteSpace=wrap;connectable=0;overflow=hidden;top=1;left=1;bottom=1;right=1;pointerEvents=1;fontSize=16;fillColor=#E3E0E0;fillStyle=auto;strokeWidth=2;" parent="9VO5_gYoO6aW6VXsWO2F-178" vertex="1">
          <mxGeometry width="170" height="40" as="geometry">
            <mxRectangle width="170" height="40" as="alternateBounds" />
          </mxGeometry>
        </mxCell>
        <mxCell id="9VO5_gYoO6aW6VXsWO2F-180" value="Type" style="shape=partialRectangle;html=1;whiteSpace=wrap;connectable=0;overflow=hidden;top=1;left=1;bottom=1;right=1;pointerEvents=1;fontSize=16;fillColor=#E3E0E0;fillStyle=auto;strokeWidth=2;" parent="9VO5_gYoO6aW6VXsWO2F-178" vertex="1">
          <mxGeometry x="170" width="110" height="40" as="geometry">
            <mxRectangle width="110" height="40" as="alternateBounds" />
          </mxGeometry>
        </mxCell>
        <mxCell id="9VO5_gYoO6aW6VXsWO2F-181" value="Description" style="shape=partialRectangle;html=1;whiteSpace=wrap;connectable=0;overflow=hidden;top=1;left=1;bottom=1;right=1;pointerEvents=1;fontSize=16;fillColor=#E3E0E0;fillStyle=auto;strokeWidth=2;" parent="9VO5_gYoO6aW6VXsWO2F-178" vertex="1">
          <mxGeometry x="280" width="182" height="40" as="geometry">
            <mxRectangle width="182" height="40" as="alternateBounds" />
          </mxGeometry>
        </mxCell>
        <mxCell id="9VO5_gYoO6aW6VXsWO2F-182" style="shape=tableRow;horizontal=0;startSize=0;swimlaneHead=0;swimlaneBody=0;strokeColor=inherit;top=0;left=0;bottom=0;right=0;collapsible=0;dropTarget=0;fillColor=none;points=[[0,0.5],[1,0.5]];portConstraint=eastwest;fontSize=16;" parent="9VO5_gYoO6aW6VXsWO2F-177" vertex="1">
          <mxGeometry y="70" width="462.00000000000045" height="40" as="geometry" />
        </mxCell>
        <mxCell id="9VO5_gYoO6aW6VXsWO2F-183" value="id_history (PK)" style="shape=partialRectangle;html=1;whiteSpace=wrap;connectable=0;strokeColor=inherit;overflow=hidden;fillColor=none;top=0;left=0;bottom=0;right=0;pointerEvents=1;fontSize=16;" parent="9VO5_gYoO6aW6VXsWO2F-182" vertex="1">
          <mxGeometry width="170" height="40" as="geometry">
            <mxRectangle width="170" height="40" as="alternateBounds" />
          </mxGeometry>
        </mxCell>
        <mxCell id="9VO5_gYoO6aW6VXsWO2F-184" value="int (10)" style="shape=partialRectangle;html=1;whiteSpace=wrap;connectable=0;strokeColor=inherit;overflow=hidden;fillColor=none;top=0;left=0;bottom=0;right=0;pointerEvents=1;fontSize=16;" parent="9VO5_gYoO6aW6VXsWO2F-182" vertex="1">
          <mxGeometry x="170" width="110" height="40" as="geometry">
            <mxRectangle width="110" height="40" as="alternateBounds" />
          </mxGeometry>
        </mxCell>
        <mxCell id="9VO5_gYoO6aW6VXsWO2F-185" value="ไอดีประวัติการเช่า" style="shape=partialRectangle;html=1;whiteSpace=wrap;connectable=0;strokeColor=inherit;overflow=hidden;fillColor=none;top=0;left=0;bottom=0;right=0;pointerEvents=1;fontSize=16;" parent="9VO5_gYoO6aW6VXsWO2F-182" vertex="1">
          <mxGeometry x="280" width="182" height="40" as="geometry">
            <mxRectangle width="182" height="40" as="alternateBounds" />
          </mxGeometry>
        </mxCell>
        <mxCell id="9VO5_gYoO6aW6VXsWO2F-186" value="" style="shape=tableRow;horizontal=0;startSize=0;swimlaneHead=0;swimlaneBody=0;strokeColor=inherit;top=0;left=0;bottom=0;right=0;collapsible=0;dropTarget=0;fillColor=none;points=[[0,0.5],[1,0.5]];portConstraint=eastwest;fontSize=16;" parent="9VO5_gYoO6aW6VXsWO2F-177" vertex="1">
          <mxGeometry y="110" width="462.00000000000045" height="40" as="geometry" />
        </mxCell>
        <mxCell id="9VO5_gYoO6aW6VXsWO2F-187" value="id_user (FK)" style="shape=partialRectangle;html=1;whiteSpace=wrap;connectable=0;strokeColor=inherit;overflow=hidden;fillColor=none;top=0;left=0;bottom=0;right=0;pointerEvents=1;fontSize=16;" parent="9VO5_gYoO6aW6VXsWO2F-186" vertex="1">
          <mxGeometry width="170" height="40" as="geometry">
            <mxRectangle width="170" height="40" as="alternateBounds" />
          </mxGeometry>
        </mxCell>
        <mxCell id="9VO5_gYoO6aW6VXsWO2F-188" value="int (10)" style="shape=partialRectangle;html=1;whiteSpace=wrap;connectable=0;strokeColor=inherit;overflow=hidden;fillColor=none;top=0;left=0;bottom=0;right=0;pointerEvents=1;fontSize=16;" parent="9VO5_gYoO6aW6VXsWO2F-186" vertex="1">
          <mxGeometry x="170" width="110" height="40" as="geometry">
            <mxRectangle width="110" height="40" as="alternateBounds" />
          </mxGeometry>
        </mxCell>
        <mxCell id="9VO5_gYoO6aW6VXsWO2F-189" value="ไอดีผู้ใช้" style="shape=partialRectangle;html=1;whiteSpace=wrap;connectable=0;strokeColor=inherit;overflow=hidden;fillColor=none;top=0;left=0;bottom=0;right=0;pointerEvents=1;fontSize=16;" parent="9VO5_gYoO6aW6VXsWO2F-186" vertex="1">
          <mxGeometry x="280" width="182" height="40" as="geometry">
            <mxRectangle width="182" height="40" as="alternateBounds" />
          </mxGeometry>
        </mxCell>
        <mxCell id="9VO5_gYoO6aW6VXsWO2F-190" style="shape=tableRow;horizontal=0;startSize=0;swimlaneHead=0;swimlaneBody=0;strokeColor=inherit;top=0;left=0;bottom=0;right=0;collapsible=0;dropTarget=0;fillColor=none;points=[[0,0.5],[1,0.5]];portConstraint=eastwest;fontSize=16;" parent="9VO5_gYoO6aW6VXsWO2F-177" vertex="1">
          <mxGeometry y="150" width="462.00000000000045" height="40" as="geometry" />
        </mxCell>
        <mxCell id="9VO5_gYoO6aW6VXsWO2F-191" value="id_book (FK)" style="shape=partialRectangle;html=1;whiteSpace=wrap;connectable=0;strokeColor=inherit;overflow=hidden;fillColor=none;top=0;left=0;bottom=0;right=0;pointerEvents=1;fontSize=16;" parent="9VO5_gYoO6aW6VXsWO2F-190" vertex="1">
          <mxGeometry width="170" height="40" as="geometry">
            <mxRectangle width="170" height="40" as="alternateBounds" />
          </mxGeometry>
        </mxCell>
        <mxCell id="9VO5_gYoO6aW6VXsWO2F-192" value="varchar (10)" style="shape=partialRectangle;html=1;whiteSpace=wrap;connectable=0;strokeColor=inherit;overflow=hidden;fillColor=none;top=0;left=0;bottom=0;right=0;pointerEvents=1;fontSize=16;" parent="9VO5_gYoO6aW6VXsWO2F-190" vertex="1">
          <mxGeometry x="170" width="110" height="40" as="geometry">
            <mxRectangle width="110" height="40" as="alternateBounds" />
          </mxGeometry>
        </mxCell>
        <mxCell id="9VO5_gYoO6aW6VXsWO2F-193" value="ไอดีหนังสือ" style="shape=partialRectangle;html=1;whiteSpace=wrap;connectable=0;strokeColor=inherit;overflow=hidden;fillColor=none;top=0;left=0;bottom=0;right=0;pointerEvents=1;fontSize=16;" parent="9VO5_gYoO6aW6VXsWO2F-190" vertex="1">
          <mxGeometry x="280" width="182" height="40" as="geometry">
            <mxRectangle width="182" height="40" as="alternateBounds" />
          </mxGeometry>
        </mxCell>
        <mxCell id="_AwWW0KDJJqJu4oTe6Fr-1" style="shape=tableRow;horizontal=0;startSize=0;swimlaneHead=0;swimlaneBody=0;strokeColor=inherit;top=0;left=0;bottom=0;right=0;collapsible=0;dropTarget=0;fillColor=none;points=[[0,0.5],[1,0.5]];portConstraint=eastwest;fontSize=16;" parent="9VO5_gYoO6aW6VXsWO2F-177" vertex="1">
          <mxGeometry y="190" width="462.00000000000045" height="40" as="geometry" />
        </mxCell>
        <mxCell id="_AwWW0KDJJqJu4oTe6Fr-2" value="id_stock_book" style="shape=partialRectangle;html=1;whiteSpace=wrap;connectable=0;strokeColor=inherit;overflow=hidden;fillColor=none;top=0;left=0;bottom=0;right=0;pointerEvents=1;fontSize=16;" parent="_AwWW0KDJJqJu4oTe6Fr-1" vertex="1">
          <mxGeometry width="170" height="40" as="geometry">
            <mxRectangle width="170" height="40" as="alternateBounds" />
          </mxGeometry>
        </mxCell>
        <mxCell id="_AwWW0KDJJqJu4oTe6Fr-3" value="varchar (100)" style="shape=partialRectangle;html=1;whiteSpace=wrap;connectable=0;strokeColor=inherit;overflow=hidden;fillColor=none;top=0;left=0;bottom=0;right=0;pointerEvents=1;fontSize=16;" parent="_AwWW0KDJJqJu4oTe6Fr-1" vertex="1">
          <mxGeometry x="170" width="110" height="40" as="geometry">
            <mxRectangle width="110" height="40" as="alternateBounds" />
          </mxGeometry>
        </mxCell>
        <mxCell id="_AwWW0KDJJqJu4oTe6Fr-4" value="ไอดีหนังสือใน stock" style="shape=partialRectangle;html=1;whiteSpace=wrap;connectable=0;strokeColor=inherit;overflow=hidden;fillColor=none;top=0;left=0;bottom=0;right=0;pointerEvents=1;fontSize=16;" parent="_AwWW0KDJJqJu4oTe6Fr-1" vertex="1">
          <mxGeometry x="280" width="182" height="40" as="geometry">
            <mxRectangle width="182" height="40" as="alternateBounds" />
          </mxGeometry>
        </mxCell>
        <mxCell id="9VO5_gYoO6aW6VXsWO2F-194" style="shape=tableRow;horizontal=0;startSize=0;swimlaneHead=0;swimlaneBody=0;strokeColor=inherit;top=0;left=0;bottom=0;right=0;collapsible=0;dropTarget=0;fillColor=none;points=[[0,0.5],[1,0.5]];portConstraint=eastwest;fontSize=16;" parent="9VO5_gYoO6aW6VXsWO2F-177" vertex="1">
          <mxGeometry y="230" width="462.00000000000045" height="40" as="geometry" />
        </mxCell>
        <mxCell id="9VO5_gYoO6aW6VXsWO2F-195" value="rental_date" style="shape=partialRectangle;html=1;whiteSpace=wrap;connectable=0;strokeColor=inherit;overflow=hidden;fillColor=none;top=0;left=0;bottom=0;right=0;pointerEvents=1;fontSize=16;" parent="9VO5_gYoO6aW6VXsWO2F-194" vertex="1">
          <mxGeometry width="170" height="40" as="geometry">
            <mxRectangle width="170" height="40" as="alternateBounds" />
          </mxGeometry>
        </mxCell>
        <mxCell id="9VO5_gYoO6aW6VXsWO2F-196" value="date" style="shape=partialRectangle;html=1;whiteSpace=wrap;connectable=0;strokeColor=inherit;overflow=hidden;fillColor=none;top=0;left=0;bottom=0;right=0;pointerEvents=1;fontSize=16;" parent="9VO5_gYoO6aW6VXsWO2F-194" vertex="1">
          <mxGeometry x="170" width="110" height="40" as="geometry">
            <mxRectangle width="110" height="40" as="alternateBounds" />
          </mxGeometry>
        </mxCell>
        <mxCell id="9VO5_gYoO6aW6VXsWO2F-197" value="วันที่เช่า" style="shape=partialRectangle;html=1;whiteSpace=wrap;connectable=0;strokeColor=inherit;overflow=hidden;fillColor=none;top=0;left=0;bottom=0;right=0;pointerEvents=1;fontSize=16;" parent="9VO5_gYoO6aW6VXsWO2F-194" vertex="1">
          <mxGeometry x="280" width="182" height="40" as="geometry">
            <mxRectangle width="182" height="40" as="alternateBounds" />
          </mxGeometry>
        </mxCell>
        <mxCell id="9VO5_gYoO6aW6VXsWO2F-198" style="shape=tableRow;horizontal=0;startSize=0;swimlaneHead=0;swimlaneBody=0;strokeColor=inherit;top=0;left=0;bottom=0;right=0;collapsible=0;dropTarget=0;fillColor=none;points=[[0,0.5],[1,0.5]];portConstraint=eastwest;fontSize=16;" parent="9VO5_gYoO6aW6VXsWO2F-177" vertex="1">
          <mxGeometry y="270" width="462.00000000000045" height="40" as="geometry" />
        </mxCell>
        <mxCell id="9VO5_gYoO6aW6VXsWO2F-199" value="return_date" style="shape=partialRectangle;html=1;whiteSpace=wrap;connectable=0;strokeColor=inherit;overflow=hidden;fillColor=none;top=0;left=0;bottom=0;right=0;pointerEvents=1;fontSize=16;" parent="9VO5_gYoO6aW6VXsWO2F-198" vertex="1">
          <mxGeometry width="170" height="40" as="geometry">
            <mxRectangle width="170" height="40" as="alternateBounds" />
          </mxGeometry>
        </mxCell>
        <mxCell id="9VO5_gYoO6aW6VXsWO2F-200" value="date" style="shape=partialRectangle;html=1;whiteSpace=wrap;connectable=0;strokeColor=inherit;overflow=hidden;fillColor=none;top=0;left=0;bottom=0;right=0;pointerEvents=1;fontSize=16;" parent="9VO5_gYoO6aW6VXsWO2F-198" vertex="1">
          <mxGeometry x="170" width="110" height="40" as="geometry">
            <mxRectangle width="110" height="40" as="alternateBounds" />
          </mxGeometry>
        </mxCell>
        <mxCell id="9VO5_gYoO6aW6VXsWO2F-201" value="วันที่จะต้องคืน" style="shape=partialRectangle;html=1;whiteSpace=wrap;connectable=0;strokeColor=inherit;overflow=hidden;fillColor=none;top=0;left=0;bottom=0;right=0;pointerEvents=1;fontSize=16;" parent="9VO5_gYoO6aW6VXsWO2F-198" vertex="1">
          <mxGeometry x="280" width="182" height="40" as="geometry">
            <mxRectangle width="182" height="40" as="alternateBounds" />
          </mxGeometry>
        </mxCell>
        <mxCell id="9VO5_gYoO6aW6VXsWO2F-202" style="shape=tableRow;horizontal=0;startSize=0;swimlaneHead=0;swimlaneBody=0;strokeColor=inherit;top=0;left=0;bottom=0;right=0;collapsible=0;dropTarget=0;fillColor=none;points=[[0,0.5],[1,0.5]];portConstraint=eastwest;fontSize=16;" parent="9VO5_gYoO6aW6VXsWO2F-177" vertex="1">
          <mxGeometry y="310" width="462.00000000000045" height="40" as="geometry" />
        </mxCell>
        <mxCell id="9VO5_gYoO6aW6VXsWO2F-203" value="submit_date" style="shape=partialRectangle;html=1;whiteSpace=wrap;connectable=0;strokeColor=inherit;overflow=hidden;fillColor=none;top=0;left=0;bottom=0;right=0;pointerEvents=1;fontSize=16;" parent="9VO5_gYoO6aW6VXsWO2F-202" vertex="1">
          <mxGeometry width="170" height="40" as="geometry">
            <mxRectangle width="170" height="40" as="alternateBounds" />
          </mxGeometry>
        </mxCell>
        <mxCell id="9VO5_gYoO6aW6VXsWO2F-204" value="date" style="shape=partialRectangle;html=1;whiteSpace=wrap;connectable=0;strokeColor=inherit;overflow=hidden;fillColor=none;top=0;left=0;bottom=0;right=0;pointerEvents=1;fontSize=16;" parent="9VO5_gYoO6aW6VXsWO2F-202" vertex="1">
          <mxGeometry x="170" width="110" height="40" as="geometry">
            <mxRectangle width="110" height="40" as="alternateBounds" />
          </mxGeometry>
        </mxCell>
        <mxCell id="9VO5_gYoO6aW6VXsWO2F-205" value="วันที่มาคืน" style="shape=partialRectangle;html=1;whiteSpace=wrap;connectable=0;strokeColor=inherit;overflow=hidden;fillColor=none;top=0;left=0;bottom=0;right=0;pointerEvents=1;fontSize=16;" parent="9VO5_gYoO6aW6VXsWO2F-202" vertex="1">
          <mxGeometry x="280" width="182" height="40" as="geometry">
            <mxRectangle width="182" height="40" as="alternateBounds" />
          </mxGeometry>
        </mxCell>
        <mxCell id="DJ1pXw2HNUqRAErPdaFf-7" style="shape=tableRow;horizontal=0;startSize=0;swimlaneHead=0;swimlaneBody=0;strokeColor=inherit;top=0;left=0;bottom=0;right=0;collapsible=0;dropTarget=0;fillColor=none;points=[[0,0.5],[1,0.5]];portConstraint=eastwest;fontSize=16;" parent="9VO5_gYoO6aW6VXsWO2F-177" vertex="1">
          <mxGeometry y="350" width="462.00000000000045" height="40" as="geometry" />
        </mxCell>
        <mxCell id="DJ1pXw2HNUqRAErPdaFf-8" value="sum_rental_price" style="shape=partialRectangle;html=1;whiteSpace=wrap;connectable=0;strokeColor=inherit;overflow=hidden;fillColor=none;top=0;left=0;bottom=0;right=0;pointerEvents=1;fontSize=16;" parent="DJ1pXw2HNUqRAErPdaFf-7" vertex="1">
          <mxGeometry width="170" height="40" as="geometry">
            <mxRectangle width="170" height="40" as="alternateBounds" />
          </mxGeometry>
        </mxCell>
        <mxCell id="DJ1pXw2HNUqRAErPdaFf-9" value="int (10)" style="shape=partialRectangle;html=1;whiteSpace=wrap;connectable=0;strokeColor=inherit;overflow=hidden;fillColor=none;top=0;left=0;bottom=0;right=0;pointerEvents=1;fontSize=16;" parent="DJ1pXw2HNUqRAErPdaFf-7" vertex="1">
          <mxGeometry x="170" width="110" height="40" as="geometry">
            <mxRectangle width="110" height="40" as="alternateBounds" />
          </mxGeometry>
        </mxCell>
        <mxCell id="DJ1pXw2HNUqRAErPdaFf-10" value="ราคาเช่ารวม" style="shape=partialRectangle;html=1;whiteSpace=wrap;connectable=0;strokeColor=inherit;overflow=hidden;fillColor=none;top=0;left=0;bottom=0;right=0;pointerEvents=1;fontSize=16;" parent="DJ1pXw2HNUqRAErPdaFf-7" vertex="1">
          <mxGeometry x="280" width="182" height="40" as="geometry">
            <mxRectangle width="182" height="40" as="alternateBounds" />
          </mxGeometry>
        </mxCell>
        <mxCell id="9VO5_gYoO6aW6VXsWO2F-206" style="shape=tableRow;horizontal=0;startSize=0;swimlaneHead=0;swimlaneBody=0;strokeColor=inherit;top=0;left=0;bottom=0;right=0;collapsible=0;dropTarget=0;fillColor=none;points=[[0,0.5],[1,0.5]];portConstraint=eastwest;fontSize=16;" parent="9VO5_gYoO6aW6VXsWO2F-177" vertex="1">
          <mxGeometry y="390" width="462.00000000000045" height="40" as="geometry" />
        </mxCell>
        <mxCell id="9VO5_gYoO6aW6VXsWO2F-207" value="sum_deposit_price" style="shape=partialRectangle;html=1;whiteSpace=wrap;connectable=0;strokeColor=inherit;overflow=hidden;fillColor=none;top=0;left=0;bottom=0;right=0;pointerEvents=1;fontSize=16;" parent="9VO5_gYoO6aW6VXsWO2F-206" vertex="1">
          <mxGeometry width="170" height="40" as="geometry">
            <mxRectangle width="170" height="40" as="alternateBounds" />
          </mxGeometry>
        </mxCell>
        <mxCell id="9VO5_gYoO6aW6VXsWO2F-208" value="int (10)" style="shape=partialRectangle;html=1;whiteSpace=wrap;connectable=0;strokeColor=inherit;overflow=hidden;fillColor=none;top=0;left=0;bottom=0;right=0;pointerEvents=1;fontSize=16;" parent="9VO5_gYoO6aW6VXsWO2F-206" vertex="1">
          <mxGeometry x="170" width="110" height="40" as="geometry">
            <mxRectangle width="110" height="40" as="alternateBounds" />
          </mxGeometry>
        </mxCell>
        <mxCell id="9VO5_gYoO6aW6VXsWO2F-209" value="ราคาค่ามัดจำรวม" style="shape=partialRectangle;html=1;whiteSpace=wrap;connectable=0;strokeColor=inherit;overflow=hidden;fillColor=none;top=0;left=0;bottom=0;right=0;pointerEvents=1;fontSize=16;" parent="9VO5_gYoO6aW6VXsWO2F-206" vertex="1">
          <mxGeometry x="280" width="182" height="40" as="geometry">
            <mxRectangle width="182" height="40" as="alternateBounds" />
          </mxGeometry>
        </mxCell>
        <mxCell id="DJ1pXw2HNUqRAErPdaFf-3" style="shape=tableRow;horizontal=0;startSize=0;swimlaneHead=0;swimlaneBody=0;strokeColor=inherit;top=0;left=0;bottom=0;right=0;collapsible=0;dropTarget=0;fillColor=none;points=[[0,0.5],[1,0.5]];portConstraint=eastwest;fontSize=16;" parent="9VO5_gYoO6aW6VXsWO2F-177" vertex="1">
          <mxGeometry y="430" width="462.00000000000045" height="40" as="geometry" />
        </mxCell>
        <mxCell id="DJ1pXw2HNUqRAErPdaFf-4" value="sum_late_price" style="shape=partialRectangle;html=1;whiteSpace=wrap;connectable=0;strokeColor=inherit;overflow=hidden;fillColor=none;top=0;left=0;bottom=0;right=0;pointerEvents=1;fontSize=16;" parent="DJ1pXw2HNUqRAErPdaFf-3" vertex="1">
          <mxGeometry width="170" height="40" as="geometry">
            <mxRectangle width="170" height="40" as="alternateBounds" />
          </mxGeometry>
        </mxCell>
        <mxCell id="DJ1pXw2HNUqRAErPdaFf-5" value="int (10)" style="shape=partialRectangle;html=1;whiteSpace=wrap;connectable=0;strokeColor=inherit;overflow=hidden;fillColor=none;top=0;left=0;bottom=0;right=0;pointerEvents=1;fontSize=16;" parent="DJ1pXw2HNUqRAErPdaFf-3" vertex="1">
          <mxGeometry x="170" width="110" height="40" as="geometry">
            <mxRectangle width="110" height="40" as="alternateBounds" />
          </mxGeometry>
        </mxCell>
        <mxCell id="DJ1pXw2HNUqRAErPdaFf-6" value="ค่าปรับอื่นๆ" style="shape=partialRectangle;html=1;whiteSpace=wrap;connectable=0;strokeColor=inherit;overflow=hidden;fillColor=none;top=0;left=0;bottom=0;right=0;pointerEvents=1;fontSize=16;" parent="DJ1pXw2HNUqRAErPdaFf-3" vertex="1">
          <mxGeometry x="280" width="182" height="40" as="geometry">
            <mxRectangle width="182" height="40" as="alternateBounds" />
          </mxGeometry>
        </mxCell>
        <mxCell id="5hSg_MLRsk6d3KoxQEVe-5" style="shape=tableRow;horizontal=0;startSize=0;swimlaneHead=0;swimlaneBody=0;strokeColor=inherit;top=0;left=0;bottom=0;right=0;collapsible=0;dropTarget=0;fillColor=none;points=[[0,0.5],[1,0.5]];portConstraint=eastwest;fontSize=16;" parent="9VO5_gYoO6aW6VXsWO2F-177" vertex="1">
          <mxGeometry y="470" width="462.00000000000045" height="40" as="geometry" />
        </mxCell>
        <mxCell id="5hSg_MLRsk6d3KoxQEVe-6" value="sum_day_late_price" style="shape=partialRectangle;html=1;whiteSpace=wrap;connectable=0;strokeColor=inherit;overflow=hidden;fillColor=none;top=0;left=0;bottom=0;right=0;pointerEvents=1;fontSize=16;" parent="5hSg_MLRsk6d3KoxQEVe-5" vertex="1">
          <mxGeometry width="170" height="40" as="geometry">
            <mxRectangle width="170" height="40" as="alternateBounds" />
          </mxGeometry>
        </mxCell>
        <mxCell id="5hSg_MLRsk6d3KoxQEVe-7" value="int (10)" style="shape=partialRectangle;html=1;whiteSpace=wrap;connectable=0;strokeColor=inherit;overflow=hidden;fillColor=none;top=0;left=0;bottom=0;right=0;pointerEvents=1;fontSize=16;" parent="5hSg_MLRsk6d3KoxQEVe-5" vertex="1">
          <mxGeometry x="170" width="110" height="40" as="geometry">
            <mxRectangle width="110" height="40" as="alternateBounds" />
          </mxGeometry>
        </mxCell>
        <mxCell id="5hSg_MLRsk6d3KoxQEVe-8" value="ค่าปรับเกินกำหนด" style="shape=partialRectangle;html=1;whiteSpace=wrap;connectable=0;strokeColor=inherit;overflow=hidden;fillColor=none;top=0;left=0;bottom=0;right=0;pointerEvents=1;fontSize=16;" parent="5hSg_MLRsk6d3KoxQEVe-5" vertex="1">
          <mxGeometry x="280" width="182" height="40" as="geometry">
            <mxRectangle width="182" height="40" as="alternateBounds" />
          </mxGeometry>
        </mxCell>
        <mxCell id="5hSg_MLRsk6d3KoxQEVe-1" style="shape=tableRow;horizontal=0;startSize=0;swimlaneHead=0;swimlaneBody=0;strokeColor=inherit;top=0;left=0;bottom=0;right=0;collapsible=0;dropTarget=0;fillColor=none;points=[[0,0.5],[1,0.5]];portConstraint=eastwest;fontSize=16;" parent="9VO5_gYoO6aW6VXsWO2F-177" vertex="1">
          <mxGeometry y="510" width="462.00000000000045" height="40" as="geometry" />
        </mxCell>
        <mxCell id="5hSg_MLRsk6d3KoxQEVe-2" value="sum_book_des_price" style="shape=partialRectangle;html=1;whiteSpace=wrap;connectable=0;strokeColor=inherit;overflow=hidden;fillColor=none;top=0;left=0;bottom=0;right=0;pointerEvents=1;fontSize=16;" parent="5hSg_MLRsk6d3KoxQEVe-1" vertex="1">
          <mxGeometry width="170" height="40" as="geometry">
            <mxRectangle width="170" height="40" as="alternateBounds" />
          </mxGeometry>
        </mxCell>
        <mxCell id="5hSg_MLRsk6d3KoxQEVe-3" value="int (10)" style="shape=partialRectangle;html=1;whiteSpace=wrap;connectable=0;strokeColor=inherit;overflow=hidden;fillColor=none;top=0;left=0;bottom=0;right=0;pointerEvents=1;fontSize=16;" parent="5hSg_MLRsk6d3KoxQEVe-1" vertex="1">
          <mxGeometry x="170" width="110" height="40" as="geometry">
            <mxRectangle width="110" height="40" as="alternateBounds" />
          </mxGeometry>
        </mxCell>
        <mxCell id="5hSg_MLRsk6d3KoxQEVe-4" value="ค่าปรับหนังสือ" style="shape=partialRectangle;html=1;whiteSpace=wrap;connectable=0;strokeColor=inherit;overflow=hidden;fillColor=none;top=0;left=0;bottom=0;right=0;pointerEvents=1;fontSize=16;" parent="5hSg_MLRsk6d3KoxQEVe-1" vertex="1">
          <mxGeometry x="280" width="182" height="40" as="geometry">
            <mxRectangle width="182" height="40" as="alternateBounds" />
          </mxGeometry>
        </mxCell>
        <mxCell id="7QFMeNGG1TSKAfgbSCha-7" style="shape=tableRow;horizontal=0;startSize=0;swimlaneHead=0;swimlaneBody=0;strokeColor=inherit;top=0;left=0;bottom=0;right=0;collapsible=0;dropTarget=0;fillColor=none;points=[[0,0.5],[1,0.5]];portConstraint=eastwest;fontSize=16;" parent="9VO5_gYoO6aW6VXsWO2F-177" vertex="1">
          <mxGeometry y="550" width="462.00000000000045" height="40" as="geometry" />
        </mxCell>
        <mxCell id="7QFMeNGG1TSKAfgbSCha-8" value="sum_price_promotion" style="shape=partialRectangle;html=1;whiteSpace=wrap;connectable=0;strokeColor=inherit;overflow=hidden;fillColor=none;top=0;left=0;bottom=0;right=0;pointerEvents=1;fontSize=16;" parent="7QFMeNGG1TSKAfgbSCha-7" vertex="1">
          <mxGeometry width="170" height="40" as="geometry">
            <mxRectangle width="170" height="40" as="alternateBounds" />
          </mxGeometry>
        </mxCell>
        <mxCell id="7QFMeNGG1TSKAfgbSCha-9" value="int (10)" style="shape=partialRectangle;html=1;whiteSpace=wrap;connectable=0;strokeColor=inherit;overflow=hidden;fillColor=none;top=0;left=0;bottom=0;right=0;pointerEvents=1;fontSize=16;" parent="7QFMeNGG1TSKAfgbSCha-7" vertex="1">
          <mxGeometry x="170" width="110" height="40" as="geometry">
            <mxRectangle width="110" height="40" as="alternateBounds" />
          </mxGeometry>
        </mxCell>
        <mxCell id="7QFMeNGG1TSKAfgbSCha-10" value="ราคาโปรโมชั่นรวม" style="shape=partialRectangle;html=1;whiteSpace=wrap;connectable=0;strokeColor=inherit;overflow=hidden;fillColor=none;top=0;left=0;bottom=0;right=0;pointerEvents=1;fontSize=16;" parent="7QFMeNGG1TSKAfgbSCha-7" vertex="1">
          <mxGeometry x="280" width="182" height="40" as="geometry">
            <mxRectangle width="182" height="40" as="alternateBounds" />
          </mxGeometry>
        </mxCell>
        <mxCell id="lthAIileWM3t9Atvukou-1" style="shape=tableRow;horizontal=0;startSize=0;swimlaneHead=0;swimlaneBody=0;strokeColor=inherit;top=0;left=0;bottom=0;right=0;collapsible=0;dropTarget=0;fillColor=none;points=[[0,0.5],[1,0.5]];portConstraint=eastwest;fontSize=16;" parent="9VO5_gYoO6aW6VXsWO2F-177" vertex="1">
          <mxGeometry y="590" width="462.00000000000045" height="40" as="geometry" />
        </mxCell>
        <mxCell id="lthAIileWM3t9Atvukou-2" value="id_promotion (FK)" style="shape=partialRectangle;html=1;whiteSpace=wrap;connectable=0;strokeColor=inherit;overflow=hidden;fillColor=none;top=0;left=0;bottom=0;right=0;pointerEvents=1;fontSize=16;" parent="lthAIileWM3t9Atvukou-1" vertex="1">
          <mxGeometry width="170" height="40" as="geometry">
            <mxRectangle width="170" height="40" as="alternateBounds" />
          </mxGeometry>
        </mxCell>
        <mxCell id="lthAIileWM3t9Atvukou-3" value="varchar (10)" style="shape=partialRectangle;html=1;whiteSpace=wrap;connectable=0;strokeColor=inherit;overflow=hidden;fillColor=none;top=0;left=0;bottom=0;right=0;pointerEvents=1;fontSize=16;" parent="lthAIileWM3t9Atvukou-1" vertex="1">
          <mxGeometry x="170" width="110" height="40" as="geometry">
            <mxRectangle width="110" height="40" as="alternateBounds" />
          </mxGeometry>
        </mxCell>
        <mxCell id="lthAIileWM3t9Atvukou-4" value="รหัสโปรโมชั่น" style="shape=partialRectangle;html=1;whiteSpace=wrap;connectable=0;strokeColor=inherit;overflow=hidden;fillColor=none;top=0;left=0;bottom=0;right=0;pointerEvents=1;fontSize=16;" parent="lthAIileWM3t9Atvukou-1" vertex="1">
          <mxGeometry x="280" width="182" height="40" as="geometry">
            <mxRectangle width="182" height="40" as="alternateBounds" />
          </mxGeometry>
        </mxCell>
        <mxCell id="eAKK8fujebzF1Rxwg85B-1" style="shape=tableRow;horizontal=0;startSize=0;swimlaneHead=0;swimlaneBody=0;strokeColor=inherit;top=0;left=0;bottom=0;right=0;collapsible=0;dropTarget=0;fillColor=none;points=[[0,0.5],[1,0.5]];portConstraint=eastwest;fontSize=16;" parent="9VO5_gYoO6aW6VXsWO2F-177" vertex="1">
          <mxGeometry y="630" width="462.00000000000045" height="40" as="geometry" />
        </mxCell>
        <mxCell id="eAKK8fujebzF1Rxwg85B-2" value="status_his" style="shape=partialRectangle;html=1;whiteSpace=wrap;connectable=0;strokeColor=inherit;overflow=hidden;fillColor=none;top=0;left=0;bottom=0;right=0;pointerEvents=1;fontSize=16;" parent="eAKK8fujebzF1Rxwg85B-1" vertex="1">
          <mxGeometry width="170" height="40" as="geometry">
            <mxRectangle width="170" height="40" as="alternateBounds" />
          </mxGeometry>
        </mxCell>
        <mxCell id="eAKK8fujebzF1Rxwg85B-3" value="int (10)" style="shape=partialRectangle;html=1;whiteSpace=wrap;connectable=0;strokeColor=inherit;overflow=hidden;fillColor=none;top=0;left=0;bottom=0;right=0;pointerEvents=1;fontSize=16;" parent="eAKK8fujebzF1Rxwg85B-1" vertex="1">
          <mxGeometry x="170" width="110" height="40" as="geometry">
            <mxRectangle width="110" height="40" as="alternateBounds" />
          </mxGeometry>
        </mxCell>
        <mxCell id="eAKK8fujebzF1Rxwg85B-4" value="สถานะ his" style="shape=partialRectangle;html=1;whiteSpace=wrap;connectable=0;strokeColor=inherit;overflow=hidden;fillColor=none;top=0;left=0;bottom=0;right=0;pointerEvents=1;fontSize=16;" parent="eAKK8fujebzF1Rxwg85B-1" vertex="1">
          <mxGeometry x="280" width="182" height="40" as="geometry">
            <mxRectangle width="182" height="40" as="alternateBounds" />
          </mxGeometry>
        </mxCell>
        <mxCell id="6rLL0-xuiBq8NrOBir-f-45" style="edgeStyle=orthogonalEdgeStyle;rounded=0;orthogonalLoop=1;jettySize=auto;html=1;exitX=0;exitY=0.5;exitDx=0;exitDy=0;strokeWidth=2;endArrow=none;endFill=0;" parent="1" source="9VO5_gYoO6aW6VXsWO2F-214" target="6rLL0-xuiBq8NrOBir-f-18" edge="1">
          <mxGeometry relative="1" as="geometry" />
        </mxCell>
        <mxCell id="9VO5_gYoO6aW6VXsWO2F-214" value="สถานะหนังสือ&lt;br&gt;0 = ไม่พร้อมใช้งาน&lt;br&gt;1 = พร้อมใช้งาน&lt;br&gt;2 = กำลังเช่า" style="rounded=1;whiteSpace=wrap;html=1;" parent="1" vertex="1">
          <mxGeometry x="70" y="437.5" width="140" height="105" as="geometry" />
        </mxCell>
        <mxCell id="9VO5_gYoO6aW6VXsWO2F-215" style="edgeStyle=orthogonalEdgeStyle;rounded=0;orthogonalLoop=1;jettySize=auto;html=1;exitX=0;exitY=0.5;exitDx=0;exitDy=0;entryX=1;entryY=0.5;entryDx=0;entryDy=0;endArrow=none;endFill=0;strokeWidth=2;" parent="1" source="9VO5_gYoO6aW6VXsWO2F-68" target="9VO5_gYoO6aW6VXsWO2F-214" edge="1">
          <mxGeometry relative="1" as="geometry" />
        </mxCell>
        <mxCell id="9VO5_gYoO6aW6VXsWO2F-257" value="late_fees_table" style="shape=table;startSize=30;container=1;collapsible=0;childLayout=tableLayout;strokeColor=#000000;fontSize=16;strokeWidth=2;fillColor=#e39426;" parent="1" vertex="1">
          <mxGeometry x="1350" y="25" width="462.00000000000045" height="150" as="geometry" />
        </mxCell>
        <mxCell id="9VO5_gYoO6aW6VXsWO2F-258" style="shape=tableRow;horizontal=0;startSize=0;swimlaneHead=0;swimlaneBody=0;strokeColor=inherit;top=0;left=0;bottom=0;right=0;collapsible=0;dropTarget=0;fillColor=none;points=[[0,0.5],[1,0.5]];portConstraint=eastwest;fontSize=16;" parent="9VO5_gYoO6aW6VXsWO2F-257" vertex="1">
          <mxGeometry y="30" width="462.00000000000045" height="40" as="geometry" />
        </mxCell>
        <mxCell id="9VO5_gYoO6aW6VXsWO2F-259" value="Name" style="shape=partialRectangle;html=1;whiteSpace=wrap;connectable=0;overflow=hidden;top=1;left=1;bottom=1;right=1;pointerEvents=1;fontSize=16;fillColor=#E3E0E0;fillStyle=auto;strokeWidth=2;" parent="9VO5_gYoO6aW6VXsWO2F-258" vertex="1">
          <mxGeometry width="153" height="40" as="geometry">
            <mxRectangle width="153" height="40" as="alternateBounds" />
          </mxGeometry>
        </mxCell>
        <mxCell id="9VO5_gYoO6aW6VXsWO2F-260" value="Type" style="shape=partialRectangle;html=1;whiteSpace=wrap;connectable=0;overflow=hidden;top=1;left=1;bottom=1;right=1;pointerEvents=1;fontSize=16;fillColor=#E3E0E0;fillStyle=auto;strokeWidth=2;" parent="9VO5_gYoO6aW6VXsWO2F-258" vertex="1">
          <mxGeometry x="153" width="107" height="40" as="geometry">
            <mxRectangle width="107" height="40" as="alternateBounds" />
          </mxGeometry>
        </mxCell>
        <mxCell id="9VO5_gYoO6aW6VXsWO2F-261" value="Description" style="shape=partialRectangle;html=1;whiteSpace=wrap;connectable=0;overflow=hidden;top=1;left=1;bottom=1;right=1;pointerEvents=1;fontSize=16;fillColor=#E3E0E0;fillStyle=auto;strokeWidth=2;" parent="9VO5_gYoO6aW6VXsWO2F-258" vertex="1">
          <mxGeometry x="260" width="202" height="40" as="geometry">
            <mxRectangle width="202" height="40" as="alternateBounds" />
          </mxGeometry>
        </mxCell>
        <mxCell id="9VO5_gYoO6aW6VXsWO2F-262" style="shape=tableRow;horizontal=0;startSize=0;swimlaneHead=0;swimlaneBody=0;strokeColor=inherit;top=0;left=0;bottom=0;right=0;collapsible=0;dropTarget=0;fillColor=none;points=[[0,0.5],[1,0.5]];portConstraint=eastwest;fontSize=16;" parent="9VO5_gYoO6aW6VXsWO2F-257" vertex="1">
          <mxGeometry y="70" width="462.00000000000045" height="40" as="geometry" />
        </mxCell>
        <mxCell id="9VO5_gYoO6aW6VXsWO2F-263" value="id_late_fees (PK)" style="shape=partialRectangle;html=1;whiteSpace=wrap;connectable=0;strokeColor=inherit;overflow=hidden;fillColor=none;top=0;left=0;bottom=0;right=0;pointerEvents=1;fontSize=16;" parent="9VO5_gYoO6aW6VXsWO2F-262" vertex="1">
          <mxGeometry width="153" height="40" as="geometry">
            <mxRectangle width="153" height="40" as="alternateBounds" />
          </mxGeometry>
        </mxCell>
        <mxCell id="9VO5_gYoO6aW6VXsWO2F-264" value="int (10)" style="shape=partialRectangle;html=1;whiteSpace=wrap;connectable=0;strokeColor=inherit;overflow=hidden;fillColor=none;top=0;left=0;bottom=0;right=0;pointerEvents=1;fontSize=16;" parent="9VO5_gYoO6aW6VXsWO2F-262" vertex="1">
          <mxGeometry x="153" width="107" height="40" as="geometry">
            <mxRectangle width="107" height="40" as="alternateBounds" />
          </mxGeometry>
        </mxCell>
        <mxCell id="9VO5_gYoO6aW6VXsWO2F-265" value="ไอดี ค่าปรับ" style="shape=partialRectangle;html=1;whiteSpace=wrap;connectable=0;strokeColor=inherit;overflow=hidden;fillColor=none;top=0;left=0;bottom=0;right=0;pointerEvents=1;fontSize=16;" parent="9VO5_gYoO6aW6VXsWO2F-262" vertex="1">
          <mxGeometry x="260" width="202" height="40" as="geometry">
            <mxRectangle width="202" height="40" as="alternateBounds" />
          </mxGeometry>
        </mxCell>
        <mxCell id="9VO5_gYoO6aW6VXsWO2F-266" value="" style="shape=tableRow;horizontal=0;startSize=0;swimlaneHead=0;swimlaneBody=0;strokeColor=inherit;top=0;left=0;bottom=0;right=0;collapsible=0;dropTarget=0;fillColor=none;points=[[0,0.5],[1,0.5]];portConstraint=eastwest;fontSize=16;" parent="9VO5_gYoO6aW6VXsWO2F-257" vertex="1">
          <mxGeometry y="110" width="462.00000000000045" height="40" as="geometry" />
        </mxCell>
        <mxCell id="9VO5_gYoO6aW6VXsWO2F-267" value="price_fees" style="shape=partialRectangle;html=1;whiteSpace=wrap;connectable=0;strokeColor=inherit;overflow=hidden;fillColor=none;top=0;left=0;bottom=0;right=0;pointerEvents=1;fontSize=16;" parent="9VO5_gYoO6aW6VXsWO2F-266" vertex="1">
          <mxGeometry width="153" height="40" as="geometry">
            <mxRectangle width="153" height="40" as="alternateBounds" />
          </mxGeometry>
        </mxCell>
        <mxCell id="9VO5_gYoO6aW6VXsWO2F-268" value="int (10)" style="shape=partialRectangle;html=1;whiteSpace=wrap;connectable=0;strokeColor=inherit;overflow=hidden;fillColor=none;top=0;left=0;bottom=0;right=0;pointerEvents=1;fontSize=16;" parent="9VO5_gYoO6aW6VXsWO2F-266" vertex="1">
          <mxGeometry x="153" width="107" height="40" as="geometry">
            <mxRectangle width="107" height="40" as="alternateBounds" />
          </mxGeometry>
        </mxCell>
        <mxCell id="9VO5_gYoO6aW6VXsWO2F-269" value="อัตราค่าปรับ / day" style="shape=partialRectangle;html=1;whiteSpace=wrap;connectable=0;strokeColor=inherit;overflow=hidden;fillColor=none;top=0;left=0;bottom=0;right=0;pointerEvents=1;fontSize=16;" parent="9VO5_gYoO6aW6VXsWO2F-266" vertex="1">
          <mxGeometry x="260" width="202" height="40" as="geometry">
            <mxRectangle width="202" height="40" as="alternateBounds" />
          </mxGeometry>
        </mxCell>
        <mxCell id="9VO5_gYoO6aW6VXsWO2F-303" value="category_table" style="shape=table;startSize=30;container=1;collapsible=0;childLayout=tableLayout;strokeColor=#000000;fontSize=16;strokeWidth=2;fillColor=#73e273;" parent="1" vertex="1">
          <mxGeometry x="280" y="660" width="462.00000000000045" height="230" as="geometry" />
        </mxCell>
        <mxCell id="9VO5_gYoO6aW6VXsWO2F-304" style="shape=tableRow;horizontal=0;startSize=0;swimlaneHead=0;swimlaneBody=0;strokeColor=inherit;top=0;left=0;bottom=0;right=0;collapsible=0;dropTarget=0;fillColor=none;points=[[0,0.5],[1,0.5]];portConstraint=eastwest;fontSize=16;" parent="9VO5_gYoO6aW6VXsWO2F-303" vertex="1">
          <mxGeometry y="30" width="462.00000000000045" height="40" as="geometry" />
        </mxCell>
        <mxCell id="9VO5_gYoO6aW6VXsWO2F-305" value="Name" style="shape=partialRectangle;html=1;whiteSpace=wrap;connectable=0;overflow=hidden;top=1;left=1;bottom=1;right=1;pointerEvents=1;fontSize=16;fillColor=#E3E0E0;fillStyle=auto;strokeWidth=2;" parent="9VO5_gYoO6aW6VXsWO2F-304" vertex="1">
          <mxGeometry width="153" height="40" as="geometry">
            <mxRectangle width="153" height="40" as="alternateBounds" />
          </mxGeometry>
        </mxCell>
        <mxCell id="9VO5_gYoO6aW6VXsWO2F-306" value="Type" style="shape=partialRectangle;html=1;whiteSpace=wrap;connectable=0;overflow=hidden;top=1;left=1;bottom=1;right=1;pointerEvents=1;fontSize=16;fillColor=#E3E0E0;fillStyle=auto;strokeWidth=2;" parent="9VO5_gYoO6aW6VXsWO2F-304" vertex="1">
          <mxGeometry x="153" width="107" height="40" as="geometry">
            <mxRectangle width="107" height="40" as="alternateBounds" />
          </mxGeometry>
        </mxCell>
        <mxCell id="9VO5_gYoO6aW6VXsWO2F-307" value="Description" style="shape=partialRectangle;html=1;whiteSpace=wrap;connectable=0;overflow=hidden;top=1;left=1;bottom=1;right=1;pointerEvents=1;fontSize=16;fillColor=#E3E0E0;fillStyle=auto;strokeWidth=2;" parent="9VO5_gYoO6aW6VXsWO2F-304" vertex="1">
          <mxGeometry x="260" width="202" height="40" as="geometry">
            <mxRectangle width="202" height="40" as="alternateBounds" />
          </mxGeometry>
        </mxCell>
        <mxCell id="9VO5_gYoO6aW6VXsWO2F-308" style="shape=tableRow;horizontal=0;startSize=0;swimlaneHead=0;swimlaneBody=0;strokeColor=inherit;top=0;left=0;bottom=0;right=0;collapsible=0;dropTarget=0;fillColor=none;points=[[0,0.5],[1,0.5]];portConstraint=eastwest;fontSize=16;" parent="9VO5_gYoO6aW6VXsWO2F-303" vertex="1">
          <mxGeometry y="70" width="462.00000000000045" height="40" as="geometry" />
        </mxCell>
        <mxCell id="9VO5_gYoO6aW6VXsWO2F-309" value="id_category" style="shape=partialRectangle;html=1;whiteSpace=wrap;connectable=0;strokeColor=inherit;overflow=hidden;fillColor=none;top=0;left=0;bottom=0;right=0;pointerEvents=1;fontSize=16;" parent="9VO5_gYoO6aW6VXsWO2F-308" vertex="1">
          <mxGeometry width="153" height="40" as="geometry">
            <mxRectangle width="153" height="40" as="alternateBounds" />
          </mxGeometry>
        </mxCell>
        <mxCell id="9VO5_gYoO6aW6VXsWO2F-310" value="int (10)" style="shape=partialRectangle;html=1;whiteSpace=wrap;connectable=0;strokeColor=inherit;overflow=hidden;fillColor=none;top=0;left=0;bottom=0;right=0;pointerEvents=1;fontSize=16;" parent="9VO5_gYoO6aW6VXsWO2F-308" vertex="1">
          <mxGeometry x="153" width="107" height="40" as="geometry">
            <mxRectangle width="107" height="40" as="alternateBounds" />
          </mxGeometry>
        </mxCell>
        <mxCell id="9VO5_gYoO6aW6VXsWO2F-311" value="ไอดีหมวดหนังสือ" style="shape=partialRectangle;html=1;whiteSpace=wrap;connectable=0;strokeColor=inherit;overflow=hidden;fillColor=none;top=0;left=0;bottom=0;right=0;pointerEvents=1;fontSize=16;" parent="9VO5_gYoO6aW6VXsWO2F-308" vertex="1">
          <mxGeometry x="260" width="202" height="40" as="geometry">
            <mxRectangle width="202" height="40" as="alternateBounds" />
          </mxGeometry>
        </mxCell>
        <mxCell id="dte0unYEwiuYdA9rihWW-6" style="shape=tableRow;horizontal=0;startSize=0;swimlaneHead=0;swimlaneBody=0;strokeColor=inherit;top=0;left=0;bottom=0;right=0;collapsible=0;dropTarget=0;fillColor=none;points=[[0,0.5],[1,0.5]];portConstraint=eastwest;fontSize=16;" parent="9VO5_gYoO6aW6VXsWO2F-303" vertex="1">
          <mxGeometry y="110" width="462.00000000000045" height="40" as="geometry" />
        </mxCell>
        <mxCell id="dte0unYEwiuYdA9rihWW-7" value="name_category" style="shape=partialRectangle;html=1;whiteSpace=wrap;connectable=0;strokeColor=inherit;overflow=hidden;fillColor=none;top=0;left=0;bottom=0;right=0;pointerEvents=1;fontSize=16;" parent="dte0unYEwiuYdA9rihWW-6" vertex="1">
          <mxGeometry width="153" height="40" as="geometry">
            <mxRectangle width="153" height="40" as="alternateBounds" />
          </mxGeometry>
        </mxCell>
        <mxCell id="dte0unYEwiuYdA9rihWW-8" value="varchar(255)" style="shape=partialRectangle;html=1;whiteSpace=wrap;connectable=0;strokeColor=inherit;overflow=hidden;fillColor=none;top=0;left=0;bottom=0;right=0;pointerEvents=1;fontSize=16;" parent="dte0unYEwiuYdA9rihWW-6" vertex="1">
          <mxGeometry x="153" width="107" height="40" as="geometry">
            <mxRectangle width="107" height="40" as="alternateBounds" />
          </mxGeometry>
        </mxCell>
        <mxCell id="dte0unYEwiuYdA9rihWW-9" value="ชื่อหมวดหมู่" style="shape=partialRectangle;html=1;whiteSpace=wrap;connectable=0;strokeColor=inherit;overflow=hidden;fillColor=none;top=0;left=0;bottom=0;right=0;pointerEvents=1;fontSize=16;" parent="dte0unYEwiuYdA9rihWW-6" vertex="1">
          <mxGeometry x="260" width="202" height="40" as="geometry">
            <mxRectangle width="202" height="40" as="alternateBounds" />
          </mxGeometry>
        </mxCell>
        <mxCell id="9VO5_gYoO6aW6VXsWO2F-312" value="" style="shape=tableRow;horizontal=0;startSize=0;swimlaneHead=0;swimlaneBody=0;strokeColor=inherit;top=0;left=0;bottom=0;right=0;collapsible=0;dropTarget=0;fillColor=none;points=[[0,0.5],[1,0.5]];portConstraint=eastwest;fontSize=16;" parent="9VO5_gYoO6aW6VXsWO2F-303" vertex="1">
          <mxGeometry y="150" width="462.00000000000045" height="40" as="geometry" />
        </mxCell>
        <mxCell id="9VO5_gYoO6aW6VXsWO2F-313" value="details" style="shape=partialRectangle;html=1;whiteSpace=wrap;connectable=0;strokeColor=inherit;overflow=hidden;fillColor=none;top=0;left=0;bottom=0;right=0;pointerEvents=1;fontSize=16;" parent="9VO5_gYoO6aW6VXsWO2F-312" vertex="1">
          <mxGeometry width="153" height="40" as="geometry">
            <mxRectangle width="153" height="40" as="alternateBounds" />
          </mxGeometry>
        </mxCell>
        <mxCell id="9VO5_gYoO6aW6VXsWO2F-314" value="varchar(255)" style="shape=partialRectangle;html=1;whiteSpace=wrap;connectable=0;strokeColor=inherit;overflow=hidden;fillColor=none;top=0;left=0;bottom=0;right=0;pointerEvents=1;fontSize=16;" parent="9VO5_gYoO6aW6VXsWO2F-312" vertex="1">
          <mxGeometry x="153" width="107" height="40" as="geometry">
            <mxRectangle width="107" height="40" as="alternateBounds" />
          </mxGeometry>
        </mxCell>
        <mxCell id="9VO5_gYoO6aW6VXsWO2F-315" value="รายละเอียดหมวดหมู่" style="shape=partialRectangle;html=1;whiteSpace=wrap;connectable=0;strokeColor=inherit;overflow=hidden;fillColor=none;top=0;left=0;bottom=0;right=0;pointerEvents=1;fontSize=16;" parent="9VO5_gYoO6aW6VXsWO2F-312" vertex="1">
          <mxGeometry x="260" width="202" height="40" as="geometry">
            <mxRectangle width="202" height="40" as="alternateBounds" />
          </mxGeometry>
        </mxCell>
        <mxCell id="9VO5_gYoO6aW6VXsWO2F-316" style="shape=tableRow;horizontal=0;startSize=0;swimlaneHead=0;swimlaneBody=0;strokeColor=inherit;top=0;left=0;bottom=0;right=0;collapsible=0;dropTarget=0;fillColor=none;points=[[0,0.5],[1,0.5]];portConstraint=eastwest;fontSize=16;" parent="9VO5_gYoO6aW6VXsWO2F-303" vertex="1">
          <mxGeometry y="190" width="462.00000000000045" height="40" as="geometry" />
        </mxCell>
        <mxCell id="9VO5_gYoO6aW6VXsWO2F-317" value="status" style="shape=partialRectangle;html=1;whiteSpace=wrap;connectable=0;strokeColor=inherit;overflow=hidden;fillColor=none;top=0;left=0;bottom=0;right=0;pointerEvents=1;fontSize=16;" parent="9VO5_gYoO6aW6VXsWO2F-316" vertex="1">
          <mxGeometry width="153" height="40" as="geometry">
            <mxRectangle width="153" height="40" as="alternateBounds" />
          </mxGeometry>
        </mxCell>
        <mxCell id="9VO5_gYoO6aW6VXsWO2F-318" value="int (10)" style="shape=partialRectangle;html=1;whiteSpace=wrap;connectable=0;strokeColor=inherit;overflow=hidden;fillColor=none;top=0;left=0;bottom=0;right=0;pointerEvents=1;fontSize=16;" parent="9VO5_gYoO6aW6VXsWO2F-316" vertex="1">
          <mxGeometry x="153" width="107" height="40" as="geometry">
            <mxRectangle width="107" height="40" as="alternateBounds" />
          </mxGeometry>
        </mxCell>
        <mxCell id="9VO5_gYoO6aW6VXsWO2F-319" value="สถานะหมวดหมู่ เปิด/ปิด" style="shape=partialRectangle;html=1;whiteSpace=wrap;connectable=0;strokeColor=inherit;overflow=hidden;fillColor=none;top=0;left=0;bottom=0;right=0;pointerEvents=1;fontSize=16;" parent="9VO5_gYoO6aW6VXsWO2F-316" vertex="1">
          <mxGeometry x="260" width="202" height="40" as="geometry">
            <mxRectangle width="202" height="40" as="alternateBounds" />
          </mxGeometry>
        </mxCell>
        <mxCell id="9VO5_gYoO6aW6VXsWO2F-336" style="edgeStyle=orthogonalEdgeStyle;rounded=1;orthogonalLoop=1;jettySize=auto;html=1;exitX=0;exitY=0.5;exitDx=0;exitDy=0;entryX=0;entryY=0.5;entryDx=0;entryDy=0;strokeWidth=2;endArrow=none;endFill=0;" parent="1" source="9VO5_gYoO6aW6VXsWO2F-308" target="9VO5_gYoO6aW6VXsWO2F-72" edge="1">
          <mxGeometry relative="1" as="geometry" />
        </mxCell>
        <mxCell id="9VO5_gYoO6aW6VXsWO2F-337" style="edgeStyle=orthogonalEdgeStyle;rounded=1;orthogonalLoop=1;jettySize=auto;html=1;exitX=0;exitY=0.5;exitDx=0;exitDy=0;entryX=1;entryY=0.5;entryDx=0;entryDy=0;endArrow=none;endFill=0;strokeWidth=2;curved=0;" parent="1" source="9VO5_gYoO6aW6VXsWO2F-190" target="9VO5_gYoO6aW6VXsWO2F-56" edge="1">
          <mxGeometry relative="1" as="geometry">
            <Array as="points">
              <mxPoint x="800" y="170" />
              <mxPoint x="800" y="290" />
            </Array>
          </mxGeometry>
        </mxCell>
        <mxCell id="9VO5_gYoO6aW6VXsWO2F-339" style="edgeStyle=orthogonalEdgeStyle;rounded=1;orthogonalLoop=1;jettySize=auto;html=1;exitX=0;exitY=0.5;exitDx=0;exitDy=0;entryX=1;entryY=0.5;entryDx=0;entryDy=0;endArrow=none;endFill=0;strokeWidth=2;" parent="1" source="9VO5_gYoO6aW6VXsWO2F-186" target="9VO5_gYoO6aW6VXsWO2F-81" edge="1">
          <mxGeometry relative="1" as="geometry" />
        </mxCell>
        <mxCell id="9VO5_gYoO6aW6VXsWO2F-345" style="edgeStyle=orthogonalEdgeStyle;rounded=1;orthogonalLoop=1;jettySize=auto;html=1;exitX=0.5;exitY=1;exitDx=0;exitDy=0;entryX=0;entryY=0.5;entryDx=0;entryDy=0;strokeWidth=2;endArrow=none;endFill=0;" parent="1" source="9VO5_gYoO6aW6VXsWO2F-344" target="9VO5_gYoO6aW6VXsWO2F-101" edge="1">
          <mxGeometry relative="1" as="geometry" />
        </mxCell>
        <mxCell id="9VO5_gYoO6aW6VXsWO2F-344" value="สถานะ&lt;br&gt;1 = ใช้งานปกติ&lt;br&gt;0 = แบล็คลิส" style="rounded=1;whiteSpace=wrap;html=1;" parent="1" vertex="1">
          <mxGeometry x="80" y="-20" width="160" height="90" as="geometry" />
        </mxCell>
        <mxCell id="dte0unYEwiuYdA9rihWW-11" style="edgeStyle=orthogonalEdgeStyle;rounded=0;orthogonalLoop=1;jettySize=auto;html=1;entryX=0;entryY=0.5;entryDx=0;entryDy=0;" parent="1" source="dte0unYEwiuYdA9rihWW-10" target="9VO5_gYoO6aW6VXsWO2F-316" edge="1">
          <mxGeometry relative="1" as="geometry" />
        </mxCell>
        <mxCell id="dte0unYEwiuYdA9rihWW-10" value="สถานะหมวดหมู่&lt;br&gt;0 = off&lt;br&gt;1 = on" style="rounded=1;whiteSpace=wrap;html=1;" parent="1" vertex="1">
          <mxGeometry x="80" y="787.5" width="140" height="105" as="geometry" />
        </mxCell>
        <mxCell id="DGrZq-4mfQkD-d2zwi39-1" value="cart_book_table" style="shape=table;startSize=30;container=1;collapsible=0;childLayout=tableLayout;strokeColor=#000000;fontSize=16;strokeWidth=2;fillColor=#28a745;" parent="1" vertex="1">
          <mxGeometry x="827" y="-330" width="462.00000000000045" height="310" as="geometry" />
        </mxCell>
        <mxCell id="DGrZq-4mfQkD-d2zwi39-2" style="shape=tableRow;horizontal=0;startSize=0;swimlaneHead=0;swimlaneBody=0;strokeColor=inherit;top=0;left=0;bottom=0;right=0;collapsible=0;dropTarget=0;fillColor=none;points=[[0,0.5],[1,0.5]];portConstraint=eastwest;fontSize=16;" parent="DGrZq-4mfQkD-d2zwi39-1" vertex="1">
          <mxGeometry y="30" width="462.00000000000045" height="40" as="geometry" />
        </mxCell>
        <mxCell id="DGrZq-4mfQkD-d2zwi39-3" value="Name" style="shape=partialRectangle;html=1;whiteSpace=wrap;connectable=0;overflow=hidden;top=1;left=1;bottom=1;right=1;pointerEvents=1;fontSize=16;fillColor=#E3E0E0;fillStyle=auto;strokeWidth=2;" parent="DGrZq-4mfQkD-d2zwi39-2" vertex="1">
          <mxGeometry width="153" height="40" as="geometry">
            <mxRectangle width="153" height="40" as="alternateBounds" />
          </mxGeometry>
        </mxCell>
        <mxCell id="DGrZq-4mfQkD-d2zwi39-4" value="Type" style="shape=partialRectangle;html=1;whiteSpace=wrap;connectable=0;overflow=hidden;top=1;left=1;bottom=1;right=1;pointerEvents=1;fontSize=16;fillColor=#E3E0E0;fillStyle=auto;strokeWidth=2;" parent="DGrZq-4mfQkD-d2zwi39-2" vertex="1">
          <mxGeometry x="153" width="107" height="40" as="geometry">
            <mxRectangle width="107" height="40" as="alternateBounds" />
          </mxGeometry>
        </mxCell>
        <mxCell id="DGrZq-4mfQkD-d2zwi39-5" value="Description" style="shape=partialRectangle;html=1;whiteSpace=wrap;connectable=0;overflow=hidden;top=1;left=1;bottom=1;right=1;pointerEvents=1;fontSize=16;fillColor=#E3E0E0;fillStyle=auto;strokeWidth=2;" parent="DGrZq-4mfQkD-d2zwi39-2" vertex="1">
          <mxGeometry x="260" width="202" height="40" as="geometry">
            <mxRectangle width="202" height="40" as="alternateBounds" />
          </mxGeometry>
        </mxCell>
        <mxCell id="DGrZq-4mfQkD-d2zwi39-6" style="shape=tableRow;horizontal=0;startSize=0;swimlaneHead=0;swimlaneBody=0;strokeColor=inherit;top=0;left=0;bottom=0;right=0;collapsible=0;dropTarget=0;fillColor=none;points=[[0,0.5],[1,0.5]];portConstraint=eastwest;fontSize=16;" parent="DGrZq-4mfQkD-d2zwi39-1" vertex="1">
          <mxGeometry y="70" width="462.00000000000045" height="40" as="geometry" />
        </mxCell>
        <mxCell id="DGrZq-4mfQkD-d2zwi39-7" value="id_cart (PK)" style="shape=partialRectangle;html=1;whiteSpace=wrap;connectable=0;strokeColor=inherit;overflow=hidden;fillColor=none;top=0;left=0;bottom=0;right=0;pointerEvents=1;fontSize=16;" parent="DGrZq-4mfQkD-d2zwi39-6" vertex="1">
          <mxGeometry width="153" height="40" as="geometry">
            <mxRectangle width="153" height="40" as="alternateBounds" />
          </mxGeometry>
        </mxCell>
        <mxCell id="DGrZq-4mfQkD-d2zwi39-8" value="int (10)" style="shape=partialRectangle;html=1;whiteSpace=wrap;connectable=0;strokeColor=inherit;overflow=hidden;fillColor=none;top=0;left=0;bottom=0;right=0;pointerEvents=1;fontSize=16;" parent="DGrZq-4mfQkD-d2zwi39-6" vertex="1">
          <mxGeometry x="153" width="107" height="40" as="geometry">
            <mxRectangle width="107" height="40" as="alternateBounds" />
          </mxGeometry>
        </mxCell>
        <mxCell id="DGrZq-4mfQkD-d2zwi39-9" value="ไอดีตระกร้า" style="shape=partialRectangle;html=1;whiteSpace=wrap;connectable=0;strokeColor=inherit;overflow=hidden;fillColor=none;top=0;left=0;bottom=0;right=0;pointerEvents=1;fontSize=16;" parent="DGrZq-4mfQkD-d2zwi39-6" vertex="1">
          <mxGeometry x="260" width="202" height="40" as="geometry">
            <mxRectangle width="202" height="40" as="alternateBounds" />
          </mxGeometry>
        </mxCell>
        <mxCell id="DGrZq-4mfQkD-d2zwi39-10" value="" style="shape=tableRow;horizontal=0;startSize=0;swimlaneHead=0;swimlaneBody=0;strokeColor=inherit;top=0;left=0;bottom=0;right=0;collapsible=0;dropTarget=0;fillColor=none;points=[[0,0.5],[1,0.5]];portConstraint=eastwest;fontSize=16;" parent="DGrZq-4mfQkD-d2zwi39-1" vertex="1">
          <mxGeometry y="110" width="462.00000000000045" height="40" as="geometry" />
        </mxCell>
        <mxCell id="DGrZq-4mfQkD-d2zwi39-11" value="id_user (FK)" style="shape=partialRectangle;html=1;whiteSpace=wrap;connectable=0;strokeColor=inherit;overflow=hidden;fillColor=none;top=0;left=0;bottom=0;right=0;pointerEvents=1;fontSize=16;" parent="DGrZq-4mfQkD-d2zwi39-10" vertex="1">
          <mxGeometry width="153" height="40" as="geometry">
            <mxRectangle width="153" height="40" as="alternateBounds" />
          </mxGeometry>
        </mxCell>
        <mxCell id="DGrZq-4mfQkD-d2zwi39-12" value="int (10)" style="shape=partialRectangle;html=1;whiteSpace=wrap;connectable=0;strokeColor=inherit;overflow=hidden;fillColor=none;top=0;left=0;bottom=0;right=0;pointerEvents=1;fontSize=16;" parent="DGrZq-4mfQkD-d2zwi39-10" vertex="1">
          <mxGeometry x="153" width="107" height="40" as="geometry">
            <mxRectangle width="107" height="40" as="alternateBounds" />
          </mxGeometry>
        </mxCell>
        <mxCell id="DGrZq-4mfQkD-d2zwi39-13" value="ไอดีผู้ใช้" style="shape=partialRectangle;html=1;whiteSpace=wrap;connectable=0;strokeColor=inherit;overflow=hidden;fillColor=none;top=0;left=0;bottom=0;right=0;pointerEvents=1;fontSize=16;" parent="DGrZq-4mfQkD-d2zwi39-10" vertex="1">
          <mxGeometry x="260" width="202" height="40" as="geometry">
            <mxRectangle width="202" height="40" as="alternateBounds" />
          </mxGeometry>
        </mxCell>
        <mxCell id="DGrZq-4mfQkD-d2zwi39-14" style="shape=tableRow;horizontal=0;startSize=0;swimlaneHead=0;swimlaneBody=0;strokeColor=inherit;top=0;left=0;bottom=0;right=0;collapsible=0;dropTarget=0;fillColor=none;points=[[0,0.5],[1,0.5]];portConstraint=eastwest;fontSize=16;" parent="DGrZq-4mfQkD-d2zwi39-1" vertex="1">
          <mxGeometry y="150" width="462.00000000000045" height="40" as="geometry" />
        </mxCell>
        <mxCell id="DGrZq-4mfQkD-d2zwi39-15" value="id_book (FK)" style="shape=partialRectangle;html=1;whiteSpace=wrap;connectable=0;strokeColor=inherit;overflow=hidden;fillColor=none;top=0;left=0;bottom=0;right=0;pointerEvents=1;fontSize=16;" parent="DGrZq-4mfQkD-d2zwi39-14" vertex="1">
          <mxGeometry width="153" height="40" as="geometry">
            <mxRectangle width="153" height="40" as="alternateBounds" />
          </mxGeometry>
        </mxCell>
        <mxCell id="DGrZq-4mfQkD-d2zwi39-16" value="varchar (10)" style="shape=partialRectangle;html=1;whiteSpace=wrap;connectable=0;strokeColor=inherit;overflow=hidden;fillColor=none;top=0;left=0;bottom=0;right=0;pointerEvents=1;fontSize=16;" parent="DGrZq-4mfQkD-d2zwi39-14" vertex="1">
          <mxGeometry x="153" width="107" height="40" as="geometry">
            <mxRectangle width="107" height="40" as="alternateBounds" />
          </mxGeometry>
        </mxCell>
        <mxCell id="DGrZq-4mfQkD-d2zwi39-17" value="ไอดีหนังสือ" style="shape=partialRectangle;html=1;whiteSpace=wrap;connectable=0;strokeColor=inherit;overflow=hidden;fillColor=none;top=0;left=0;bottom=0;right=0;pointerEvents=1;fontSize=16;" parent="DGrZq-4mfQkD-d2zwi39-14" vertex="1">
          <mxGeometry x="260" width="202" height="40" as="geometry">
            <mxRectangle width="202" height="40" as="alternateBounds" />
          </mxGeometry>
        </mxCell>
        <mxCell id="_AwWW0KDJJqJu4oTe6Fr-5" style="shape=tableRow;horizontal=0;startSize=0;swimlaneHead=0;swimlaneBody=0;strokeColor=inherit;top=0;left=0;bottom=0;right=0;collapsible=0;dropTarget=0;fillColor=none;points=[[0,0.5],[1,0.5]];portConstraint=eastwest;fontSize=16;" parent="DGrZq-4mfQkD-d2zwi39-1" vertex="1">
          <mxGeometry y="190" width="462.00000000000045" height="40" as="geometry" />
        </mxCell>
        <mxCell id="_AwWW0KDJJqJu4oTe6Fr-6" value="id_stock_book" style="shape=partialRectangle;html=1;whiteSpace=wrap;connectable=0;strokeColor=inherit;overflow=hidden;fillColor=none;top=0;left=0;bottom=0;right=0;pointerEvents=1;fontSize=16;" parent="_AwWW0KDJJqJu4oTe6Fr-5" vertex="1">
          <mxGeometry width="153" height="40" as="geometry">
            <mxRectangle width="153" height="40" as="alternateBounds" />
          </mxGeometry>
        </mxCell>
        <mxCell id="_AwWW0KDJJqJu4oTe6Fr-7" value="varchar (100)" style="shape=partialRectangle;html=1;whiteSpace=wrap;connectable=0;strokeColor=inherit;overflow=hidden;fillColor=none;top=0;left=0;bottom=0;right=0;pointerEvents=1;fontSize=16;" parent="_AwWW0KDJJqJu4oTe6Fr-5" vertex="1">
          <mxGeometry x="153" width="107" height="40" as="geometry">
            <mxRectangle width="107" height="40" as="alternateBounds" />
          </mxGeometry>
        </mxCell>
        <mxCell id="_AwWW0KDJJqJu4oTe6Fr-8" value="ไอดีหนังสือใน stock" style="shape=partialRectangle;html=1;whiteSpace=wrap;connectable=0;strokeColor=inherit;overflow=hidden;fillColor=none;top=0;left=0;bottom=0;right=0;pointerEvents=1;fontSize=16;" parent="_AwWW0KDJJqJu4oTe6Fr-5" vertex="1">
          <mxGeometry x="260" width="202" height="40" as="geometry">
            <mxRectangle width="202" height="40" as="alternateBounds" />
          </mxGeometry>
        </mxCell>
        <mxCell id="DGrZq-4mfQkD-d2zwi39-18" style="shape=tableRow;horizontal=0;startSize=0;swimlaneHead=0;swimlaneBody=0;strokeColor=inherit;top=0;left=0;bottom=0;right=0;collapsible=0;dropTarget=0;fillColor=none;points=[[0,0.5],[1,0.5]];portConstraint=eastwest;fontSize=16;" parent="DGrZq-4mfQkD-d2zwi39-1" vertex="1">
          <mxGeometry y="230" width="462.00000000000045" height="40" as="geometry" />
        </mxCell>
        <mxCell id="DGrZq-4mfQkD-d2zwi39-19" value="cart_date" style="shape=partialRectangle;html=1;whiteSpace=wrap;connectable=0;strokeColor=inherit;overflow=hidden;fillColor=none;top=0;left=0;bottom=0;right=0;pointerEvents=1;fontSize=16;" parent="DGrZq-4mfQkD-d2zwi39-18" vertex="1">
          <mxGeometry width="153" height="40" as="geometry">
            <mxRectangle width="153" height="40" as="alternateBounds" />
          </mxGeometry>
        </mxCell>
        <mxCell id="DGrZq-4mfQkD-d2zwi39-20" value="date time" style="shape=partialRectangle;html=1;whiteSpace=wrap;connectable=0;strokeColor=inherit;overflow=hidden;fillColor=none;top=0;left=0;bottom=0;right=0;pointerEvents=1;fontSize=16;" parent="DGrZq-4mfQkD-d2zwi39-18" vertex="1">
          <mxGeometry x="153" width="107" height="40" as="geometry">
            <mxRectangle width="107" height="40" as="alternateBounds" />
          </mxGeometry>
        </mxCell>
        <mxCell id="DGrZq-4mfQkD-d2zwi39-21" value="วันที่กดเข้าตระกร้า" style="shape=partialRectangle;html=1;whiteSpace=wrap;connectable=0;strokeColor=inherit;overflow=hidden;fillColor=none;top=0;left=0;bottom=0;right=0;pointerEvents=1;fontSize=16;" parent="DGrZq-4mfQkD-d2zwi39-18" vertex="1">
          <mxGeometry x="260" width="202" height="40" as="geometry">
            <mxRectangle width="202" height="40" as="alternateBounds" />
          </mxGeometry>
        </mxCell>
        <mxCell id="XZIOIuZz-mJWrsS4DBAa-1" style="shape=tableRow;horizontal=0;startSize=0;swimlaneHead=0;swimlaneBody=0;strokeColor=inherit;top=0;left=0;bottom=0;right=0;collapsible=0;dropTarget=0;fillColor=none;points=[[0,0.5],[1,0.5]];portConstraint=eastwest;fontSize=16;" parent="DGrZq-4mfQkD-d2zwi39-1" vertex="1">
          <mxGeometry y="270" width="462.00000000000045" height="40" as="geometry" />
        </mxCell>
        <mxCell id="XZIOIuZz-mJWrsS4DBAa-2" value="status_cart" style="shape=partialRectangle;html=1;whiteSpace=wrap;connectable=0;strokeColor=inherit;overflow=hidden;fillColor=none;top=0;left=0;bottom=0;right=0;pointerEvents=1;fontSize=16;" parent="XZIOIuZz-mJWrsS4DBAa-1" vertex="1">
          <mxGeometry width="153" height="40" as="geometry">
            <mxRectangle width="153" height="40" as="alternateBounds" />
          </mxGeometry>
        </mxCell>
        <mxCell id="XZIOIuZz-mJWrsS4DBAa-3" value="int (10)" style="shape=partialRectangle;html=1;whiteSpace=wrap;connectable=0;strokeColor=inherit;overflow=hidden;fillColor=none;top=0;left=0;bottom=0;right=0;pointerEvents=1;fontSize=16;" parent="XZIOIuZz-mJWrsS4DBAa-1" vertex="1">
          <mxGeometry x="153" width="107" height="40" as="geometry">
            <mxRectangle width="107" height="40" as="alternateBounds" />
          </mxGeometry>
        </mxCell>
        <mxCell id="XZIOIuZz-mJWrsS4DBAa-4" value="สถานะตระกร้า" style="shape=partialRectangle;html=1;whiteSpace=wrap;connectable=0;strokeColor=inherit;overflow=hidden;fillColor=none;top=0;left=0;bottom=0;right=0;pointerEvents=1;fontSize=16;" parent="XZIOIuZz-mJWrsS4DBAa-1" vertex="1">
          <mxGeometry x="260" width="202" height="40" as="geometry">
            <mxRectangle width="202" height="40" as="alternateBounds" />
          </mxGeometry>
        </mxCell>
        <mxCell id="XZIOIuZz-mJWrsS4DBAa-5" value="สถานะตระกร้า&lt;br&gt;0 = รอโดนลบ&lt;br&gt;1 = พร้อมใช้งาน" style="rounded=1;whiteSpace=wrap;html=1;" parent="1" vertex="1">
          <mxGeometry x="1330" y="-81.25" width="100" height="82.5" as="geometry" />
        </mxCell>
        <mxCell id="XZIOIuZz-mJWrsS4DBAa-6" style="edgeStyle=orthogonalEdgeStyle;rounded=0;orthogonalLoop=1;jettySize=auto;html=1;exitX=1;exitY=0.5;exitDx=0;exitDy=0;entryX=0;entryY=0.5;entryDx=0;entryDy=0;" parent="1" source="XZIOIuZz-mJWrsS4DBAa-1" target="XZIOIuZz-mJWrsS4DBAa-5" edge="1">
          <mxGeometry relative="1" as="geometry" />
        </mxCell>
        <mxCell id="eAKK8fujebzF1Rxwg85B-5" value="สถานะตระกร้า&lt;br&gt;0 = รอโดนลบ&lt;br&gt;1 = รอรับหนังสือ&lt;br&gt;2 = กำลังเช่า&lt;br&gt;3 = คืนแล้ว" style="rounded=1;whiteSpace=wrap;html=1;" parent="1" vertex="1">
          <mxGeometry x="1330" y="608.75" width="100" height="82.5" as="geometry" />
        </mxCell>
        <mxCell id="eAKK8fujebzF1Rxwg85B-6" style="edgeStyle=orthogonalEdgeStyle;rounded=0;orthogonalLoop=1;jettySize=auto;html=1;exitX=1;exitY=0.5;exitDx=0;exitDy=0;entryX=0;entryY=0.5;entryDx=0;entryDy=0;strokeWidth=2;" parent="1" source="eAKK8fujebzF1Rxwg85B-1" target="eAKK8fujebzF1Rxwg85B-5" edge="1">
          <mxGeometry relative="1" as="geometry">
            <mxPoint x="1302" y="611.25" as="sourcePoint" />
          </mxGeometry>
        </mxCell>
        <mxCell id="VuIPr_7sdESRV2Sbwz-0-6" style="edgeStyle=orthogonalEdgeStyle;rounded=0;orthogonalLoop=1;jettySize=auto;html=1;entryX=0;entryY=0.5;entryDx=0;entryDy=0;strokeWidth=2;endArrow=none;endFill=0;" parent="1" source="VuIPr_7sdESRV2Sbwz-0-5" target="VuIPr_7sdESRV2Sbwz-0-1" edge="1">
          <mxGeometry relative="1" as="geometry" />
        </mxCell>
        <mxCell id="VuIPr_7sdESRV2Sbwz-0-5" value="สถานะเช่า&lt;br&gt;1 = ยังไม่มีการเช่า&lt;br&gt;2 = รอเข้ารับ&lt;br&gt;3 = กำลังเช่า" style="rounded=1;whiteSpace=wrap;html=1;" parent="1" vertex="1">
          <mxGeometry x="-50" y="85" width="160" height="90" as="geometry" />
        </mxCell>
        <mxCell id="thZSINsI8utFb21n53lP-1" value="details_table" style="shape=table;startSize=30;container=1;collapsible=0;childLayout=tableLayout;strokeColor=#000000;fontSize=16;strokeWidth=2;fillColor=#e39426;" parent="1" vertex="1">
          <mxGeometry x="1350" y="200" width="462.00000000000045" height="150" as="geometry" />
        </mxCell>
        <mxCell id="thZSINsI8utFb21n53lP-2" style="shape=tableRow;horizontal=0;startSize=0;swimlaneHead=0;swimlaneBody=0;strokeColor=inherit;top=0;left=0;bottom=0;right=0;collapsible=0;dropTarget=0;fillColor=none;points=[[0,0.5],[1,0.5]];portConstraint=eastwest;fontSize=16;" parent="thZSINsI8utFb21n53lP-1" vertex="1">
          <mxGeometry y="30" width="462.00000000000045" height="40" as="geometry" />
        </mxCell>
        <mxCell id="thZSINsI8utFb21n53lP-3" value="Name" style="shape=partialRectangle;html=1;whiteSpace=wrap;connectable=0;overflow=hidden;top=1;left=1;bottom=1;right=1;pointerEvents=1;fontSize=16;fillColor=#E3E0E0;fillStyle=auto;strokeWidth=2;" parent="thZSINsI8utFb21n53lP-2" vertex="1">
          <mxGeometry width="153" height="40" as="geometry">
            <mxRectangle width="153" height="40" as="alternateBounds" />
          </mxGeometry>
        </mxCell>
        <mxCell id="thZSINsI8utFb21n53lP-4" value="Type" style="shape=partialRectangle;html=1;whiteSpace=wrap;connectable=0;overflow=hidden;top=1;left=1;bottom=1;right=1;pointerEvents=1;fontSize=16;fillColor=#E3E0E0;fillStyle=auto;strokeWidth=2;" parent="thZSINsI8utFb21n53lP-2" vertex="1">
          <mxGeometry x="153" width="107" height="40" as="geometry">
            <mxRectangle width="107" height="40" as="alternateBounds" />
          </mxGeometry>
        </mxCell>
        <mxCell id="thZSINsI8utFb21n53lP-5" value="Description" style="shape=partialRectangle;html=1;whiteSpace=wrap;connectable=0;overflow=hidden;top=1;left=1;bottom=1;right=1;pointerEvents=1;fontSize=16;fillColor=#E3E0E0;fillStyle=auto;strokeWidth=2;" parent="thZSINsI8utFb21n53lP-2" vertex="1">
          <mxGeometry x="260" width="202" height="40" as="geometry">
            <mxRectangle width="202" height="40" as="alternateBounds" />
          </mxGeometry>
        </mxCell>
        <mxCell id="thZSINsI8utFb21n53lP-6" style="shape=tableRow;horizontal=0;startSize=0;swimlaneHead=0;swimlaneBody=0;strokeColor=inherit;top=0;left=0;bottom=0;right=0;collapsible=0;dropTarget=0;fillColor=none;points=[[0,0.5],[1,0.5]];portConstraint=eastwest;fontSize=16;" parent="thZSINsI8utFb21n53lP-1" vertex="1">
          <mxGeometry y="70" width="462.00000000000045" height="40" as="geometry" />
        </mxCell>
        <mxCell id="thZSINsI8utFb21n53lP-7" value="id_details (PK)" style="shape=partialRectangle;html=1;whiteSpace=wrap;connectable=0;strokeColor=inherit;overflow=hidden;fillColor=none;top=0;left=0;bottom=0;right=0;pointerEvents=1;fontSize=16;" parent="thZSINsI8utFb21n53lP-6" vertex="1">
          <mxGeometry width="153" height="40" as="geometry">
            <mxRectangle width="153" height="40" as="alternateBounds" />
          </mxGeometry>
        </mxCell>
        <mxCell id="thZSINsI8utFb21n53lP-8" value="int (10)" style="shape=partialRectangle;html=1;whiteSpace=wrap;connectable=0;strokeColor=inherit;overflow=hidden;fillColor=none;top=0;left=0;bottom=0;right=0;pointerEvents=1;fontSize=16;" parent="thZSINsI8utFb21n53lP-6" vertex="1">
          <mxGeometry x="153" width="107" height="40" as="geometry">
            <mxRectangle width="107" height="40" as="alternateBounds" />
          </mxGeometry>
        </mxCell>
        <mxCell id="thZSINsI8utFb21n53lP-9" value="ไอดี รายละเอียด" style="shape=partialRectangle;html=1;whiteSpace=wrap;connectable=0;strokeColor=inherit;overflow=hidden;fillColor=none;top=0;left=0;bottom=0;right=0;pointerEvents=1;fontSize=16;" parent="thZSINsI8utFb21n53lP-6" vertex="1">
          <mxGeometry x="260" width="202" height="40" as="geometry">
            <mxRectangle width="202" height="40" as="alternateBounds" />
          </mxGeometry>
        </mxCell>
        <mxCell id="thZSINsI8utFb21n53lP-10" value="" style="shape=tableRow;horizontal=0;startSize=0;swimlaneHead=0;swimlaneBody=0;strokeColor=inherit;top=0;left=0;bottom=0;right=0;collapsible=0;dropTarget=0;fillColor=none;points=[[0,0.5],[1,0.5]];portConstraint=eastwest;fontSize=16;" parent="thZSINsI8utFb21n53lP-1" vertex="1">
          <mxGeometry y="110" width="462.00000000000045" height="40" as="geometry" />
        </mxCell>
        <mxCell id="thZSINsI8utFb21n53lP-11" value="text_details" style="shape=partialRectangle;html=1;whiteSpace=wrap;connectable=0;strokeColor=inherit;overflow=hidden;fillColor=none;top=0;left=0;bottom=0;right=0;pointerEvents=1;fontSize=16;" parent="thZSINsI8utFb21n53lP-10" vertex="1">
          <mxGeometry width="153" height="40" as="geometry">
            <mxRectangle width="153" height="40" as="alternateBounds" />
          </mxGeometry>
        </mxCell>
        <mxCell id="thZSINsI8utFb21n53lP-12" value="varchar (255)" style="shape=partialRectangle;html=1;whiteSpace=wrap;connectable=0;strokeColor=inherit;overflow=hidden;fillColor=none;top=0;left=0;bottom=0;right=0;pointerEvents=1;fontSize=16;" parent="thZSINsI8utFb21n53lP-10" vertex="1">
          <mxGeometry x="153" width="107" height="40" as="geometry">
            <mxRectangle width="107" height="40" as="alternateBounds" />
          </mxGeometry>
        </mxCell>
        <mxCell id="thZSINsI8utFb21n53lP-13" value="ข้อความรายละเอียด" style="shape=partialRectangle;html=1;whiteSpace=wrap;connectable=0;strokeColor=inherit;overflow=hidden;fillColor=none;top=0;left=0;bottom=0;right=0;pointerEvents=1;fontSize=16;" parent="thZSINsI8utFb21n53lP-10" vertex="1">
          <mxGeometry x="260" width="202" height="40" as="geometry">
            <mxRectangle width="202" height="40" as="alternateBounds" />
          </mxGeometry>
        </mxCell>
        <mxCell id="thZSINsI8utFb21n53lP-18" value="day_rent_table" style="shape=table;startSize=30;container=1;collapsible=0;childLayout=tableLayout;strokeColor=#000000;fontSize=16;strokeWidth=2;fillColor=#e39426;" parent="1" vertex="1">
          <mxGeometry x="1350" y="392.5" width="462.00000000000045" height="150" as="geometry" />
        </mxCell>
        <mxCell id="thZSINsI8utFb21n53lP-19" style="shape=tableRow;horizontal=0;startSize=0;swimlaneHead=0;swimlaneBody=0;strokeColor=inherit;top=0;left=0;bottom=0;right=0;collapsible=0;dropTarget=0;fillColor=none;points=[[0,0.5],[1,0.5]];portConstraint=eastwest;fontSize=16;" parent="thZSINsI8utFb21n53lP-18" vertex="1">
          <mxGeometry y="30" width="462.00000000000045" height="40" as="geometry" />
        </mxCell>
        <mxCell id="thZSINsI8utFb21n53lP-20" value="Name" style="shape=partialRectangle;html=1;whiteSpace=wrap;connectable=0;overflow=hidden;top=1;left=1;bottom=1;right=1;pointerEvents=1;fontSize=16;fillColor=#E3E0E0;fillStyle=auto;strokeWidth=2;" parent="thZSINsI8utFb21n53lP-19" vertex="1">
          <mxGeometry width="153" height="40" as="geometry">
            <mxRectangle width="153" height="40" as="alternateBounds" />
          </mxGeometry>
        </mxCell>
        <mxCell id="thZSINsI8utFb21n53lP-21" value="Type" style="shape=partialRectangle;html=1;whiteSpace=wrap;connectable=0;overflow=hidden;top=1;left=1;bottom=1;right=1;pointerEvents=1;fontSize=16;fillColor=#E3E0E0;fillStyle=auto;strokeWidth=2;" parent="thZSINsI8utFb21n53lP-19" vertex="1">
          <mxGeometry x="153" width="107" height="40" as="geometry">
            <mxRectangle width="107" height="40" as="alternateBounds" />
          </mxGeometry>
        </mxCell>
        <mxCell id="thZSINsI8utFb21n53lP-22" value="Description" style="shape=partialRectangle;html=1;whiteSpace=wrap;connectable=0;overflow=hidden;top=1;left=1;bottom=1;right=1;pointerEvents=1;fontSize=16;fillColor=#E3E0E0;fillStyle=auto;strokeWidth=2;" parent="thZSINsI8utFb21n53lP-19" vertex="1">
          <mxGeometry x="260" width="202" height="40" as="geometry">
            <mxRectangle width="202" height="40" as="alternateBounds" />
          </mxGeometry>
        </mxCell>
        <mxCell id="thZSINsI8utFb21n53lP-23" style="shape=tableRow;horizontal=0;startSize=0;swimlaneHead=0;swimlaneBody=0;strokeColor=inherit;top=0;left=0;bottom=0;right=0;collapsible=0;dropTarget=0;fillColor=none;points=[[0,0.5],[1,0.5]];portConstraint=eastwest;fontSize=16;" parent="thZSINsI8utFb21n53lP-18" vertex="1">
          <mxGeometry y="70" width="462.00000000000045" height="40" as="geometry" />
        </mxCell>
        <mxCell id="thZSINsI8utFb21n53lP-24" value="id_day_rent (PK)" style="shape=partialRectangle;html=1;whiteSpace=wrap;connectable=0;strokeColor=inherit;overflow=hidden;fillColor=none;top=0;left=0;bottom=0;right=0;pointerEvents=1;fontSize=16;" parent="thZSINsI8utFb21n53lP-23" vertex="1">
          <mxGeometry width="153" height="40" as="geometry">
            <mxRectangle width="153" height="40" as="alternateBounds" />
          </mxGeometry>
        </mxCell>
        <mxCell id="thZSINsI8utFb21n53lP-25" value="int (10)" style="shape=partialRectangle;html=1;whiteSpace=wrap;connectable=0;strokeColor=inherit;overflow=hidden;fillColor=none;top=0;left=0;bottom=0;right=0;pointerEvents=1;fontSize=16;" parent="thZSINsI8utFb21n53lP-23" vertex="1">
          <mxGeometry x="153" width="107" height="40" as="geometry">
            <mxRectangle width="107" height="40" as="alternateBounds" />
          </mxGeometry>
        </mxCell>
        <mxCell id="thZSINsI8utFb21n53lP-26" value="ไอดีจำนวนวันเช่า" style="shape=partialRectangle;html=1;whiteSpace=wrap;connectable=0;strokeColor=inherit;overflow=hidden;fillColor=none;top=0;left=0;bottom=0;right=0;pointerEvents=1;fontSize=16;" parent="thZSINsI8utFb21n53lP-23" vertex="1">
          <mxGeometry x="260" width="202" height="40" as="geometry">
            <mxRectangle width="202" height="40" as="alternateBounds" />
          </mxGeometry>
        </mxCell>
        <mxCell id="thZSINsI8utFb21n53lP-27" value="" style="shape=tableRow;horizontal=0;startSize=0;swimlaneHead=0;swimlaneBody=0;strokeColor=inherit;top=0;left=0;bottom=0;right=0;collapsible=0;dropTarget=0;fillColor=none;points=[[0,0.5],[1,0.5]];portConstraint=eastwest;fontSize=16;" parent="thZSINsI8utFb21n53lP-18" vertex="1">
          <mxGeometry y="110" width="462.00000000000045" height="40" as="geometry" />
        </mxCell>
        <mxCell id="thZSINsI8utFb21n53lP-28" value="day_rent" style="shape=partialRectangle;html=1;whiteSpace=wrap;connectable=0;strokeColor=inherit;overflow=hidden;fillColor=none;top=0;left=0;bottom=0;right=0;pointerEvents=1;fontSize=16;" parent="thZSINsI8utFb21n53lP-27" vertex="1">
          <mxGeometry width="153" height="40" as="geometry">
            <mxRectangle width="153" height="40" as="alternateBounds" />
          </mxGeometry>
        </mxCell>
        <mxCell id="thZSINsI8utFb21n53lP-29" value="int (10)" style="shape=partialRectangle;html=1;whiteSpace=wrap;connectable=0;strokeColor=inherit;overflow=hidden;fillColor=none;top=0;left=0;bottom=0;right=0;pointerEvents=1;fontSize=16;" parent="thZSINsI8utFb21n53lP-27" vertex="1">
          <mxGeometry x="153" width="107" height="40" as="geometry">
            <mxRectangle width="107" height="40" as="alternateBounds" />
          </mxGeometry>
        </mxCell>
        <mxCell id="thZSINsI8utFb21n53lP-30" value="จำนวนวัน" style="shape=partialRectangle;html=1;whiteSpace=wrap;connectable=0;strokeColor=inherit;overflow=hidden;fillColor=none;top=0;left=0;bottom=0;right=0;pointerEvents=1;fontSize=16;" parent="thZSINsI8utFb21n53lP-27" vertex="1">
          <mxGeometry x="260" width="202" height="40" as="geometry">
            <mxRectangle width="202" height="40" as="alternateBounds" />
          </mxGeometry>
        </mxCell>
        <mxCell id="6rLL0-xuiBq8NrOBir-f-1" value="stock_book_table" style="shape=table;startSize=30;container=1;collapsible=0;childLayout=tableLayout;strokeColor=#000000;fontSize=16;strokeWidth=2;fillColor=#73e273;" parent="1" vertex="1">
          <mxGeometry x="-540" y="159" width="462.00000000000045" height="270" as="geometry" />
        </mxCell>
        <mxCell id="6rLL0-xuiBq8NrOBir-f-2" style="shape=tableRow;horizontal=0;startSize=0;swimlaneHead=0;swimlaneBody=0;strokeColor=inherit;top=0;left=0;bottom=0;right=0;collapsible=0;dropTarget=0;fillColor=none;points=[[0,0.5],[1,0.5]];portConstraint=eastwest;fontSize=16;" parent="6rLL0-xuiBq8NrOBir-f-1" vertex="1">
          <mxGeometry y="30" width="462.00000000000045" height="40" as="geometry" />
        </mxCell>
        <mxCell id="6rLL0-xuiBq8NrOBir-f-3" value="Name" style="shape=partialRectangle;html=1;whiteSpace=wrap;connectable=0;overflow=hidden;top=1;left=1;bottom=1;right=1;pointerEvents=1;fontSize=16;fillColor=#E3E0E0;fillStyle=auto;strokeWidth=2;" parent="6rLL0-xuiBq8NrOBir-f-2" vertex="1">
          <mxGeometry width="153" height="40" as="geometry">
            <mxRectangle width="153" height="40" as="alternateBounds" />
          </mxGeometry>
        </mxCell>
        <mxCell id="6rLL0-xuiBq8NrOBir-f-4" value="Type" style="shape=partialRectangle;html=1;whiteSpace=wrap;connectable=0;overflow=hidden;top=1;left=1;bottom=1;right=1;pointerEvents=1;fontSize=16;fillColor=#E3E0E0;fillStyle=auto;strokeWidth=2;" parent="6rLL0-xuiBq8NrOBir-f-2" vertex="1">
          <mxGeometry x="153" width="107" height="40" as="geometry">
            <mxRectangle width="107" height="40" as="alternateBounds" />
          </mxGeometry>
        </mxCell>
        <mxCell id="6rLL0-xuiBq8NrOBir-f-5" value="Description" style="shape=partialRectangle;html=1;whiteSpace=wrap;connectable=0;overflow=hidden;top=1;left=1;bottom=1;right=1;pointerEvents=1;fontSize=16;fillColor=#E3E0E0;fillStyle=auto;strokeWidth=2;" parent="6rLL0-xuiBq8NrOBir-f-2" vertex="1">
          <mxGeometry x="260" width="202" height="40" as="geometry">
            <mxRectangle width="202" height="40" as="alternateBounds" />
          </mxGeometry>
        </mxCell>
        <mxCell id="6rLL0-xuiBq8NrOBir-f-6" style="shape=tableRow;horizontal=0;startSize=0;swimlaneHead=0;swimlaneBody=0;strokeColor=inherit;top=0;left=0;bottom=0;right=0;collapsible=0;dropTarget=0;fillColor=none;points=[[0,0.5],[1,0.5]];portConstraint=eastwest;fontSize=16;" parent="6rLL0-xuiBq8NrOBir-f-1" vertex="1">
          <mxGeometry y="70" width="462.00000000000045" height="40" as="geometry" />
        </mxCell>
        <mxCell id="6rLL0-xuiBq8NrOBir-f-7" value="id_stock (PK)" style="shape=partialRectangle;html=1;whiteSpace=wrap;connectable=0;strokeColor=inherit;overflow=hidden;fillColor=none;top=0;left=0;bottom=0;right=0;pointerEvents=1;fontSize=16;" parent="6rLL0-xuiBq8NrOBir-f-6" vertex="1">
          <mxGeometry width="153" height="40" as="geometry">
            <mxRectangle width="153" height="40" as="alternateBounds" />
          </mxGeometry>
        </mxCell>
        <mxCell id="6rLL0-xuiBq8NrOBir-f-8" value="int (10)" style="shape=partialRectangle;html=1;whiteSpace=wrap;connectable=0;strokeColor=inherit;overflow=hidden;fillColor=none;top=0;left=0;bottom=0;right=0;pointerEvents=1;fontSize=16;" parent="6rLL0-xuiBq8NrOBir-f-6" vertex="1">
          <mxGeometry x="153" width="107" height="40" as="geometry">
            <mxRectangle width="107" height="40" as="alternateBounds" />
          </mxGeometry>
        </mxCell>
        <mxCell id="6rLL0-xuiBq8NrOBir-f-9" value="ไอดี สต๊อก" style="shape=partialRectangle;html=1;whiteSpace=wrap;connectable=0;strokeColor=inherit;overflow=hidden;fillColor=none;top=0;left=0;bottom=0;right=0;pointerEvents=1;fontSize=16;" parent="6rLL0-xuiBq8NrOBir-f-6" vertex="1">
          <mxGeometry x="260" width="202" height="40" as="geometry">
            <mxRectangle width="202" height="40" as="alternateBounds" />
          </mxGeometry>
        </mxCell>
        <mxCell id="6rLL0-xuiBq8NrOBir-f-10" value="" style="shape=tableRow;horizontal=0;startSize=0;swimlaneHead=0;swimlaneBody=0;strokeColor=inherit;top=0;left=0;bottom=0;right=0;collapsible=0;dropTarget=0;fillColor=none;points=[[0,0.5],[1,0.5]];portConstraint=eastwest;fontSize=16;" parent="6rLL0-xuiBq8NrOBir-f-1" vertex="1">
          <mxGeometry y="110" width="462.00000000000045" height="40" as="geometry" />
        </mxCell>
        <mxCell id="6rLL0-xuiBq8NrOBir-f-11" value="id_book (FK)" style="shape=partialRectangle;html=1;whiteSpace=wrap;connectable=0;strokeColor=inherit;overflow=hidden;fillColor=none;top=0;left=0;bottom=0;right=0;pointerEvents=1;fontSize=16;" parent="6rLL0-xuiBq8NrOBir-f-10" vertex="1">
          <mxGeometry width="153" height="40" as="geometry">
            <mxRectangle width="153" height="40" as="alternateBounds" />
          </mxGeometry>
        </mxCell>
        <mxCell id="6rLL0-xuiBq8NrOBir-f-12" value="int (10)" style="shape=partialRectangle;html=1;whiteSpace=wrap;connectable=0;strokeColor=inherit;overflow=hidden;fillColor=none;top=0;left=0;bottom=0;right=0;pointerEvents=1;fontSize=16;" parent="6rLL0-xuiBq8NrOBir-f-10" vertex="1">
          <mxGeometry x="153" width="107" height="40" as="geometry">
            <mxRectangle width="107" height="40" as="alternateBounds" />
          </mxGeometry>
        </mxCell>
        <mxCell id="6rLL0-xuiBq8NrOBir-f-13" value="ไอดีหนังสือ" style="shape=partialRectangle;html=1;whiteSpace=wrap;connectable=0;strokeColor=inherit;overflow=hidden;fillColor=none;top=0;left=0;bottom=0;right=0;pointerEvents=1;fontSize=16;" parent="6rLL0-xuiBq8NrOBir-f-10" vertex="1">
          <mxGeometry x="260" width="202" height="40" as="geometry">
            <mxRectangle width="202" height="40" as="alternateBounds" />
          </mxGeometry>
        </mxCell>
        <mxCell id="6rLL0-xuiBq8NrOBir-f-14" style="shape=tableRow;horizontal=0;startSize=0;swimlaneHead=0;swimlaneBody=0;strokeColor=inherit;top=0;left=0;bottom=0;right=0;collapsible=0;dropTarget=0;fillColor=none;points=[[0,0.5],[1,0.5]];portConstraint=eastwest;fontSize=16;" parent="6rLL0-xuiBq8NrOBir-f-1" vertex="1">
          <mxGeometry y="150" width="462.00000000000045" height="40" as="geometry" />
        </mxCell>
        <mxCell id="6rLL0-xuiBq8NrOBir-f-15" value="id_number_" style="shape=partialRectangle;html=1;whiteSpace=wrap;connectable=0;strokeColor=inherit;overflow=hidden;fillColor=none;top=0;left=0;bottom=0;right=0;pointerEvents=1;fontSize=16;" parent="6rLL0-xuiBq8NrOBir-f-14" vertex="1">
          <mxGeometry width="153" height="40" as="geometry">
            <mxRectangle width="153" height="40" as="alternateBounds" />
          </mxGeometry>
        </mxCell>
        <mxCell id="6rLL0-xuiBq8NrOBir-f-16" value="varchar (100)" style="shape=partialRectangle;html=1;whiteSpace=wrap;connectable=0;strokeColor=inherit;overflow=hidden;fillColor=none;top=0;left=0;bottom=0;right=0;pointerEvents=1;fontSize=16;" parent="6rLL0-xuiBq8NrOBir-f-14" vertex="1">
          <mxGeometry x="153" width="107" height="40" as="geometry">
            <mxRectangle width="107" height="40" as="alternateBounds" />
          </mxGeometry>
        </mxCell>
        <mxCell id="6rLL0-xuiBq8NrOBir-f-17" value="รหัสประจำหนังสือ" style="shape=partialRectangle;html=1;whiteSpace=wrap;connectable=0;strokeColor=inherit;overflow=hidden;fillColor=none;top=0;left=0;bottom=0;right=0;pointerEvents=1;fontSize=16;" parent="6rLL0-xuiBq8NrOBir-f-14" vertex="1">
          <mxGeometry x="260" width="202" height="40" as="geometry">
            <mxRectangle width="202" height="40" as="alternateBounds" />
          </mxGeometry>
        </mxCell>
        <mxCell id="s1kGdinfte_OgxnHYLne-1" style="shape=tableRow;horizontal=0;startSize=0;swimlaneHead=0;swimlaneBody=0;strokeColor=inherit;top=0;left=0;bottom=0;right=0;collapsible=0;dropTarget=0;fillColor=none;points=[[0,0.5],[1,0.5]];portConstraint=eastwest;fontSize=16;" parent="6rLL0-xuiBq8NrOBir-f-1" vertex="1">
          <mxGeometry y="190" width="462.00000000000045" height="40" as="geometry" />
        </mxCell>
        <mxCell id="s1kGdinfte_OgxnHYLne-2" value="description" style="shape=partialRectangle;html=1;whiteSpace=wrap;connectable=0;strokeColor=inherit;overflow=hidden;fillColor=none;top=0;left=0;bottom=0;right=0;pointerEvents=1;fontSize=16;" parent="s1kGdinfte_OgxnHYLne-1" vertex="1">
          <mxGeometry width="153" height="40" as="geometry">
            <mxRectangle width="153" height="40" as="alternateBounds" />
          </mxGeometry>
        </mxCell>
        <mxCell id="s1kGdinfte_OgxnHYLne-3" value="varchar (255)" style="shape=partialRectangle;html=1;whiteSpace=wrap;connectable=0;strokeColor=inherit;overflow=hidden;fillColor=none;top=0;left=0;bottom=0;right=0;pointerEvents=1;fontSize=16;" parent="s1kGdinfte_OgxnHYLne-1" vertex="1">
          <mxGeometry x="153" width="107" height="40" as="geometry">
            <mxRectangle width="107" height="40" as="alternateBounds" />
          </mxGeometry>
        </mxCell>
        <mxCell id="s1kGdinfte_OgxnHYLne-4" value="รายละเอียดหนังสือ" style="shape=partialRectangle;html=1;whiteSpace=wrap;connectable=0;strokeColor=inherit;overflow=hidden;fillColor=none;top=0;left=0;bottom=0;right=0;pointerEvents=1;fontSize=16;" parent="s1kGdinfte_OgxnHYLne-1" vertex="1">
          <mxGeometry x="260" width="202" height="40" as="geometry">
            <mxRectangle width="202" height="40" as="alternateBounds" />
          </mxGeometry>
        </mxCell>
        <mxCell id="6rLL0-xuiBq8NrOBir-f-18" style="shape=tableRow;horizontal=0;startSize=0;swimlaneHead=0;swimlaneBody=0;strokeColor=inherit;top=0;left=0;bottom=0;right=0;collapsible=0;dropTarget=0;fillColor=none;points=[[0,0.5],[1,0.5]];portConstraint=eastwest;fontSize=16;" parent="6rLL0-xuiBq8NrOBir-f-1" vertex="1">
          <mxGeometry y="230" width="462.00000000000045" height="40" as="geometry" />
        </mxCell>
        <mxCell id="6rLL0-xuiBq8NrOBir-f-19" value="status_stock" style="shape=partialRectangle;html=1;whiteSpace=wrap;connectable=0;strokeColor=inherit;overflow=hidden;fillColor=none;top=0;left=0;bottom=0;right=0;pointerEvents=1;fontSize=16;" parent="6rLL0-xuiBq8NrOBir-f-18" vertex="1">
          <mxGeometry width="153" height="40" as="geometry">
            <mxRectangle width="153" height="40" as="alternateBounds" />
          </mxGeometry>
        </mxCell>
        <mxCell id="6rLL0-xuiBq8NrOBir-f-20" value="int (10)" style="shape=partialRectangle;html=1;whiteSpace=wrap;connectable=0;strokeColor=inherit;overflow=hidden;fillColor=none;top=0;left=0;bottom=0;right=0;pointerEvents=1;fontSize=16;" parent="6rLL0-xuiBq8NrOBir-f-18" vertex="1">
          <mxGeometry x="153" width="107" height="40" as="geometry">
            <mxRectangle width="107" height="40" as="alternateBounds" />
          </mxGeometry>
        </mxCell>
        <mxCell id="6rLL0-xuiBq8NrOBir-f-21" value="สถานะหนังสือ" style="shape=partialRectangle;html=1;whiteSpace=wrap;connectable=0;strokeColor=inherit;overflow=hidden;fillColor=none;top=0;left=0;bottom=0;right=0;pointerEvents=1;fontSize=16;" parent="6rLL0-xuiBq8NrOBir-f-18" vertex="1">
          <mxGeometry x="260" width="202" height="40" as="geometry">
            <mxRectangle width="202" height="40" as="alternateBounds" />
          </mxGeometry>
        </mxCell>
        <mxCell id="s1kGdinfte_OgxnHYLne-5" style="edgeStyle=orthogonalEdgeStyle;rounded=0;orthogonalLoop=1;jettySize=auto;html=1;entryX=0;entryY=0.5;entryDx=0;entryDy=0;strokeWidth=2;endArrow=none;endFill=0;" parent="1" source="6rLL0-xuiBq8NrOBir-f-44" target="6rLL0-xuiBq8NrOBir-f-14" edge="1">
          <mxGeometry relative="1" as="geometry" />
        </mxCell>
        <mxCell id="6rLL0-xuiBq8NrOBir-f-44" value="id_book + count stock" style="rounded=1;whiteSpace=wrap;html=1;" parent="1" vertex="1">
          <mxGeometry x="-730" y="276.5" width="140" height="105" as="geometry" />
        </mxCell>
        <mxCell id="6rLL0-xuiBq8NrOBir-f-46" style="edgeStyle=orthogonalEdgeStyle;rounded=0;orthogonalLoop=1;jettySize=auto;html=1;exitX=1;exitY=0.5;exitDx=0;exitDy=0;entryX=0;entryY=0.5;entryDx=0;entryDy=0;strokeWidth=2;endArrow=none;endFill=0;" parent="1" source="6rLL0-xuiBq8NrOBir-f-10" target="9VO5_gYoO6aW6VXsWO2F-56" edge="1">
          <mxGeometry relative="1" as="geometry" />
        </mxCell>
        <mxCell id="6rLL0-xuiBq8NrOBir-f-47" value="เมื่อจำนวน id_book ไม่มีหรือ สถานะ status_stock ไม่ว่าง" style="rounded=1;whiteSpace=wrap;html=1;" parent="1" vertex="1">
          <mxGeometry x="-90" y="437.5" width="140" height="105" as="geometry" />
        </mxCell>
        <mxCell id="6rLL0-xuiBq8NrOBir-f-48" style="edgeStyle=orthogonalEdgeStyle;rounded=0;orthogonalLoop=1;jettySize=auto;html=1;exitX=0;exitY=0.5;exitDx=0;exitDy=0;entryX=0.5;entryY=0;entryDx=0;entryDy=0;strokeWidth=2;endArrow=none;endFill=0;" parent="1" source="6rLL0-xuiBq8NrOBir-f-18" target="6rLL0-xuiBq8NrOBir-f-49" edge="1">
          <mxGeometry relative="1" as="geometry">
            <mxPoint x="-580" y="459.99999999999955" as="targetPoint" />
          </mxGeometry>
        </mxCell>
        <mxCell id="6rLL0-xuiBq8NrOBir-f-49" value="สถานะหนังสือ&lt;br&gt;0 = ไม่พร้อมใช้งาน&lt;br&gt;1 = พร้อมใช้งาน&lt;br&gt;2 = กำลังเช่า&lt;br&gt;3 = หนังสือหาย&lt;br&gt;4 = หนังสือชำรุด&lt;br&gt;5 = หนังสือไม่สามารถใช้ต่อได้&lt;br&gt;6 = จอง" style="rounded=1;whiteSpace=wrap;html=1;" parent="1" vertex="1">
          <mxGeometry x="-660" y="460" width="190" height="130" as="geometry" />
        </mxCell>
        <mxCell id="_AwWW0KDJJqJu4oTe6Fr-9" style="edgeStyle=orthogonalEdgeStyle;rounded=0;orthogonalLoop=1;jettySize=auto;html=1;exitX=0;exitY=0.5;exitDx=0;exitDy=0;entryX=0;entryY=0.5;entryDx=0;entryDy=0;strokeWidth=2;endArrow=none;endFill=0;" parent="1" source="JGCRdWKl2Iys8zLppP1J-6" target="lthAIileWM3t9Atvukou-1" edge="1">
          <mxGeometry relative="1" as="geometry" />
        </mxCell>
        <mxCell id="JGCRdWKl2Iys8zLppP1J-1" value="promotio_table" style="shape=table;startSize=30;container=1;collapsible=0;childLayout=tableLayout;strokeColor=#000000;fontSize=16;strokeWidth=2;fillColor=#e39426;" parent="1" vertex="1">
          <mxGeometry x="827" y="720" width="489" height="430" as="geometry" />
        </mxCell>
        <mxCell id="JGCRdWKl2Iys8zLppP1J-2" style="shape=tableRow;horizontal=0;startSize=0;swimlaneHead=0;swimlaneBody=0;strokeColor=inherit;top=0;left=0;bottom=0;right=0;collapsible=0;dropTarget=0;fillColor=none;points=[[0,0.5],[1,0.5]];portConstraint=eastwest;fontSize=16;" parent="JGCRdWKl2Iys8zLppP1J-1" vertex="1">
          <mxGeometry y="30" width="489" height="40" as="geometry" />
        </mxCell>
        <mxCell id="JGCRdWKl2Iys8zLppP1J-3" value="Name" style="shape=partialRectangle;html=1;whiteSpace=wrap;connectable=0;overflow=hidden;top=1;left=1;bottom=1;right=1;pointerEvents=1;fontSize=16;fillColor=#E3E0E0;fillStyle=auto;strokeWidth=2;" parent="JGCRdWKl2Iys8zLppP1J-2" vertex="1">
          <mxGeometry width="162" height="40" as="geometry">
            <mxRectangle width="162" height="40" as="alternateBounds" />
          </mxGeometry>
        </mxCell>
        <mxCell id="JGCRdWKl2Iys8zLppP1J-4" value="Type" style="shape=partialRectangle;html=1;whiteSpace=wrap;connectable=0;overflow=hidden;top=1;left=1;bottom=1;right=1;pointerEvents=1;fontSize=16;fillColor=#E3E0E0;fillStyle=auto;strokeWidth=2;" parent="JGCRdWKl2Iys8zLppP1J-2" vertex="1">
          <mxGeometry x="162" width="113" height="40" as="geometry">
            <mxRectangle width="113" height="40" as="alternateBounds" />
          </mxGeometry>
        </mxCell>
        <mxCell id="JGCRdWKl2Iys8zLppP1J-5" value="Description" style="shape=partialRectangle;html=1;whiteSpace=wrap;connectable=0;overflow=hidden;top=1;left=1;bottom=1;right=1;pointerEvents=1;fontSize=16;fillColor=#E3E0E0;fillStyle=auto;strokeWidth=2;" parent="JGCRdWKl2Iys8zLppP1J-2" vertex="1">
          <mxGeometry x="275" width="214" height="40" as="geometry">
            <mxRectangle width="214" height="40" as="alternateBounds" />
          </mxGeometry>
        </mxCell>
        <mxCell id="JGCRdWKl2Iys8zLppP1J-6" style="shape=tableRow;horizontal=0;startSize=0;swimlaneHead=0;swimlaneBody=0;strokeColor=inherit;top=0;left=0;bottom=0;right=0;collapsible=0;dropTarget=0;fillColor=none;points=[[0,0.5],[1,0.5]];portConstraint=eastwest;fontSize=16;" parent="JGCRdWKl2Iys8zLppP1J-1" vertex="1">
          <mxGeometry y="70" width="489" height="40" as="geometry" />
        </mxCell>
        <mxCell id="JGCRdWKl2Iys8zLppP1J-7" value="id_promotion (PK)" style="shape=partialRectangle;html=1;whiteSpace=wrap;connectable=0;strokeColor=inherit;overflow=hidden;fillColor=none;top=0;left=0;bottom=0;right=0;pointerEvents=1;fontSize=16;" parent="JGCRdWKl2Iys8zLppP1J-6" vertex="1">
          <mxGeometry width="162" height="40" as="geometry">
            <mxRectangle width="162" height="40" as="alternateBounds" />
          </mxGeometry>
        </mxCell>
        <mxCell id="JGCRdWKl2Iys8zLppP1J-8" value="int (10)" style="shape=partialRectangle;html=1;whiteSpace=wrap;connectable=0;strokeColor=inherit;overflow=hidden;fillColor=none;top=0;left=0;bottom=0;right=0;pointerEvents=1;fontSize=16;" parent="JGCRdWKl2Iys8zLppP1J-6" vertex="1">
          <mxGeometry x="162" width="113" height="40" as="geometry">
            <mxRectangle width="113" height="40" as="alternateBounds" />
          </mxGeometry>
        </mxCell>
        <mxCell id="JGCRdWKl2Iys8zLppP1J-9" value="ไอดีโปรโมชั่นแคล" style="shape=partialRectangle;html=1;whiteSpace=wrap;connectable=0;strokeColor=inherit;overflow=hidden;fillColor=none;top=0;left=0;bottom=0;right=0;pointerEvents=1;fontSize=16;" parent="JGCRdWKl2Iys8zLppP1J-6" vertex="1">
          <mxGeometry x="275" width="214" height="40" as="geometry">
            <mxRectangle width="214" height="40" as="alternateBounds" />
          </mxGeometry>
        </mxCell>
        <mxCell id="JGCRdWKl2Iys8zLppP1J-10" value="" style="shape=tableRow;horizontal=0;startSize=0;swimlaneHead=0;swimlaneBody=0;strokeColor=inherit;top=0;left=0;bottom=0;right=0;collapsible=0;dropTarget=0;fillColor=none;points=[[0,0.5],[1,0.5]];portConstraint=eastwest;fontSize=16;" parent="JGCRdWKl2Iys8zLppP1J-1" vertex="1">
          <mxGeometry y="110" width="489" height="40" as="geometry" />
        </mxCell>
        <mxCell id="JGCRdWKl2Iys8zLppP1J-11" value="details" style="shape=partialRectangle;html=1;whiteSpace=wrap;connectable=0;strokeColor=inherit;overflow=hidden;fillColor=none;top=0;left=0;bottom=0;right=0;pointerEvents=1;fontSize=16;" parent="JGCRdWKl2Iys8zLppP1J-10" vertex="1">
          <mxGeometry width="162" height="40" as="geometry">
            <mxRectangle width="162" height="40" as="alternateBounds" />
          </mxGeometry>
        </mxCell>
        <mxCell id="JGCRdWKl2Iys8zLppP1J-12" value="text" style="shape=partialRectangle;html=1;whiteSpace=wrap;connectable=0;strokeColor=inherit;overflow=hidden;fillColor=none;top=0;left=0;bottom=0;right=0;pointerEvents=1;fontSize=16;" parent="JGCRdWKl2Iys8zLppP1J-10" vertex="1">
          <mxGeometry x="162" width="113" height="40" as="geometry">
            <mxRectangle width="113" height="40" as="alternateBounds" />
          </mxGeometry>
        </mxCell>
        <mxCell id="JGCRdWKl2Iys8zLppP1J-13" value="รายละเอียดโปร" style="shape=partialRectangle;html=1;whiteSpace=wrap;connectable=0;strokeColor=inherit;overflow=hidden;fillColor=none;top=0;left=0;bottom=0;right=0;pointerEvents=1;fontSize=16;" parent="JGCRdWKl2Iys8zLppP1J-10" vertex="1">
          <mxGeometry x="275" width="214" height="40" as="geometry">
            <mxRectangle width="214" height="40" as="alternateBounds" />
          </mxGeometry>
        </mxCell>
        <mxCell id="JGCRdWKl2Iys8zLppP1J-14" style="shape=tableRow;horizontal=0;startSize=0;swimlaneHead=0;swimlaneBody=0;strokeColor=inherit;top=0;left=0;bottom=0;right=0;collapsible=0;dropTarget=0;fillColor=none;points=[[0,0.5],[1,0.5]];portConstraint=eastwest;fontSize=16;" parent="JGCRdWKl2Iys8zLppP1J-1" vertex="1">
          <mxGeometry y="150" width="489" height="40" as="geometry" />
        </mxCell>
        <mxCell id="JGCRdWKl2Iys8zLppP1J-15" value="type_promotion" style="shape=partialRectangle;html=1;whiteSpace=wrap;connectable=0;strokeColor=inherit;overflow=hidden;fillColor=none;top=0;left=0;bottom=0;right=0;pointerEvents=1;fontSize=16;" parent="JGCRdWKl2Iys8zLppP1J-14" vertex="1">
          <mxGeometry width="162" height="40" as="geometry">
            <mxRectangle width="162" height="40" as="alternateBounds" />
          </mxGeometry>
        </mxCell>
        <mxCell id="JGCRdWKl2Iys8zLppP1J-16" value="int (10)" style="shape=partialRectangle;html=1;whiteSpace=wrap;connectable=0;strokeColor=inherit;overflow=hidden;fillColor=none;top=0;left=0;bottom=0;right=0;pointerEvents=1;fontSize=16;" parent="JGCRdWKl2Iys8zLppP1J-14" vertex="1">
          <mxGeometry x="162" width="113" height="40" as="geometry">
            <mxRectangle width="113" height="40" as="alternateBounds" />
          </mxGeometry>
        </mxCell>
        <mxCell id="JGCRdWKl2Iys8zLppP1J-17" value="ประเภทโปรโมชั่น" style="shape=partialRectangle;html=1;whiteSpace=wrap;connectable=0;strokeColor=inherit;overflow=hidden;fillColor=none;top=0;left=0;bottom=0;right=0;pointerEvents=1;fontSize=16;" parent="JGCRdWKl2Iys8zLppP1J-14" vertex="1">
          <mxGeometry x="275" width="214" height="40" as="geometry">
            <mxRectangle width="214" height="40" as="alternateBounds" />
          </mxGeometry>
        </mxCell>
        <mxCell id="JGCRdWKl2Iys8zLppP1J-38" style="shape=tableRow;horizontal=0;startSize=0;swimlaneHead=0;swimlaneBody=0;strokeColor=inherit;top=0;left=0;bottom=0;right=0;collapsible=0;dropTarget=0;fillColor=none;points=[[0,0.5],[1,0.5]];portConstraint=eastwest;fontSize=16;" parent="JGCRdWKl2Iys8zLppP1J-1" vertex="1">
          <mxGeometry y="190" width="489" height="40" as="geometry" />
        </mxCell>
        <mxCell id="JGCRdWKl2Iys8zLppP1J-39" value="id_book_cat" style="shape=partialRectangle;html=1;whiteSpace=wrap;connectable=0;strokeColor=inherit;overflow=hidden;fillColor=none;top=0;left=0;bottom=0;right=0;pointerEvents=1;fontSize=16;" parent="JGCRdWKl2Iys8zLppP1J-38" vertex="1">
          <mxGeometry width="162" height="40" as="geometry">
            <mxRectangle width="162" height="40" as="alternateBounds" />
          </mxGeometry>
        </mxCell>
        <mxCell id="JGCRdWKl2Iys8zLppP1J-40" value="int (10)" style="shape=partialRectangle;html=1;whiteSpace=wrap;connectable=0;strokeColor=inherit;overflow=hidden;fillColor=none;top=0;left=0;bottom=0;right=0;pointerEvents=1;fontSize=16;" parent="JGCRdWKl2Iys8zLppP1J-38" vertex="1">
          <mxGeometry x="162" width="113" height="40" as="geometry">
            <mxRectangle width="113" height="40" as="alternateBounds" />
          </mxGeometry>
        </mxCell>
        <mxCell id="JGCRdWKl2Iys8zLppP1J-41" value="-" style="shape=partialRectangle;html=1;whiteSpace=wrap;connectable=0;strokeColor=inherit;overflow=hidden;fillColor=none;top=0;left=0;bottom=0;right=0;pointerEvents=1;fontSize=16;" parent="JGCRdWKl2Iys8zLppP1J-38" vertex="1">
          <mxGeometry x="275" width="214" height="40" as="geometry">
            <mxRectangle width="214" height="40" as="alternateBounds" />
          </mxGeometry>
        </mxCell>
        <mxCell id="JGCRdWKl2Iys8zLppP1J-18" style="shape=tableRow;horizontal=0;startSize=0;swimlaneHead=0;swimlaneBody=0;strokeColor=inherit;top=0;left=0;bottom=0;right=0;collapsible=0;dropTarget=0;fillColor=none;points=[[0,0.5],[1,0.5]];portConstraint=eastwest;fontSize=16;" parent="JGCRdWKl2Iys8zLppP1J-1" vertex="1">
          <mxGeometry y="230" width="489" height="40" as="geometry" />
        </mxCell>
        <mxCell id="JGCRdWKl2Iys8zLppP1J-19" value="number_cal" style="shape=partialRectangle;html=1;whiteSpace=wrap;connectable=0;strokeColor=inherit;overflow=hidden;fillColor=none;top=0;left=0;bottom=0;right=0;pointerEvents=1;fontSize=16;" parent="JGCRdWKl2Iys8zLppP1J-18" vertex="1">
          <mxGeometry width="162" height="40" as="geometry">
            <mxRectangle width="162" height="40" as="alternateBounds" />
          </mxGeometry>
        </mxCell>
        <mxCell id="JGCRdWKl2Iys8zLppP1J-20" value="int (100)" style="shape=partialRectangle;html=1;whiteSpace=wrap;connectable=0;strokeColor=inherit;overflow=hidden;fillColor=none;top=0;left=0;bottom=0;right=0;pointerEvents=1;fontSize=16;" parent="JGCRdWKl2Iys8zLppP1J-18" vertex="1">
          <mxGeometry x="162" width="113" height="40" as="geometry">
            <mxRectangle width="113" height="40" as="alternateBounds" />
          </mxGeometry>
        </mxCell>
        <mxCell id="JGCRdWKl2Iys8zLppP1J-21" value="ตัวเลขที่กรอกลงไป" style="shape=partialRectangle;html=1;whiteSpace=wrap;connectable=0;strokeColor=inherit;overflow=hidden;fillColor=none;top=0;left=0;bottom=0;right=0;pointerEvents=1;fontSize=16;" parent="JGCRdWKl2Iys8zLppP1J-18" vertex="1">
          <mxGeometry x="275" width="214" height="40" as="geometry">
            <mxRectangle width="214" height="40" as="alternateBounds" />
          </mxGeometry>
        </mxCell>
        <mxCell id="JGCRdWKl2Iys8zLppP1J-24" style="shape=tableRow;horizontal=0;startSize=0;swimlaneHead=0;swimlaneBody=0;strokeColor=inherit;top=0;left=0;bottom=0;right=0;collapsible=0;dropTarget=0;fillColor=none;points=[[0,0.5],[1,0.5]];portConstraint=eastwest;fontSize=16;" parent="JGCRdWKl2Iys8zLppP1J-1" vertex="1">
          <mxGeometry y="270" width="489" height="40" as="geometry" />
        </mxCell>
        <mxCell id="JGCRdWKl2Iys8zLppP1J-25" value="type_sale" style="shape=partialRectangle;html=1;whiteSpace=wrap;connectable=0;strokeColor=inherit;overflow=hidden;fillColor=none;top=0;left=0;bottom=0;right=0;pointerEvents=1;fontSize=16;" parent="JGCRdWKl2Iys8zLppP1J-24" vertex="1">
          <mxGeometry width="162" height="40" as="geometry">
            <mxRectangle width="162" height="40" as="alternateBounds" />
          </mxGeometry>
        </mxCell>
        <mxCell id="JGCRdWKl2Iys8zLppP1J-26" value="int (10)" style="shape=partialRectangle;html=1;whiteSpace=wrap;connectable=0;strokeColor=inherit;overflow=hidden;fillColor=none;top=0;left=0;bottom=0;right=0;pointerEvents=1;fontSize=16;" parent="JGCRdWKl2Iys8zLppP1J-24" vertex="1">
          <mxGeometry x="162" width="113" height="40" as="geometry">
            <mxRectangle width="113" height="40" as="alternateBounds" />
          </mxGeometry>
        </mxCell>
        <mxCell id="JGCRdWKl2Iys8zLppP1J-27" value="ประเภทการลด" style="shape=partialRectangle;html=1;whiteSpace=wrap;connectable=0;strokeColor=inherit;overflow=hidden;fillColor=none;top=0;left=0;bottom=0;right=0;pointerEvents=1;fontSize=16;" parent="JGCRdWKl2Iys8zLppP1J-24" vertex="1">
          <mxGeometry x="275" width="214" height="40" as="geometry">
            <mxRectangle width="214" height="40" as="alternateBounds" />
          </mxGeometry>
        </mxCell>
        <mxCell id="JGCRdWKl2Iys8zLppP1J-30" style="shape=tableRow;horizontal=0;startSize=0;swimlaneHead=0;swimlaneBody=0;strokeColor=inherit;top=0;left=0;bottom=0;right=0;collapsible=0;dropTarget=0;fillColor=none;points=[[0,0.5],[1,0.5]];portConstraint=eastwest;fontSize=16;" parent="JGCRdWKl2Iys8zLppP1J-1" vertex="1">
          <mxGeometry y="310" width="489" height="40" as="geometry" />
        </mxCell>
        <mxCell id="JGCRdWKl2Iys8zLppP1J-31" value="date_end" style="shape=partialRectangle;html=1;whiteSpace=wrap;connectable=0;strokeColor=inherit;overflow=hidden;fillColor=none;top=0;left=0;bottom=0;right=0;pointerEvents=1;fontSize=16;" parent="JGCRdWKl2Iys8zLppP1J-30" vertex="1">
          <mxGeometry width="162" height="40" as="geometry">
            <mxRectangle width="162" height="40" as="alternateBounds" />
          </mxGeometry>
        </mxCell>
        <mxCell id="JGCRdWKl2Iys8zLppP1J-32" value="date" style="shape=partialRectangle;html=1;whiteSpace=wrap;connectable=0;strokeColor=inherit;overflow=hidden;fillColor=none;top=0;left=0;bottom=0;right=0;pointerEvents=1;fontSize=16;" parent="JGCRdWKl2Iys8zLppP1J-30" vertex="1">
          <mxGeometry x="162" width="113" height="40" as="geometry">
            <mxRectangle width="113" height="40" as="alternateBounds" />
          </mxGeometry>
        </mxCell>
        <mxCell id="JGCRdWKl2Iys8zLppP1J-33" value="วันที่สิ้นสุดโปร" style="shape=partialRectangle;html=1;whiteSpace=wrap;connectable=0;strokeColor=inherit;overflow=hidden;fillColor=none;top=0;left=0;bottom=0;right=0;pointerEvents=1;fontSize=16;" parent="JGCRdWKl2Iys8zLppP1J-30" vertex="1">
          <mxGeometry x="275" width="214" height="40" as="geometry">
            <mxRectangle width="214" height="40" as="alternateBounds" />
          </mxGeometry>
        </mxCell>
        <mxCell id="JGCRdWKl2Iys8zLppP1J-34" style="shape=tableRow;horizontal=0;startSize=0;swimlaneHead=0;swimlaneBody=0;strokeColor=inherit;top=0;left=0;bottom=0;right=0;collapsible=0;dropTarget=0;fillColor=none;points=[[0,0.5],[1,0.5]];portConstraint=eastwest;fontSize=16;" parent="JGCRdWKl2Iys8zLppP1J-1" vertex="1">
          <mxGeometry y="350" width="489" height="40" as="geometry" />
        </mxCell>
        <mxCell id="JGCRdWKl2Iys8zLppP1J-35" value="status" style="shape=partialRectangle;html=1;whiteSpace=wrap;connectable=0;strokeColor=inherit;overflow=hidden;fillColor=none;top=0;left=0;bottom=0;right=0;pointerEvents=1;fontSize=16;" parent="JGCRdWKl2Iys8zLppP1J-34" vertex="1">
          <mxGeometry width="162" height="40" as="geometry">
            <mxRectangle width="162" height="40" as="alternateBounds" />
          </mxGeometry>
        </mxCell>
        <mxCell id="JGCRdWKl2Iys8zLppP1J-36" value="int (10)" style="shape=partialRectangle;html=1;whiteSpace=wrap;connectable=0;strokeColor=inherit;overflow=hidden;fillColor=none;top=0;left=0;bottom=0;right=0;pointerEvents=1;fontSize=16;" parent="JGCRdWKl2Iys8zLppP1J-34" vertex="1">
          <mxGeometry x="162" width="113" height="40" as="geometry">
            <mxRectangle width="113" height="40" as="alternateBounds" />
          </mxGeometry>
        </mxCell>
        <mxCell id="JGCRdWKl2Iys8zLppP1J-37" value="สถานะ [1] ใช้งาน , [0] ปิด" style="shape=partialRectangle;html=1;whiteSpace=wrap;connectable=0;strokeColor=inherit;overflow=hidden;fillColor=none;top=0;left=0;bottom=0;right=0;pointerEvents=1;fontSize=16;" parent="JGCRdWKl2Iys8zLppP1J-34" vertex="1">
          <mxGeometry x="275" width="214" height="40" as="geometry">
            <mxRectangle width="214" height="40" as="alternateBounds" />
          </mxGeometry>
        </mxCell>
        <mxCell id="JGCRdWKl2Iys8zLppP1J-44" style="shape=tableRow;horizontal=0;startSize=0;swimlaneHead=0;swimlaneBody=0;strokeColor=inherit;top=0;left=0;bottom=0;right=0;collapsible=0;dropTarget=0;fillColor=none;points=[[0,0.5],[1,0.5]];portConstraint=eastwest;fontSize=16;" parent="JGCRdWKl2Iys8zLppP1J-1" vertex="1">
          <mxGeometry y="390" width="489" height="40" as="geometry" />
        </mxCell>
        <mxCell id="JGCRdWKl2Iys8zLppP1J-45" value="image_promotion" style="shape=partialRectangle;html=1;whiteSpace=wrap;connectable=0;strokeColor=inherit;overflow=hidden;fillColor=none;top=0;left=0;bottom=0;right=0;pointerEvents=1;fontSize=16;" parent="JGCRdWKl2Iys8zLppP1J-44" vertex="1">
          <mxGeometry width="162" height="40" as="geometry">
            <mxRectangle width="162" height="40" as="alternateBounds" />
          </mxGeometry>
        </mxCell>
        <mxCell id="JGCRdWKl2Iys8zLppP1J-46" value="longtext" style="shape=partialRectangle;html=1;whiteSpace=wrap;connectable=0;strokeColor=inherit;overflow=hidden;fillColor=none;top=0;left=0;bottom=0;right=0;pointerEvents=1;fontSize=16;" parent="JGCRdWKl2Iys8zLppP1J-44" vertex="1">
          <mxGeometry x="162" width="113" height="40" as="geometry">
            <mxRectangle width="113" height="40" as="alternateBounds" />
          </mxGeometry>
        </mxCell>
        <mxCell id="JGCRdWKl2Iys8zLppP1J-47" value="รูปภาพโปรโมชั่น" style="shape=partialRectangle;html=1;whiteSpace=wrap;connectable=0;strokeColor=inherit;overflow=hidden;fillColor=none;top=0;left=0;bottom=0;right=0;pointerEvents=1;fontSize=16;" parent="JGCRdWKl2Iys8zLppP1J-44" vertex="1">
          <mxGeometry x="275" width="214" height="40" as="geometry">
            <mxRectangle width="214" height="40" as="alternateBounds" />
          </mxGeometry>
        </mxCell>
        <mxCell id="JGCRdWKl2Iys8zLppP1J-23" style="edgeStyle=orthogonalEdgeStyle;rounded=0;orthogonalLoop=1;jettySize=auto;html=1;" parent="1" source="JGCRdWKl2Iys8zLppP1J-22" target="JGCRdWKl2Iys8zLppP1J-14" edge="1">
          <mxGeometry relative="1" as="geometry" />
        </mxCell>
        <mxCell id="JGCRdWKl2Iys8zLppP1J-22" value="ประเภท&lt;br&gt;1 - ลดหนังสือ&lt;br&gt;2 - ลดหมวดหมู่&lt;br&gt;3 - เช่าครบ /ครั้ง&lt;br&gt;4 -&amp;nbsp;บิลเช่ามากกว่าหรือเท่า /เล่ม" style="rounded=1;whiteSpace=wrap;html=1;" parent="1" vertex="1">
          <mxGeometry x="1380" y="810" width="210" height="86.25" as="geometry" />
        </mxCell>
        <mxCell id="JGCRdWKl2Iys8zLppP1J-29" style="edgeStyle=orthogonalEdgeStyle;rounded=0;orthogonalLoop=1;jettySize=auto;html=1;entryX=1;entryY=0.5;entryDx=0;entryDy=0;" parent="1" source="JGCRdWKl2Iys8zLppP1J-28" target="JGCRdWKl2Iys8zLppP1J-24" edge="1">
          <mxGeometry relative="1" as="geometry" />
        </mxCell>
        <mxCell id="JGCRdWKl2Iys8zLppP1J-28" value="ประเภทการลด&lt;br&gt;1 - คิด-&lt;br&gt;2 - คิด %" style="rounded=1;whiteSpace=wrap;html=1;" parent="1" vertex="1">
          <mxGeometry x="1367" y="983.75" width="140" height="52.5" as="geometry" />
        </mxCell>
        <mxCell id="JGCRdWKl2Iys8zLppP1J-43" style="edgeStyle=orthogonalEdgeStyle;rounded=0;orthogonalLoop=1;jettySize=auto;html=1;entryX=1;entryY=0.5;entryDx=0;entryDy=0;" parent="1" source="JGCRdWKl2Iys8zLppP1J-42" target="JGCRdWKl2Iys8zLppP1J-38" edge="1">
          <mxGeometry relative="1" as="geometry" />
        </mxCell>
        <mxCell id="JGCRdWKl2Iys8zLppP1J-42" value="ถ้าเลือกประเภท 1 = ไอดีหนังสือ&lt;br&gt;ถ้าเลือกประเภท 2 = ไอดีหมวดหมู่&lt;br&gt;ถ้าเลือกประเภท 3 = จำนวนเช่าครบ...ครั้ง&lt;br&gt;ถ้าเลือกประเภท 4 = ในรายการเช่าหนังสือมีมากกว่า....เล่ม" style="rounded=1;whiteSpace=wrap;html=1;" parent="1" vertex="1">
          <mxGeometry x="1532" y="903.75" width="260" height="96.25" as="geometry" />
        </mxCell>
        <mxCell id="Bp53cEUUAUtTLwCxKNym-1" value="activity_log_table" style="shape=table;startSize=30;container=1;collapsible=0;childLayout=tableLayout;strokeColor=#000000;fontSize=16;strokeWidth=2;fillColor=#ff8a8a;" parent="1" vertex="1">
          <mxGeometry x="279.99999999999994" y="-620" width="500.00000000000045" height="310" as="geometry" />
        </mxCell>
        <mxCell id="Bp53cEUUAUtTLwCxKNym-2" style="shape=tableRow;horizontal=0;startSize=0;swimlaneHead=0;swimlaneBody=0;strokeColor=inherit;top=0;left=0;bottom=0;right=0;collapsible=0;dropTarget=0;fillColor=none;points=[[0,0.5],[1,0.5]];portConstraint=eastwest;fontSize=16;" parent="Bp53cEUUAUtTLwCxKNym-1" vertex="1">
          <mxGeometry y="30" width="500.00000000000045" height="40" as="geometry" />
        </mxCell>
        <mxCell id="Bp53cEUUAUtTLwCxKNym-3" value="Name" style="shape=partialRectangle;html=1;whiteSpace=wrap;connectable=0;overflow=hidden;top=1;left=1;bottom=1;right=1;pointerEvents=1;fontSize=16;fillColor=#E3E0E0;fillStyle=auto;strokeWidth=2;" parent="Bp53cEUUAUtTLwCxKNym-2" vertex="1">
          <mxGeometry width="153" height="40" as="geometry">
            <mxRectangle width="153" height="40" as="alternateBounds" />
          </mxGeometry>
        </mxCell>
        <mxCell id="Bp53cEUUAUtTLwCxKNym-4" value="Type" style="shape=partialRectangle;html=1;whiteSpace=wrap;connectable=0;overflow=hidden;top=1;left=1;bottom=1;right=1;pointerEvents=1;fontSize=16;fillColor=#E3E0E0;fillStyle=auto;strokeWidth=2;" parent="Bp53cEUUAUtTLwCxKNym-2" vertex="1">
          <mxGeometry x="153" width="107" height="40" as="geometry">
            <mxRectangle width="107" height="40" as="alternateBounds" />
          </mxGeometry>
        </mxCell>
        <mxCell id="Bp53cEUUAUtTLwCxKNym-5" value="Description" style="shape=partialRectangle;html=1;whiteSpace=wrap;connectable=0;overflow=hidden;top=1;left=1;bottom=1;right=1;pointerEvents=1;fontSize=16;fillColor=#E3E0E0;fillStyle=auto;strokeWidth=2;" parent="Bp53cEUUAUtTLwCxKNym-2" vertex="1">
          <mxGeometry x="260" width="240" height="40" as="geometry">
            <mxRectangle width="240" height="40" as="alternateBounds" />
          </mxGeometry>
        </mxCell>
        <mxCell id="Bp53cEUUAUtTLwCxKNym-6" style="shape=tableRow;horizontal=0;startSize=0;swimlaneHead=0;swimlaneBody=0;strokeColor=inherit;top=0;left=0;bottom=0;right=0;collapsible=0;dropTarget=0;fillColor=none;points=[[0,0.5],[1,0.5]];portConstraint=eastwest;fontSize=16;" parent="Bp53cEUUAUtTLwCxKNym-1" vertex="1">
          <mxGeometry y="70" width="500.00000000000045" height="40" as="geometry" />
        </mxCell>
        <mxCell id="Bp53cEUUAUtTLwCxKNym-7" value="id_activity (PK)" style="shape=partialRectangle;html=1;whiteSpace=wrap;connectable=0;strokeColor=inherit;overflow=hidden;fillColor=none;top=0;left=0;bottom=0;right=0;pointerEvents=1;fontSize=16;" parent="Bp53cEUUAUtTLwCxKNym-6" vertex="1">
          <mxGeometry width="153" height="40" as="geometry">
            <mxRectangle width="153" height="40" as="alternateBounds" />
          </mxGeometry>
        </mxCell>
        <mxCell id="Bp53cEUUAUtTLwCxKNym-8" value="int (10)" style="shape=partialRectangle;html=1;whiteSpace=wrap;connectable=0;strokeColor=inherit;overflow=hidden;fillColor=none;top=0;left=0;bottom=0;right=0;pointerEvents=1;fontSize=16;" parent="Bp53cEUUAUtTLwCxKNym-6" vertex="1">
          <mxGeometry x="153" width="107" height="40" as="geometry">
            <mxRectangle width="107" height="40" as="alternateBounds" />
          </mxGeometry>
        </mxCell>
        <mxCell id="Bp53cEUUAUtTLwCxKNym-9" value="ไอดี activity" style="shape=partialRectangle;html=1;whiteSpace=wrap;connectable=0;strokeColor=inherit;overflow=hidden;fillColor=none;top=0;left=0;bottom=0;right=0;pointerEvents=1;fontSize=16;" parent="Bp53cEUUAUtTLwCxKNym-6" vertex="1">
          <mxGeometry x="260" width="240" height="40" as="geometry">
            <mxRectangle width="240" height="40" as="alternateBounds" />
          </mxGeometry>
        </mxCell>
        <mxCell id="Bp53cEUUAUtTLwCxKNym-10" style="shape=tableRow;horizontal=0;startSize=0;swimlaneHead=0;swimlaneBody=0;strokeColor=inherit;top=0;left=0;bottom=0;right=0;collapsible=0;dropTarget=0;fillColor=none;points=[[0,0.5],[1,0.5]];portConstraint=eastwest;fontSize=16;" parent="Bp53cEUUAUtTLwCxKNym-1" vertex="1">
          <mxGeometry y="110" width="500.00000000000045" height="40" as="geometry" />
        </mxCell>
        <mxCell id="Bp53cEUUAUtTLwCxKNym-11" value="id_user (FK)" style="shape=partialRectangle;html=1;whiteSpace=wrap;connectable=0;strokeColor=inherit;overflow=hidden;fillColor=none;top=0;left=0;bottom=0;right=0;pointerEvents=1;fontSize=16;" parent="Bp53cEUUAUtTLwCxKNym-10" vertex="1">
          <mxGeometry width="153" height="40" as="geometry">
            <mxRectangle width="153" height="40" as="alternateBounds" />
          </mxGeometry>
        </mxCell>
        <mxCell id="Bp53cEUUAUtTLwCxKNym-12" value="int (10)" style="shape=partialRectangle;html=1;whiteSpace=wrap;connectable=0;strokeColor=inherit;overflow=hidden;fillColor=none;top=0;left=0;bottom=0;right=0;pointerEvents=1;fontSize=16;" parent="Bp53cEUUAUtTLwCxKNym-10" vertex="1">
          <mxGeometry x="153" width="107" height="40" as="geometry">
            <mxRectangle width="107" height="40" as="alternateBounds" />
          </mxGeometry>
        </mxCell>
        <mxCell id="Bp53cEUUAUtTLwCxKNym-13" value="ไอดีผู้ใช้" style="shape=partialRectangle;html=1;whiteSpace=wrap;connectable=0;strokeColor=inherit;overflow=hidden;fillColor=none;top=0;left=0;bottom=0;right=0;pointerEvents=1;fontSize=16;" parent="Bp53cEUUAUtTLwCxKNym-10" vertex="1">
          <mxGeometry x="260" width="240" height="40" as="geometry">
            <mxRectangle width="240" height="40" as="alternateBounds" />
          </mxGeometry>
        </mxCell>
        <mxCell id="Bp53cEUUAUtTLwCxKNym-47" style="shape=tableRow;horizontal=0;startSize=0;swimlaneHead=0;swimlaneBody=0;strokeColor=inherit;top=0;left=0;bottom=0;right=0;collapsible=0;dropTarget=0;fillColor=none;points=[[0,0.5],[1,0.5]];portConstraint=eastwest;fontSize=16;" parent="Bp53cEUUAUtTLwCxKNym-1" vertex="1">
          <mxGeometry y="150" width="500.00000000000045" height="40" as="geometry" />
        </mxCell>
        <mxCell id="Bp53cEUUAUtTLwCxKNym-48" value="type_user" style="shape=partialRectangle;html=1;whiteSpace=wrap;connectable=0;strokeColor=inherit;overflow=hidden;fillColor=none;top=0;left=0;bottom=0;right=0;pointerEvents=1;fontSize=16;" parent="Bp53cEUUAUtTLwCxKNym-47" vertex="1">
          <mxGeometry width="153" height="40" as="geometry">
            <mxRectangle width="153" height="40" as="alternateBounds" />
          </mxGeometry>
        </mxCell>
        <mxCell id="Bp53cEUUAUtTLwCxKNym-49" value="int (10)" style="shape=partialRectangle;html=1;whiteSpace=wrap;connectable=0;strokeColor=inherit;overflow=hidden;fillColor=none;top=0;left=0;bottom=0;right=0;pointerEvents=1;fontSize=16;" parent="Bp53cEUUAUtTLwCxKNym-47" vertex="1">
          <mxGeometry x="153" width="107" height="40" as="geometry">
            <mxRectangle width="107" height="40" as="alternateBounds" />
          </mxGeometry>
        </mxCell>
        <mxCell id="Bp53cEUUAUtTLwCxKNym-50" value="ประเภทผู้ใช้" style="shape=partialRectangle;html=1;whiteSpace=wrap;connectable=0;strokeColor=inherit;overflow=hidden;fillColor=none;top=0;left=0;bottom=0;right=0;pointerEvents=1;fontSize=16;" parent="Bp53cEUUAUtTLwCxKNym-47" vertex="1">
          <mxGeometry x="260" width="240" height="40" as="geometry">
            <mxRectangle width="240" height="40" as="alternateBounds" />
          </mxGeometry>
        </mxCell>
        <mxCell id="Bp53cEUUAUtTLwCxKNym-22" style="shape=tableRow;horizontal=0;startSize=0;swimlaneHead=0;swimlaneBody=0;strokeColor=inherit;top=0;left=0;bottom=0;right=0;collapsible=0;dropTarget=0;fillColor=none;points=[[0,0.5],[1,0.5]];portConstraint=eastwest;fontSize=16;" parent="Bp53cEUUAUtTLwCxKNym-1" vertex="1">
          <mxGeometry y="190" width="500.00000000000045" height="40" as="geometry" />
        </mxCell>
        <mxCell id="Bp53cEUUAUtTLwCxKNym-23" value="type" style="shape=partialRectangle;html=1;whiteSpace=wrap;connectable=0;strokeColor=inherit;overflow=hidden;fillColor=none;top=0;left=0;bottom=0;right=0;pointerEvents=1;fontSize=16;" parent="Bp53cEUUAUtTLwCxKNym-22" vertex="1">
          <mxGeometry width="153" height="40" as="geometry">
            <mxRectangle width="153" height="40" as="alternateBounds" />
          </mxGeometry>
        </mxCell>
        <mxCell id="Bp53cEUUAUtTLwCxKNym-24" value="int (10)" style="shape=partialRectangle;html=1;whiteSpace=wrap;connectable=0;strokeColor=inherit;overflow=hidden;fillColor=none;top=0;left=0;bottom=0;right=0;pointerEvents=1;fontSize=16;" parent="Bp53cEUUAUtTLwCxKNym-22" vertex="1">
          <mxGeometry x="153" width="107" height="40" as="geometry">
            <mxRectangle width="107" height="40" as="alternateBounds" />
          </mxGeometry>
        </mxCell>
        <mxCell id="Bp53cEUUAUtTLwCxKNym-25" value="[1] เข้าสู่ระบบ , [2] ออกจากระบบ" style="shape=partialRectangle;html=1;whiteSpace=wrap;connectable=0;strokeColor=inherit;overflow=hidden;fillColor=none;top=0;left=0;bottom=0;right=0;pointerEvents=1;fontSize=16;" parent="Bp53cEUUAUtTLwCxKNym-22" vertex="1">
          <mxGeometry x="260" width="240" height="40" as="geometry">
            <mxRectangle width="240" height="40" as="alternateBounds" />
          </mxGeometry>
        </mxCell>
        <mxCell id="Bp53cEUUAUtTLwCxKNym-26" style="shape=tableRow;horizontal=0;startSize=0;swimlaneHead=0;swimlaneBody=0;strokeColor=inherit;top=0;left=0;bottom=0;right=0;collapsible=0;dropTarget=0;fillColor=none;points=[[0,0.5],[1,0.5]];portConstraint=eastwest;fontSize=16;" parent="Bp53cEUUAUtTLwCxKNym-1" vertex="1">
          <mxGeometry y="230" width="500.00000000000045" height="40" as="geometry" />
        </mxCell>
        <mxCell id="Bp53cEUUAUtTLwCxKNym-27" value="date_activity" style="shape=partialRectangle;html=1;whiteSpace=wrap;connectable=0;strokeColor=inherit;overflow=hidden;fillColor=none;top=0;left=0;bottom=0;right=0;pointerEvents=1;fontSize=16;" parent="Bp53cEUUAUtTLwCxKNym-26" vertex="1">
          <mxGeometry width="153" height="40" as="geometry">
            <mxRectangle width="153" height="40" as="alternateBounds" />
          </mxGeometry>
        </mxCell>
        <mxCell id="Bp53cEUUAUtTLwCxKNym-28" value="date" style="shape=partialRectangle;html=1;whiteSpace=wrap;connectable=0;strokeColor=inherit;overflow=hidden;fillColor=none;top=0;left=0;bottom=0;right=0;pointerEvents=1;fontSize=16;" parent="Bp53cEUUAUtTLwCxKNym-26" vertex="1">
          <mxGeometry x="153" width="107" height="40" as="geometry">
            <mxRectangle width="107" height="40" as="alternateBounds" />
          </mxGeometry>
        </mxCell>
        <mxCell id="Bp53cEUUAUtTLwCxKNym-29" value="วันที่" style="shape=partialRectangle;html=1;whiteSpace=wrap;connectable=0;strokeColor=inherit;overflow=hidden;fillColor=none;top=0;left=0;bottom=0;right=0;pointerEvents=1;fontSize=16;" parent="Bp53cEUUAUtTLwCxKNym-26" vertex="1">
          <mxGeometry x="260" width="240" height="40" as="geometry">
            <mxRectangle width="240" height="40" as="alternateBounds" />
          </mxGeometry>
        </mxCell>
        <mxCell id="Bp53cEUUAUtTLwCxKNym-51" style="shape=tableRow;horizontal=0;startSize=0;swimlaneHead=0;swimlaneBody=0;strokeColor=inherit;top=0;left=0;bottom=0;right=0;collapsible=0;dropTarget=0;fillColor=none;points=[[0,0.5],[1,0.5]];portConstraint=eastwest;fontSize=16;" parent="Bp53cEUUAUtTLwCxKNym-1" vertex="1">
          <mxGeometry y="270" width="500.00000000000045" height="40" as="geometry" />
        </mxCell>
        <mxCell id="Bp53cEUUAUtTLwCxKNym-52" value="time_activites" style="shape=partialRectangle;html=1;whiteSpace=wrap;connectable=0;strokeColor=inherit;overflow=hidden;fillColor=none;top=0;left=0;bottom=0;right=0;pointerEvents=1;fontSize=16;" parent="Bp53cEUUAUtTLwCxKNym-51" vertex="1">
          <mxGeometry width="153" height="40" as="geometry">
            <mxRectangle width="153" height="40" as="alternateBounds" />
          </mxGeometry>
        </mxCell>
        <mxCell id="Bp53cEUUAUtTLwCxKNym-53" value="time" style="shape=partialRectangle;html=1;whiteSpace=wrap;connectable=0;strokeColor=inherit;overflow=hidden;fillColor=none;top=0;left=0;bottom=0;right=0;pointerEvents=1;fontSize=16;" parent="Bp53cEUUAUtTLwCxKNym-51" vertex="1">
          <mxGeometry x="153" width="107" height="40" as="geometry">
            <mxRectangle width="107" height="40" as="alternateBounds" />
          </mxGeometry>
        </mxCell>
        <mxCell id="Bp53cEUUAUtTLwCxKNym-54" value="เวลา" style="shape=partialRectangle;html=1;whiteSpace=wrap;connectable=0;strokeColor=inherit;overflow=hidden;fillColor=none;top=0;left=0;bottom=0;right=0;pointerEvents=1;fontSize=16;" parent="Bp53cEUUAUtTLwCxKNym-51" vertex="1">
          <mxGeometry x="260" width="240" height="40" as="geometry">
            <mxRectangle width="240" height="40" as="alternateBounds" />
          </mxGeometry>
        </mxCell>
        <mxCell id="Bp53cEUUAUtTLwCxKNym-46" style="edgeStyle=orthogonalEdgeStyle;rounded=1;orthogonalLoop=1;jettySize=auto;html=1;exitX=0;exitY=0.5;exitDx=0;exitDy=0;entryX=0;entryY=0.5;entryDx=0;entryDy=0;strokeWidth=2;endArrow=none;endFill=0;curved=0;" parent="1" source="9VO5_gYoO6aW6VXsWO2F-81" target="Bp53cEUUAUtTLwCxKNym-10" edge="1">
          <mxGeometry relative="1" as="geometry" />
        </mxCell>
      </root>
    </mxGraphModel>
  </diagram>
</mxfile>
